<mxfile host="app.diagrams.net" agent="Mozilla/5.0 (Macintosh; Intel Mac OS X 10_15_7) AppleWebKit/537.36 (KHTML, like Gecko) Chrome/131.0.0.0 Safari/537.36" version="26.0.2">
  <diagram name="Page-1" id="Page-1">
    <mxGraphModel dx="1323" dy="753" grid="1" gridSize="10" guides="1" tooltips="1" connect="1" arrows="1" fold="1" page="1" pageScale="1" pageWidth="1100" pageHeight="850" math="0" shadow="0">
      <root>
        <mxCell id="0" />
        <mxCell id="1" parent="0" />
        <UserObject label="" BpmnName="Conversation flow" BPMNLanes="2" tags="Background" id="2">
          <mxCell style="vsdxID=207;fillColor=none;gradientColor=none;points=[[0.06,1,0],[0.13,1,0],[0.19,1,0],[0.25,1,0],[0.31,1,0],[0.38,1,0],[0.44,1,0],[0.5,1,0],[0.56,1,0],[0.63,1,0],[0.69,1,0],[0.75,1,0],[0.81,1,0],[0.88,1,0],[0.94,1,0],[0.06,0,0],[0.13,0,0],[0.19,0,0],[0.25,0,0],[0.31,0,0],[0.38,0,0],[0.44,0,0],[0.5,0,0],[0.56,0,0],[0.63,0,0],[0.69,0,0],[0.75,0,0],[0.81,0,0],[0.88,0,0],[0.94,0,0]];labelBackgroundColor=none;rounded=0;strokeColor=none;html=1;whiteSpace=wrap;fontFamily=Garamond;fontSize=18;" parent="1" vertex="1">
            <mxGeometry x="25" y="29" width="1257" height="340" as="geometry" />
          </mxCell>
        </UserObject>
        <mxCell id="3" style="vsdxID=208;fillColor=#FFFFFF;gradientColor=none;fillOpacity=0;shape=stencil(nZBLDoAgDERP0z3SIyjew0SURgSD+Lu9kMZoXLhwN9O+tukAlrNpJg1SzDH4QW/URgNYgZTkjA4UkwJUgGXng+6DX1zLfmoymdXo17xh5zmRJ6Q42BWCfc2oJfdAr+Yv+AP9Cb7OJ3H/2JG1HNGz/84klThPVCc=);points=[[0.06,1,0],[0.13,1,0],[0.19,1,0],[0.25,1,0],[0.31,1,0],[0.38,1,0],[0.44,1,0],[0.5,1,0],[0.56,1,0],[0.63,1,0],[0.69,1,0],[0.75,1,0],[0.81,1,0],[0.88,1,0],[0.94,1,0],[0.06,0,0],[0.13,0,0],[0.19,0,0],[0.25,0,0],[0.31,0,0],[0.38,0,0],[0.44,0,0],[0.5,0,0],[0.56,0,0],[0.63,0,0],[0.69,0,0],[0.75,0,0],[0.81,0,0],[0.88,0,0],[0.94,0,0]];labelBackgroundColor=none;rounded=0;html=1;whiteSpace=wrap;fontFamily=Garamond;fontSize=18;" parent="2" vertex="1">
          <mxGeometry width="1257" height="340" as="geometry" />
        </mxCell>
        <mxCell id="4" value="&lt;div&gt;&lt;font style=&quot;color: rgb(0, 0, 0); direction: ltr; letter-spacing: 0px; line-height: 120%; opacity: 1;&quot;&gt;Conversation flow&lt;br&gt;&lt;/font&gt;&lt;/div&gt;" style="verticalAlign=middle;align=center;overflow=width;vsdxID=209;rotation=270;fillColor=#FFFFFF;gradientColor=none;shape=stencil(nZBLDoAgDERP0z3SIyjew0SURgSD+Lu9kMZoXLhwN9O+tukAlrNpJg1SzDH4QW/URgNYgZTkjA4UkwJUgGXng+6DX1zLfmoymdXo17xh5zmRJ6Q42BWCfc2oJfdAr+Yv+AP9Cb7OJ3H/2JG1HNGz/84klThPVCc=);points=[[0.06,1,0],[0.13,1,0],[0.19,1,0],[0.25,1,0],[0.31,1,0],[0.38,1,0],[0.44,1,0],[0.5,1,0],[0.56,1,0],[0.63,1,0],[0.69,1,0],[0.75,1,0],[0.81,1,0],[0.88,1,0],[0.94,1,0],[0.06,0,0],[0.13,0,0],[0.19,0,0],[0.25,0,0],[0.31,0,0],[0.38,0,0],[0.44,0,0],[0.5,0,0],[0.56,0,0],[0.63,0,0],[0.69,0,0],[0.75,0,0],[0.81,0,0],[0.88,0,0],[0.94,0,0]];labelBackgroundColor=none;rounded=0;html=1;whiteSpace=wrap;fontFamily=Garamond;fontSize=18;" parent="2" vertex="1">
          <mxGeometry x="-145" y="144" width="340" height="50" as="geometry" />
        </mxCell>
        <UserObject label="" tags="Background" id="5">
          <mxCell style="vsdxID=210;fillColor=#FFFFFF;gradientColor=none;fillOpacity=0;shape=stencil(nZBLDoAgDERP0z3SIyjew0SURgSD+Lu9kMZoXLhwN9N5bdMClrNpJg1SzDH4QW/URgNYgZTkjA4UkwJUgGXng+6DX1zLfmoymdXo1zxh5z6RO6Q42BWCfc2oJfdAr/AX/IH+BF/rk7hv7MjaZ/L+RirxJ1Gd);points=[];labelBackgroundColor=none;rounded=0;html=1;whiteSpace=wrap;fontFamily=Garamond;fontSize=18;" parent="1" vertex="1">
            <mxGeometry x="76" y="29" width="1206" height="340" as="geometry" />
          </mxCell>
        </UserObject>
        <UserObject label="" BpmnName="Requester" BpmnPoolElementType="Pool" BpmnPoolId="0" BpmnPoolCategories="0" BpmnPoolDocumentation="0" BpmnPoolName="Conversation flow" BPMNPoolLanes="2" BPMNPoolBoundaryVisible="0" BPMNPoolMainPool="0" tags="Background" id="6">
          <mxCell style="vsdxID=61;fillColor=none;gradientColor=none;points=[];labelBackgroundColor=none;rounded=0;strokeColor=none;html=1;whiteSpace=wrap;fontFamily=Garamond;fontSize=18;" parent="1" vertex="1">
            <mxGeometry x="76" y="254" width="1206" height="116" as="geometry" />
          </mxCell>
        </UserObject>
        <mxCell id="7" style="vsdxID=62;fillColor=#FFFFFF;gradientColor=none;fillOpacity=0;shape=stencil(nZBLDoAgDERP0z3SIyjew0SURgSD+Lu9kMZoXLhwN9O+tukAlrNpJg1SzDH4QW/URgNYgZTkjA4UkwJUgGXng+6DX1zLfmoymdXo17xh5zmRJ6Q42BWCfc2oJfdAr+Yv+AP9Cb7OJ3H/2JG1HNGz/84klThPVCc=);points=[];labelBackgroundColor=none;rounded=0;html=1;whiteSpace=wrap;fontFamily=Garamond;fontSize=18;" parent="6" vertex="1">
          <mxGeometry width="1206" height="116" as="geometry" />
        </mxCell>
        <mxCell id="8" value="&lt;div&gt;&lt;font style=&quot;color: rgb(0, 0, 0); direction: ltr; letter-spacing: 0px; line-height: 120%; opacity: 1;&quot;&gt;Requester&lt;br&gt;&lt;/font&gt;&lt;/div&gt;" style="verticalAlign=middle;align=center;overflow=width;vsdxID=64;rotation=270;fillColor=#FFFFFF;gradientColor=none;shape=stencil(nZBLDoAgDERP0z3SIyjew0SURgSD+Lu9kMZoXLhwN9O+tukAlrNpJg1SzDH4QW/URgNYgZTkjA4UkwJUgGXng+6DX1zLfmoymdXo17xh5zmRJ6Q42BWCfc2oJfdAr+Yv+AP9Cb7OJ3H/2JG1HNGz/84klThPVCc=);points=[];labelBackgroundColor=none;rounded=0;html=1;whiteSpace=wrap;fontFamily=Garamond;fontSize=18;" parent="6" vertex="1">
          <mxGeometry x="-33" y="32" width="116" height="50" as="geometry" />
        </mxCell>
        <UserObject label="" BpmnName="Chatbot" BpmnPoolElementType="Pool" BpmnPoolId="0" BpmnPoolCategories="0" BpmnPoolDocumentation="0" BpmnPoolName="Conversation flow" BPMNPoolLanes="2" BPMNPoolBoundaryVisible="0" BPMNPoolMainPool="0" tags="Background" id="9">
          <mxCell style="vsdxID=203;fillColor=none;gradientColor=none;points=[];labelBackgroundColor=none;rounded=0;strokeColor=none;html=1;whiteSpace=wrap;fontFamily=Garamond;fontSize=18;" parent="1" vertex="1">
            <mxGeometry x="76" y="29" width="1206" height="224" as="geometry" />
          </mxCell>
        </UserObject>
        <mxCell id="10" style="vsdxID=204;fillColor=#FFFFFF;gradientColor=none;fillOpacity=0;shape=stencil(nZBLDoAgDERP0z3SIyjew0SURgSD+Lu9kMZoXLhwN9O+tukAlrNpJg1SzDH4QW/URgNYgZTkjA4UkwJUgGXng+6DX1zLfmoymdXo17xh5zmRJ6Q42BWCfc2oJfdAr+Yv+AP9Cb7OJ3H/2JG1HNGz/84klThPVCc=);points=[];labelBackgroundColor=none;rounded=0;html=1;whiteSpace=wrap;fontFamily=Garamond;fontSize=18;" parent="9" vertex="1">
          <mxGeometry width="1206" height="224" as="geometry" />
        </mxCell>
        <mxCell id="11" value="&lt;div&gt;&lt;font style=&quot;color: rgb(0, 0, 0); direction: ltr; letter-spacing: 0px; line-height: 120%; opacity: 1;&quot;&gt;Chatbot&lt;br&gt;&lt;/font&gt;&lt;/div&gt;" style="verticalAlign=middle;align=center;overflow=width;vsdxID=206;rotation=270;fillColor=#FFFFFF;gradientColor=none;shape=stencil(nZBLDoAgDERP0z3SIyjew0SURgSD+Lu9kMZoXLhwN9O+tukAlrNpJg1SzDH4QW/URgNYgZTkjA4UkwJUgGXng+6DX1zLfmoymdXo17xh5zmRJ6Q42BWCfc2oJfdAr+Yv+AP9Cb7OJ3H/2JG1HNGz/84klThPVCc=);points=[];labelBackgroundColor=none;rounded=0;html=1;whiteSpace=wrap;fontFamily=Garamond;fontSize=18;" parent="9" vertex="1">
          <mxGeometry x="-87" y="86" width="224" height="50" as="geometry" />
        </mxCell>
        <UserObject label="" tags="Background" id="12">
          <mxCell style="vsdxID=211;fillColor=#FFFFFF;gradientColor=none;shape=stencil(nZBLDoAgDERP0z3SIyDew0QUooJB/N1eSGM0LFywm2lf23QAxarbRQFna/BuVIfpggasgXNjtfImRAUoAUXvvBq822xHfmkTmdTs9rThpDmWJji7yFWMfEPoZOwHfZpF8A9aCGbno3h/jCYPIJYoPJQ3);points=[];labelBackgroundColor=none;rounded=0;html=1;whiteSpace=wrap;fontFamily=Garamond;fontSize=18;" parent="1" vertex="1">
            <mxGeometry x="127" y="29" width="1155" height="340" as="geometry" />
          </mxCell>
        </UserObject>
        <UserObject label="" tags="Background" id="13">
          <mxCell style="vsdxID=212;fillColor=none;gradientColor=none;points=[];labelBackgroundColor=none;rounded=0;strokeColor=none;html=1;whiteSpace=wrap;fontFamily=Garamond;fontSize=18;" parent="1" vertex="1">
            <mxGeometry x="127" y="29" width="1155" height="340" as="geometry" />
          </mxCell>
        </UserObject>
        <mxCell id="14" value="&lt;div&gt;&lt;/div&gt;" style="verticalAlign=middle;align=center;overflow=width;vsdxID=213;fillColor=none;gradientColor=none;fillOpacity=0;spacingTop=-1;spacingBottom=-1;spacingLeft=-1;spacingRight=-1;points=[];labelBackgroundColor=none;rounded=0;html=1;strokeColor=none;whiteSpace=wrap;fontFamily=Garamond;fontSize=18;" parent="13" vertex="1">
          <mxGeometry width="1155" height="340" as="geometry" />
        </mxCell>
        <mxCell id="15" style="vsdxID=214;fillColor=#FFFFFF;gradientColor=none;shape=stencil(rZBLDoAgDERP0z3SI/i5B4kojQgE8Xd7IY3RuHY303lt0gGsF6OCBimWFP2kd+qTAWxASnJGR0pZAbaA9eCjHqNfXc8+qEIWNfutXDh4T5QNKU52lWDfMWrJvdA7/B/+C83i+XMga7mmd/7tJY+4U2wv);spacingTop=-1;spacingBottom=-1;spacingLeft=-1;spacingRight=-1;points=[];labelBackgroundColor=none;rounded=0;html=1;whiteSpace=wrap;fontFamily=Garamond;fontSize=18;" parent="13" vertex="1">
          <mxGeometry x="-51" width="1206" height="1" as="geometry" />
        </mxCell>
        <UserObject label="" BpmnName="Type the desired service description " tags="Flowchart" id="16">
          <mxCell style="vsdxID=111;fillColor=none;gradientColor=none;spacingTop=-1;spacingBottom=-1;spacingLeft=-1;spacingRight=-1;points=[[0,0.75,0],[0,0.5,0],[0,0.25,0],[0.25,0,0],[0.5,0,0],[0.75,0,0],[1,0.25,0],[1,0.5,0],[1,0.75,0],[0.75,1,0],[0.5,1,0],[0.25,1,0]];labelBackgroundColor=none;rounded=1;strokeColor=none;html=1;whiteSpace=wrap;fontFamily=Garamond;fontSize=18;" parent="1" vertex="1">
            <mxGeometry x="184" y="269" width="165" height="76" as="geometry" />
          </mxCell>
        </UserObject>
        <mxCell id="17" style="vsdxID=112;fillColor=#FFFFFF;gradientColor=none;shape=stencil(nZCxDsIwDES/xitKk6V7KT/AF0TUEIuQVGmgwNeT9kCqOjB0s++efdKRaQZneyathpzilUfpsiOzJ60lOE6Sy0SmJdOcY+JLivfQYe9tIbWaFe5wU020VjadjvJmaPWu0jV0HN7iYwp8wlawXt8HCvsBqJewQH/mJvgPuhFcxZdhrgRlifdodOmvKywS6jftBw==);spacingTop=-1;spacingBottom=-1;spacingLeft=-1;spacingRight=-1;points=[[0,0.75,0],[0,0.5,0],[0,0.25,0],[0.25,0,0],[0.5,0,0],[0.75,0,0],[1,0.25,0],[1,0.5,0],[1,0.75,0],[0.75,1,0],[0.5,1,0],[0.25,1,0]];labelBackgroundColor=none;rounded=1;html=1;whiteSpace=wrap;fontFamily=Garamond;fontSize=18;" parent="16" vertex="1">
          <mxGeometry width="165" height="76" as="geometry" />
        </mxCell>
        <mxCell id="19" value="&lt;div&gt;&lt;/div&gt;" style="verticalAlign=middle;align=center;overflow=width;vsdxID=116;fillColor=none;gradientColor=none;strokeWidth=2;spacingTop=-3;spacingBottom=-3;spacingLeft=-3;spacingRight=-3;points=[[0,0.75,0],[0,0.5,0],[0,0.25,0],[0.25,0,0],[0.5,0,0],[0.75,0,0],[1,0.25,0],[1,0.5,0],[1,0.75,0],[0.75,1,0],[0.5,1,0],[0.25,1,0]];labelBackgroundColor=none;rounded=0;html=1;strokeColor=none;whiteSpace=wrap;fontFamily=Garamond;fontSize=18;" parent="16" vertex="1">
          <mxGeometry x="83" y="56" width="16" height="16" as="geometry" />
        </mxCell>
        <mxCell id="22" value="&lt;div&gt;&lt;/div&gt;" style="verticalAlign=middle;align=center;overflow=width;vsdxID=124;fillColor=none;gradientColor=none;spacingTop=-1;spacingBottom=-1;spacingLeft=-1;spacingRight=-1;points=[[0,0.75,0],[0,0.5,0],[0,0.25,0],[0.25,0,0],[0.5,0,0],[0.75,0,0],[1,0.25,0],[1,0.5,0],[1,0.75,0],[0.75,1,0],[0.5,1,0],[0.25,1,0]];labelBackgroundColor=none;rounded=0;html=1;strokeColor=none;whiteSpace=wrap;fontFamily=Garamond;fontSize=18;" parent="16" vertex="1">
          <mxGeometry x="5" y="5" width="14" height="14" as="geometry" />
        </mxCell>
        <mxCell id="24" value="&lt;div&gt;&lt;font style=&quot;color: rgb(0, 0, 0); direction: ltr; letter-spacing: 0px; line-height: 120%; opacity: 1;&quot;&gt;Type the desired service description &lt;br&gt;&lt;/font&gt;&lt;/div&gt;" style="text;vsdxID=111;fillColor=none;gradientColor=none;spacingTop=-1;spacingBottom=-1;spacingLeft=-1;spacingRight=-1;points=[[0,0.75,0],[0,0.5,0],[0,0.25,0],[0.25,0,0],[0.5,0,0],[0.75,0,0],[1,0.25,0],[1,0.5,0],[1,0.75,0],[0.75,1,0],[0.5,1,0],[0.25,1,0]];labelBackgroundColor=none;rounded=1;strokeColor=none;html=1;whiteSpace=wrap;verticalAlign=middle;align=center;;html=1;fontFamily=Garamond;fontSize=18;" parent="16" vertex="1">
          <mxGeometry y="37.9" width="165.1" as="geometry" />
        </mxCell>
        <UserObject label="" tags="Flowchart" id="25">
          <mxCell style="vsdxID=215;fillColor=none;gradientColor=none;strokeColor=none;spacingTop=-1;spacingBottom=-1;spacingLeft=-1;spacingRight=-1;points=[[0.5,0.5,0],[0.5,0,0],[0,0.5,0],[0.5,1,0],[1,0.5,0]];labelBackgroundColor=none;rounded=0;html=1;whiteSpace=wrap;fontFamily=Garamond;fontSize=18;" parent="1" vertex="1">
            <mxGeometry x="133" y="144" width="31" height="31" as="geometry" />
          </mxCell>
        </UserObject>
        <mxCell id="26" style="vsdxID=216;fillColor=#FFFFFF;gradientColor=none;shape=stencil(vVHLDsIgEPwajiQI6RfU+h8bu22JCGRB2/69kG1iazx58DazM/vIjjBtmiCi0CplCjecbZ8nYc5Ca+snJJsLEqYTph0C4Ujh4XvmEaqzont41gkL96naodXKrGF6YSfQtUi0OXXDVlqPfJNP6usotUhYbJIUMmQb/GGrAxpRljVycDBuc1hKM2LclX8/7H9nFfB+82Cd45T2+mcspcSRmu4F);spacingTop=-1;spacingBottom=-1;spacingLeft=-1;spacingRight=-1;points=[[0.5,0.5,0],[0.5,0,0],[0,0.5,0],[0.5,1,0],[1,0.5,0]];labelBackgroundColor=none;rounded=0;html=1;whiteSpace=wrap;fontFamily=Garamond;fontSize=18;" parent="25" vertex="1">
          <mxGeometry width="31" height="31" as="geometry" />
        </mxCell>
        <mxCell id="27" value="&lt;div&gt;&lt;/div&gt;" style="verticalAlign=middle;align=center;overflow=width;vsdxID=220;fillColor=none;gradientColor=none;strokeColor=none;spacingTop=-1;spacingBottom=-1;spacingLeft=-1;spacingRight=-1;points=[[0.5,0.5,0],[0.5,0,0],[0,0.5,0],[0.5,1,0],[1,0.5,0]];labelBackgroundColor=#FFFFFF;rounded=0;html=1;whiteSpace=wrap;fontFamily=Garamond;fontSize=18;" parent="25" vertex="1">
          <mxGeometry x="7" y="9" width="17" height="12" as="geometry" />
        </mxCell>
        <mxCell id="28" value="&lt;div&gt;&lt;/div&gt;" style="verticalAlign=middle;align=center;overflow=width;vsdxID=221;fillColor=none;gradientColor=none;strokeColor=none;spacingTop=-1;spacingBottom=-1;spacingLeft=-1;spacingRight=-1;flipH=1;points=[[0.5,0.5,0],[0.5,0,0],[0,0.5,0],[0.5,1,0],[1,0.5,0]];labelBackgroundColor=none;rounded=0;html=1;whiteSpace=wrap;fontFamily=Garamond;fontSize=18;" parent="25" vertex="1">
          <mxGeometry x="7" y="9" width="18" height="12" as="geometry" />
        </mxCell>
        <mxCell id="29" value="&lt;div&gt;&lt;/div&gt;" style="verticalAlign=middle;align=center;overflow=width;vsdxID=225;fillColor=none;gradientColor=none;strokeColor=none;spacingTop=-1;spacingBottom=-1;spacingLeft=-1;spacingRight=-1;points=[[0.5,0.5,0],[0.5,0,0],[0,0.5,0],[0.5,1,0],[1,0.5,0]];labelBackgroundColor=#FFFFFF;rounded=0;html=1;whiteSpace=wrap;fontFamily=Garamond;fontSize=18;" parent="25" vertex="1">
          <mxGeometry x="7" y="9" width="17" height="12" as="geometry" />
        </mxCell>
        <mxCell id="30" value="&lt;div&gt;&lt;/div&gt;" style="text;vsdxID=215;fillColor=none;gradientColor=none;strokeColor=none;spacingTop=-1;spacingBottom=-1;spacingLeft=-1;spacingRight=-1;points=[[0.5,0.5,0],[0.5,0,0],[0,0.5,0],[0.5,1,0],[1,0.5,0]];labelBackgroundColor=none;rounded=0;html=1;whiteSpace=wrap;verticalAlign=middle;align=center;overflow=width;;html=1;fontFamily=Garamond;fontSize=18;" parent="25" vertex="1">
          <mxGeometry x="13.05" y="31" width="5.64" height="25.96" as="geometry" />
        </mxCell>
        <UserObject label="" BpmnName="Ask for initial description" tags="Flowchart" id="31">
          <mxCell style="vsdxID=228;fillColor=none;gradientColor=none;spacingTop=-1;spacingBottom=-1;spacingLeft=-1;spacingRight=-1;points=[[0,0.75,0],[0,0.5,0],[0,0.25,0],[0.25,0,0],[0.5,0,0],[0.75,0,0],[1,0.25,0],[1,0.5,0],[1,0.75,0],[0.75,1,0],[0.5,1,0],[0.25,1,0]];labelBackgroundColor=none;rounded=1;strokeColor=none;html=1;whiteSpace=wrap;fontFamily=Garamond;fontSize=18;" parent="1" vertex="1">
            <mxGeometry x="184" y="122" width="165" height="76" as="geometry" />
          </mxCell>
        </UserObject>
        <mxCell id="32" style="vsdxID=229;fillColor=#FFFFFF;gradientColor=none;shape=stencil(nZCxDsIwDES/xitKk6V7KT/AF0TUEIuQVGmgwNeT9kCqOjB0s++efdKRaQZneyathpzilUfpsiOzJ60lOE6Sy0SmJdOcY+JLivfQYe9tIbWaFe5wU020VjadjvJmaPWu0jV0HN7iYwp8wlawXt8HCvsBqJewQH/mJvgPuhFcxZdhrgRlifdodOmvKywS6jftBw==);spacingTop=-1;spacingBottom=-1;spacingLeft=-1;spacingRight=-1;points=[[0,0.75,0],[0,0.5,0],[0,0.25,0],[0.25,0,0],[0.5,0,0],[0.75,0,0],[1,0.25,0],[1,0.5,0],[1,0.75,0],[0.75,1,0],[0.5,1,0],[0.25,1,0]];labelBackgroundColor=none;rounded=1;html=1;whiteSpace=wrap;fontFamily=Garamond;fontSize=18;" parent="31" vertex="1">
          <mxGeometry width="165" height="76" as="geometry" />
        </mxCell>
        <mxCell id="34" value="&lt;div&gt;&lt;/div&gt;" style="verticalAlign=middle;align=center;overflow=width;vsdxID=233;fillColor=none;gradientColor=none;strokeWidth=2;spacingTop=-3;spacingBottom=-3;spacingLeft=-3;spacingRight=-3;points=[[0,0.75,0],[0,0.5,0],[0,0.25,0],[0.25,0,0],[0.5,0,0],[0.75,0,0],[1,0.25,0],[1,0.5,0],[1,0.75,0],[0.75,1,0],[0.5,1,0],[0.25,1,0]];labelBackgroundColor=none;rounded=0;html=1;strokeColor=none;whiteSpace=wrap;fontFamily=Garamond;fontSize=18;" parent="31" vertex="1">
          <mxGeometry x="83" y="56" width="16" height="16" as="geometry" />
        </mxCell>
        <mxCell id="37" value="&lt;div&gt;&lt;/div&gt;" style="verticalAlign=middle;align=center;overflow=width;vsdxID=241;fillColor=none;gradientColor=none;spacingTop=-1;spacingBottom=-1;spacingLeft=-1;spacingRight=-1;points=[[0,0.75,0],[0,0.5,0],[0,0.25,0],[0.25,0,0],[0.5,0,0],[0.75,0,0],[1,0.25,0],[1,0.5,0],[1,0.75,0],[0.75,1,0],[0.5,1,0],[0.25,1,0]];labelBackgroundColor=none;rounded=0;html=1;strokeColor=none;whiteSpace=wrap;fontFamily=Garamond;fontSize=18;" parent="31" vertex="1">
          <mxGeometry x="5" y="5" width="14" height="14" as="geometry" />
        </mxCell>
        <mxCell id="39" value="&lt;div&gt;&lt;font style=&quot;color: rgb(0, 0, 0); direction: ltr; letter-spacing: 0px; line-height: 120%; opacity: 1;&quot;&gt;Ask for initial description&lt;br&gt;&lt;/font&gt;&lt;/div&gt;" style="text;vsdxID=228;fillColor=none;gradientColor=none;spacingTop=-1;spacingBottom=-1;spacingLeft=-1;spacingRight=-1;points=[[0,0.75,0],[0,0.5,0],[0,0.25,0],[0.25,0,0],[0.5,0,0],[0.75,0,0],[1,0.25,0],[1,0.5,0],[1,0.75,0],[0.75,1,0],[0.5,1,0],[0.25,1,0]];labelBackgroundColor=none;rounded=1;strokeColor=none;html=1;whiteSpace=wrap;verticalAlign=middle;align=center;;html=1;fontFamily=Garamond;fontSize=18;" parent="31" vertex="1">
          <mxGeometry y="37.9" width="165.1" as="geometry" />
        </mxCell>
        <UserObject label="" BpmnName="Domain Correct?" tags="Flowchart" id="40">
          <mxCell style="vsdxID=252;fillColor=none;gradientColor=none;spacingTop=-1;spacingBottom=-1;spacingLeft=-1;spacingRight=-1;points=[[0.5,0,0],[1,0.5,0],[0.5,1,0],[0,0.5,0]];labelBackgroundColor=none;rounded=0;strokeColor=none;html=1;whiteSpace=wrap;fontFamily=Garamond;fontSize=18;" parent="1" vertex="1">
            <mxGeometry x="584" y="117" width="114" height="85" as="geometry" />
          </mxCell>
        </UserObject>
        <mxCell id="41" value="&lt;div&gt;&lt;/div&gt;" style="verticalAlign=top;align=center;overflow=width;vsdxID=253;fillColor=#FFFFFF;gradientColor=none;shape=stencil(nZBNDoUgDIRP0z3SeAKf3sNElEYEg/h3+wdpjIaFC3cz9OukDGC16HZWIMUSvBvVTl3QgD+QkqxWnkJUgDVg1TuvBu9W27Gf20QmNbktJRy8V4q0IsXJthDsG2YN2Qd7DS+4fGGz3Bfyc2Z2axT3J3syhjt6zvNS4hMXivUf);points=[[0.5,0,0],[1,0.5,0],[0.5,1,0],[0,0.5,0]];labelBackgroundColor=none;rounded=0;html=1;whiteSpace=wrap;fontFamily=Garamond;fontSize=18;" parent="40" vertex="1">
          <mxGeometry width="114" height="85" as="geometry" />
        </mxCell>
        <mxCell id="45" value="&lt;div&gt;&lt;font style=&quot;color: rgb(0, 0, 0); direction: ltr; letter-spacing: 0px; line-height: 120%; opacity: 1;&quot;&gt;Domain Correct?&lt;/font&gt;&lt;font style=&quot;color: rgb(0, 0, 0); direction: ltr; letter-spacing: 0px; line-height: 120%; opacity: 1;&quot;&gt;&lt;br&gt;&lt;/font&gt;&lt;/div&gt;" style="text;vsdxID=252;fillColor=none;gradientColor=none;spacingTop=-1;spacingBottom=-1;spacingLeft=-1;spacingRight=-1;points=[[0.5,0,0],[1,0.5,0],[0.5,1,0],[0,0.5,0]];labelBackgroundColor=none;rounded=0;strokeColor=none;html=1;whiteSpace=wrap;verticalAlign=middle;align=center;overflow=width;;html=1;fontFamily=Garamond;fontSize=18;" parent="40" vertex="1">
          <mxGeometry x="14.82" y="13.56" width="84.66" height="57.15" as="geometry" />
        </mxCell>
        <UserObject label="" BpmnName="Domain and Operation Extraction" tags="Flowchart" id="46">
          <mxCell style="vsdxID=267;fillColor=none;gradientColor=none;spacingTop=-1;spacingBottom=-1;spacingLeft=-1;spacingRight=-1;points=[[0,0.75,0],[0,0.5,0],[0,0.25,0],[0.25,0,0],[0.5,0,0],[0.75,0,0],[1,0.25,0],[1,0.5,0],[1,0.75,0],[0.75,1,0],[0.5,1,0],[0.25,1,0]];labelBackgroundColor=none;rounded=1;strokeColor=none;html=1;whiteSpace=wrap;fontFamily=Garamond;fontSize=18;" parent="1" vertex="1">
            <mxGeometry x="359" y="122" width="209" height="76" as="geometry" />
          </mxCell>
        </UserObject>
        <mxCell id="47" style="vsdxID=268;fillColor=#FFFFFF;gradientColor=none;shape=stencil(nZCxDsIwDES/xitKk6V7KT/AF0TUEIuQVGmgwNeT9kCqOjB0s++efdKRaQZneyathpzilUfpsiOzJ60lOE6Sy0SmJdOcY+JLivfQYe9tIbWaFe5wU020VjadjvJmaPWu0jV0HN7iYwp8wlawXt8HCvsBqJewQH/mJvgPuhFcxZdhrgRlifdodOmvKywS6jftBw==);spacingTop=-1;spacingBottom=-1;spacingLeft=-1;spacingRight=-1;points=[[0,0.75,0],[0,0.5,0],[0,0.25,0],[0.25,0,0],[0.5,0,0],[0.75,0,0],[1,0.25,0],[1,0.5,0],[1,0.75,0],[0.75,1,0],[0.5,1,0],[0.25,1,0]];labelBackgroundColor=none;rounded=1;html=1;whiteSpace=wrap;fontFamily=Garamond;fontSize=18;" parent="46" vertex="1">
          <mxGeometry width="209" height="76" as="geometry" />
        </mxCell>
        <mxCell id="49" value="&lt;div&gt;&lt;/div&gt;" style="verticalAlign=middle;align=center;overflow=width;vsdxID=272;fillColor=none;gradientColor=none;strokeWidth=2;spacingTop=-3;spacingBottom=-3;spacingLeft=-3;spacingRight=-3;points=[[0,0.75,0],[0,0.5,0],[0,0.25,0],[0.25,0,0],[0.5,0,0],[0.75,0,0],[1,0.25,0],[1,0.5,0],[1,0.75,0],[0.75,1,0],[0.5,1,0],[0.25,1,0]];labelBackgroundColor=none;rounded=0;html=1;strokeColor=none;whiteSpace=wrap;fontFamily=Garamond;fontSize=18;" parent="46" vertex="1">
          <mxGeometry x="105" y="56" width="16" height="16" as="geometry" />
        </mxCell>
        <mxCell id="52" value="&lt;div&gt;&lt;/div&gt;" style="verticalAlign=middle;align=center;overflow=width;vsdxID=280;fillColor=none;gradientColor=none;spacingTop=-1;spacingBottom=-1;spacingLeft=-1;spacingRight=-1;points=[[0,0.75,0],[0,0.5,0],[0,0.25,0],[0.25,0,0],[0.5,0,0],[0.75,0,0],[1,0.25,0],[1,0.5,0],[1,0.75,0],[0.75,1,0],[0.5,1,0],[0.25,1,0]];labelBackgroundColor=none;rounded=0;html=1;strokeColor=none;whiteSpace=wrap;fontFamily=Garamond;fontSize=18;" parent="46" vertex="1">
          <mxGeometry x="5" y="5" width="14" height="14" as="geometry" />
        </mxCell>
        <mxCell id="54" value="&lt;div&gt;&lt;font style=&quot;color: rgb(0, 0, 0); direction: ltr; letter-spacing: 0px; line-height: 120%; opacity: 1;&quot;&gt;Domain&lt;/font&gt;&lt;font style=&quot;color: rgb(0, 0, 0); direction: ltr; letter-spacing: 0px; line-height: 120%; opacity: 1;&quot;&gt; and Operation &lt;/font&gt;&lt;font style=&quot;color: rgb(0, 0, 0); direction: ltr; letter-spacing: 0px; line-height: 120%; opacity: 1;&quot;&gt;Extraction&lt;/font&gt;&lt;font style=&quot;color: rgb(0, 0, 0); direction: ltr; letter-spacing: 0px; line-height: 120%; opacity: 1;&quot;&gt;&lt;br&gt;&lt;/font&gt;&lt;/div&gt;" style="text;vsdxID=267;fillColor=none;gradientColor=none;spacingTop=-1;spacingBottom=-1;spacingLeft=-1;spacingRight=-1;points=[[0,0.75,0],[0,0.5,0],[0,0.25,0],[0.25,0,0],[0.5,0,0],[0.75,0,0],[1,0.25,0],[1,0.5,0],[1,0.75,0],[0.75,1,0],[0.5,1,0],[0.25,1,0]];labelBackgroundColor=none;rounded=1;strokeColor=none;html=1;whiteSpace=wrap;verticalAlign=middle;align=center;;html=1;fontFamily=Garamond;fontSize=18;" parent="46" vertex="1">
          <mxGeometry y="37.9" width="209.55" as="geometry" />
        </mxCell>
        <UserObject label="" BpmnName="    Ask for info about Domain" tags="Flowchart" id="55">
          <mxCell style="vsdxID=291;fillColor=none;gradientColor=none;spacingTop=-1;spacingBottom=-1;spacingLeft=-1;spacingRight=-1;points=[[0,0.75,0],[0,0.5,0],[0,0.25,0],[0.25,0,0],[0.5,0,0],[0.75,0,0],[1,0.25,0],[1,0.5,0],[1,0.75,0],[0.75,1,0],[0.5,1,0],[0.25,1,0]];labelBackgroundColor=none;rounded=1;strokeColor=none;html=1;whiteSpace=wrap;fontFamily=Garamond;fontSize=18;" parent="1" vertex="1">
            <mxGeometry x="711" y="163" width="165" height="76" as="geometry" />
          </mxCell>
        </UserObject>
        <mxCell id="56" style="vsdxID=292;fillColor=#FFFFFF;gradientColor=none;shape=stencil(nZCxDsIwDES/xitKk6V7KT/AF0TUEIuQVGmgwNeT9kCqOjB0s++efdKRaQZneyathpzilUfpsiOzJ60lOE6Sy0SmJdOcY+JLivfQYe9tIbWaFe5wU020VjadjvJmaPWu0jV0HN7iYwp8wlawXt8HCvsBqJewQH/mJvgPuhFcxZdhrgRlifdodOmvKywS6jftBw==);spacingTop=-1;spacingBottom=-1;spacingLeft=-1;spacingRight=-1;points=[[0,0.75,0],[0,0.5,0],[0,0.25,0],[0.25,0,0],[0.5,0,0],[0.75,0,0],[1,0.25,0],[1,0.5,0],[1,0.75,0],[0.75,1,0],[0.5,1,0],[0.25,1,0]];labelBackgroundColor=none;rounded=1;html=1;whiteSpace=wrap;fontFamily=Garamond;fontSize=18;" parent="55" vertex="1">
          <mxGeometry width="165" height="76" as="geometry" />
        </mxCell>
        <mxCell id="58" value="&lt;div&gt;&lt;/div&gt;" style="verticalAlign=middle;align=center;overflow=width;vsdxID=296;fillColor=none;gradientColor=none;strokeWidth=2;spacingTop=-3;spacingBottom=-3;spacingLeft=-3;spacingRight=-3;points=[[0,0.75,0],[0,0.5,0],[0,0.25,0],[0.25,0,0],[0.5,0,0],[0.75,0,0],[1,0.25,0],[1,0.5,0],[1,0.75,0],[0.75,1,0],[0.5,1,0],[0.25,1,0]];labelBackgroundColor=none;rounded=0;html=1;strokeColor=none;whiteSpace=wrap;fontFamily=Garamond;fontSize=18;" parent="55" vertex="1">
          <mxGeometry x="83" y="56" width="16" height="16" as="geometry" />
        </mxCell>
        <mxCell id="61" value="&lt;div&gt;&lt;/div&gt;" style="verticalAlign=middle;align=center;overflow=width;vsdxID=304;fillColor=none;gradientColor=none;spacingTop=-1;spacingBottom=-1;spacingLeft=-1;spacingRight=-1;points=[[0,0.75,0],[0,0.5,0],[0,0.25,0],[0.25,0,0],[0.5,0,0],[0.75,0,0],[1,0.25,0],[1,0.5,0],[1,0.75,0],[0.75,1,0],[0.5,1,0],[0.25,1,0]];labelBackgroundColor=none;rounded=0;html=1;strokeColor=none;whiteSpace=wrap;fontFamily=Garamond;fontSize=18;" parent="55" vertex="1">
          <mxGeometry x="5" y="5" width="14" height="14" as="geometry" />
        </mxCell>
        <mxCell id="63" value="&lt;div&gt;&lt;font style=&quot;color: rgb(0, 0, 0); direction: ltr; letter-spacing: 0px; line-height: 120%; opacity: 1;&quot;&gt;    Ask for info about Domain&lt;/font&gt;&lt;font style=&quot;color: rgb(0, 0, 0); direction: ltr; letter-spacing: 0px; line-height: 120%; opacity: 1;&quot;&gt;&lt;br&gt;&lt;/font&gt;&lt;/div&gt;" style="text;vsdxID=291;fillColor=none;gradientColor=none;spacingTop=-1;spacingBottom=-1;spacingLeft=-1;spacingRight=-1;points=[[0,0.75,0],[0,0.5,0],[0,0.25,0],[0.25,0,0],[0.5,0,0],[0.75,0,0],[1,0.25,0],[1,0.5,0],[1,0.75,0],[0.75,1,0],[0.5,1,0],[0.25,1,0]];labelBackgroundColor=none;rounded=1;strokeColor=none;html=1;whiteSpace=wrap;verticalAlign=middle;align=center;;html=1;fontFamily=Garamond;fontSize=18;" parent="55" vertex="1">
          <mxGeometry y="37.9" width="165.1" as="geometry" />
        </mxCell>
        <UserObject label="" BpmnName="Operation list empty?" tags="Flowchart" id="64">
          <mxCell style="vsdxID=315;fillColor=none;gradientColor=none;spacingTop=-1;spacingBottom=-1;spacingLeft=-1;spacingRight=-1;points=[[0.5,0,0],[1,0.5,0],[0.5,1,0],[0,0.5,0]];labelBackgroundColor=none;rounded=0;strokeColor=none;html=1;whiteSpace=wrap;fontFamily=Garamond;fontSize=18;" parent="1" vertex="1">
            <mxGeometry x="749" y="56" width="114" height="85" as="geometry" />
          </mxCell>
        </UserObject>
        <mxCell id="65" value="&lt;div&gt;&lt;/div&gt;" style="verticalAlign=top;align=center;overflow=width;vsdxID=316;fillColor=#FFFFFF;gradientColor=none;shape=stencil(nZBNDoUgDIRP0z3SeAKf3sNElEYEg/h3+wdpjIaFC3cz9OukDGC16HZWIMUSvBvVTl3QgD+QkqxWnkJUgDVg1TuvBu9W27Gf20QmNbktJRy8V4q0IsXJthDsG2YN2Qd7DS+4fGGz3Bfyc2Z2axT3J3syhjt6zvNS4hMXivUf);points=[[0.5,0,0],[1,0.5,0],[0.5,1,0],[0,0.5,0]];labelBackgroundColor=none;rounded=0;html=1;whiteSpace=wrap;fontFamily=Garamond;fontSize=18;" parent="64" vertex="1">
          <mxGeometry width="114" height="85" as="geometry" />
        </mxCell>
        <mxCell id="69" value="&lt;div&gt;&lt;font style=&quot;color: rgb(0, 0, 0); direction: ltr; letter-spacing: 0px; line-height: 120%; opacity: 1;&quot;&gt;Operation list empty?&lt;/font&gt;&lt;font style=&quot;color: rgb(0, 0, 0); direction: ltr; letter-spacing: 0px; line-height: 120%; opacity: 1;&quot;&gt;&lt;br&gt;&lt;/font&gt;&lt;/div&gt;" style="text;vsdxID=315;fillColor=none;gradientColor=none;spacingTop=-1;spacingBottom=-1;spacingLeft=-1;spacingRight=-1;points=[[0.5,0,0],[1,0.5,0],[0.5,1,0],[0,0.5,0]];labelBackgroundColor=none;rounded=0;strokeColor=none;html=1;whiteSpace=wrap;verticalAlign=middle;align=center;overflow=width;;html=1;fontFamily=Garamond;fontSize=18;" parent="64" vertex="1">
          <mxGeometry x="14.82" y="13.56" width="84.66" height="57.15" as="geometry" />
        </mxCell>
        <UserObject label="" BpmnName="     Ask for info about Operations" tags="Flowchart" id="70">
          <mxCell style="vsdxID=332;fillColor=none;gradientColor=none;spacingTop=-1;spacingBottom=-1;spacingLeft=-1;spacingRight=-1;points=[[0,0.75,0],[0,0.5,0],[0,0.25,0],[0.25,0,0],[0.5,0,0],[0.75,0,0],[1,0.25,0],[1,0.5,0],[1,0.75,0],[0.75,1,0],[0.5,1,0],[0.25,1,0]];labelBackgroundColor=none;rounded=1;strokeColor=none;html=1;whiteSpace=wrap;fontFamily=Garamond;fontSize=18;" parent="1" vertex="1">
            <mxGeometry x="920" y="163" width="165" height="76" as="geometry" />
          </mxCell>
        </UserObject>
        <mxCell id="71" style="vsdxID=333;fillColor=#FFFFFF;gradientColor=none;shape=stencil(nZCxDsIwDES/xitKk6V7KT/AF0TUEIuQVGmgwNeT9kCqOjB0s++efdKRaQZneyathpzilUfpsiOzJ60lOE6Sy0SmJdOcY+JLivfQYe9tIbWaFe5wU020VjadjvJmaPWu0jV0HN7iYwp8wlawXt8HCvsBqJewQH/mJvgPuhFcxZdhrgRlifdodOmvKywS6jftBw==);spacingTop=-1;spacingBottom=-1;spacingLeft=-1;spacingRight=-1;points=[[0,0.75,0],[0,0.5,0],[0,0.25,0],[0.25,0,0],[0.5,0,0],[0.75,0,0],[1,0.25,0],[1,0.5,0],[1,0.75,0],[0.75,1,0],[0.5,1,0],[0.25,1,0]];labelBackgroundColor=none;rounded=1;html=1;whiteSpace=wrap;fontFamily=Garamond;fontSize=18;" parent="70" vertex="1">
          <mxGeometry width="165" height="76" as="geometry" />
        </mxCell>
        <mxCell id="73" value="&lt;div&gt;&lt;/div&gt;" style="verticalAlign=middle;align=center;overflow=width;vsdxID=337;fillColor=none;gradientColor=none;strokeWidth=2;spacingTop=-3;spacingBottom=-3;spacingLeft=-3;spacingRight=-3;points=[[0,0.75,0],[0,0.5,0],[0,0.25,0],[0.25,0,0],[0.5,0,0],[0.75,0,0],[1,0.25,0],[1,0.5,0],[1,0.75,0],[0.75,1,0],[0.5,1,0],[0.25,1,0]];labelBackgroundColor=none;rounded=0;html=1;strokeColor=none;whiteSpace=wrap;fontFamily=Garamond;fontSize=18;" parent="70" vertex="1">
          <mxGeometry x="83" y="56" width="16" height="16" as="geometry" />
        </mxCell>
        <mxCell id="76" value="&lt;div&gt;&lt;/div&gt;" style="verticalAlign=middle;align=center;overflow=width;vsdxID=345;fillColor=none;gradientColor=none;spacingTop=-1;spacingBottom=-1;spacingLeft=-1;spacingRight=-1;points=[[0,0.75,0],[0,0.5,0],[0,0.25,0],[0.25,0,0],[0.5,0,0],[0.75,0,0],[1,0.25,0],[1,0.5,0],[1,0.75,0],[0.75,1,0],[0.5,1,0],[0.25,1,0]];labelBackgroundColor=none;rounded=0;html=1;strokeColor=none;whiteSpace=wrap;fontFamily=Garamond;fontSize=18;" parent="70" vertex="1">
          <mxGeometry x="5" y="5" width="14" height="14" as="geometry" />
        </mxCell>
        <mxCell id="78" value="&lt;div&gt;&lt;font style=&quot;color: rgb(0, 0, 0); direction: ltr; letter-spacing: 0px; line-height: 120%; opacity: 1;&quot;&gt;     Ask for info about Operations&lt;/font&gt;&lt;font style=&quot;color: rgb(0, 0, 0); direction: ltr; letter-spacing: 0px; line-height: 120%; opacity: 1;&quot;&gt;&lt;br&gt;&lt;/font&gt;&lt;/div&gt;" style="text;vsdxID=332;fillColor=none;gradientColor=none;spacingTop=-1;spacingBottom=-1;spacingLeft=-1;spacingRight=-1;points=[[0,0.75,0],[0,0.5,0],[0,0.25,0],[0.25,0,0],[0.5,0,0],[0.75,0,0],[1,0.25,0],[1,0.5,0],[1,0.75,0],[0.75,1,0],[0.5,1,0],[0.25,1,0]];labelBackgroundColor=none;rounded=1;strokeColor=none;html=1;whiteSpace=wrap;verticalAlign=middle;align=center;;html=1;fontFamily=Garamond;fontSize=18;" parent="70" vertex="1">
          <mxGeometry y="37.9" width="165.1" as="geometry" />
        </mxCell>
        <UserObject label="" BpmnName="Instanciate the Request Template" tags="Flowchart" id="79">
          <mxCell style="vsdxID=356;fillColor=none;gradientColor=none;spacingTop=-1;spacingBottom=-1;spacingLeft=-1;spacingRight=-1;points=[[0,0.75,0],[0,0.5,0],[0,0.25,0],[0.25,0,0],[0.5,0,0],[0.75,0,0],[1,0.25,0],[1,0.5,0],[1,0.75,0],[0.75,1,0],[0.5,1,0],[0.25,1,0]];labelBackgroundColor=none;rounded=1;strokeColor=none;html=1;whiteSpace=wrap;fontFamily=Garamond;fontSize=18;" parent="1" vertex="1">
            <mxGeometry x="930" y="61" width="146" height="76" as="geometry" />
          </mxCell>
        </UserObject>
        <mxCell id="80" style="vsdxID=357;fillColor=#FFFFFF;gradientColor=none;shape=stencil(nZCxDsIwDES/xitKk6V7KT/AF0TUEIuQVGmgwNeT9kCqOjB0s++efdKRaQZneyathpzilUfpsiOzJ60lOE6Sy0SmJdOcY+JLivfQYe9tIbWaFe5wU020VjadjvJmaPWu0jV0HN7iYwp8wlawXt8HCvsBqJewQH/mJvgPuhFcxZdhrgRlifdodOmvKywS6jftBw==);spacingTop=-1;spacingBottom=-1;spacingLeft=-1;spacingRight=-1;points=[[0,0.75,0],[0,0.5,0],[0,0.25,0],[0.25,0,0],[0.5,0,0],[0.75,0,0],[1,0.25,0],[1,0.5,0],[1,0.75,0],[0.75,1,0],[0.5,1,0],[0.25,1,0]];labelBackgroundColor=none;rounded=1;html=1;whiteSpace=wrap;fontFamily=Garamond;fontSize=18;" parent="79" vertex="1">
          <mxGeometry width="146" height="76" as="geometry" />
        </mxCell>
        <mxCell id="82" value="&lt;div&gt;&lt;/div&gt;" style="verticalAlign=middle;align=center;overflow=width;vsdxID=361;fillColor=none;gradientColor=none;strokeWidth=2;spacingTop=-3;spacingBottom=-3;spacingLeft=-3;spacingRight=-3;points=[[0,0.75,0],[0,0.5,0],[0,0.25,0],[0.25,0,0],[0.5,0,0],[0.75,0,0],[1,0.25,0],[1,0.5,0],[1,0.75,0],[0.75,1,0],[0.5,1,0],[0.25,1,0]];labelBackgroundColor=none;rounded=0;html=1;strokeColor=none;whiteSpace=wrap;fontFamily=Garamond;fontSize=18;" parent="79" vertex="1">
          <mxGeometry x="74" y="56" width="16" height="16" as="geometry" />
        </mxCell>
        <mxCell id="85" value="&lt;div&gt;&lt;/div&gt;" style="verticalAlign=middle;align=center;overflow=width;vsdxID=369;fillColor=none;gradientColor=none;spacingTop=-1;spacingBottom=-1;spacingLeft=-1;spacingRight=-1;points=[[0,0.75,0],[0,0.5,0],[0,0.25,0],[0.25,0,0],[0.5,0,0],[0.75,0,0],[1,0.25,0],[1,0.5,0],[1,0.75,0],[0.75,1,0],[0.5,1,0],[0.25,1,0]];labelBackgroundColor=none;rounded=0;html=1;strokeColor=none;whiteSpace=wrap;fontFamily=Garamond;fontSize=18;" parent="79" vertex="1">
          <mxGeometry x="5" y="5" width="14" height="14" as="geometry" />
        </mxCell>
        <mxCell id="87" value="&lt;div&gt;&lt;font style=&quot;color: rgb(0, 0, 0); direction: ltr; letter-spacing: 0px; line-height: 120%; opacity: 1;&quot;&gt;Instanciate the Request Template&lt;br&gt;&lt;/font&gt;&lt;/div&gt;" style="text;vsdxID=356;fillColor=none;gradientColor=none;spacingTop=-1;spacingBottom=-1;spacingLeft=-1;spacingRight=-1;points=[[0,0.75,0],[0,0.5,0],[0,0.25,0],[0.25,0,0],[0.5,0,0],[0.75,0,0],[1,0.25,0],[1,0.5,0],[1,0.75,0],[0.75,1,0],[0.5,1,0],[0.25,1,0]];labelBackgroundColor=none;rounded=1;strokeColor=none;html=1;whiteSpace=wrap;verticalAlign=middle;align=center;;html=1;fontFamily=Garamond;fontSize=18;" parent="79" vertex="1">
          <mxGeometry y="37.9" width="146.05" as="geometry" />
        </mxCell>
        <UserObject label="" BpmnName="   Type the Domain description" tags="Flowchart" id="88">
          <mxCell style="vsdxID=381;fillColor=none;gradientColor=none;spacingTop=-1;spacingBottom=-1;spacingLeft=-1;spacingRight=-1;points=[[0,0.75,0],[0,0.5,0],[0,0.25,0],[0.25,0,0],[0.5,0,0],[0.75,0,0],[1,0.25,0],[1,0.5,0],[1,0.75,0],[0.75,1,0],[0.5,1,0],[0.25,1,0]];labelBackgroundColor=none;rounded=1;strokeColor=none;html=1;whiteSpace=wrap;fontFamily=Garamond;fontSize=18;" parent="1" vertex="1">
            <mxGeometry x="533" y="268" width="165" height="76" as="geometry" />
          </mxCell>
        </UserObject>
        <mxCell id="89" style="vsdxID=382;fillColor=#FFFFFF;gradientColor=none;shape=stencil(nZCxDsIwDES/xitKk6V7KT/AF0TUEIuQVGmgwNeT9kCqOjB0s++efdKRaQZneyathpzilUfpsiOzJ60lOE6Sy0SmJdOcY+JLivfQYe9tIbWaFe5wU020VjadjvJmaPWu0jV0HN7iYwp8wlawXt8HCvsBqJewQH/mJvgPuhFcxZdhrgRlifdodOmvKywS6jftBw==);spacingTop=-1;spacingBottom=-1;spacingLeft=-1;spacingRight=-1;points=[[0,0.75,0],[0,0.5,0],[0,0.25,0],[0.25,0,0],[0.5,0,0],[0.75,0,0],[1,0.25,0],[1,0.5,0],[1,0.75,0],[0.75,1,0],[0.5,1,0],[0.25,1,0]];labelBackgroundColor=none;rounded=1;html=1;whiteSpace=wrap;fontFamily=Garamond;fontSize=18;" parent="88" vertex="1">
          <mxGeometry width="165" height="76" as="geometry" />
        </mxCell>
        <mxCell id="91" value="&lt;div&gt;&lt;/div&gt;" style="verticalAlign=middle;align=center;overflow=width;vsdxID=386;fillColor=none;gradientColor=none;strokeWidth=2;spacingTop=-3;spacingBottom=-3;spacingLeft=-3;spacingRight=-3;points=[[0,0.75,0],[0,0.5,0],[0,0.25,0],[0.25,0,0],[0.5,0,0],[0.75,0,0],[1,0.25,0],[1,0.5,0],[1,0.75,0],[0.75,1,0],[0.5,1,0],[0.25,1,0]];labelBackgroundColor=none;rounded=0;html=1;strokeColor=none;whiteSpace=wrap;fontFamily=Garamond;fontSize=18;" parent="88" vertex="1">
          <mxGeometry x="83" y="56" width="16" height="16" as="geometry" />
        </mxCell>
        <mxCell id="94" value="&lt;div&gt;&lt;/div&gt;" style="verticalAlign=middle;align=center;overflow=width;vsdxID=394;fillColor=none;gradientColor=none;spacingTop=-1;spacingBottom=-1;spacingLeft=-1;spacingRight=-1;points=[[0,0.75,0],[0,0.5,0],[0,0.25,0],[0.25,0,0],[0.5,0,0],[0.75,0,0],[1,0.25,0],[1,0.5,0],[1,0.75,0],[0.75,1,0],[0.5,1,0],[0.25,1,0]];labelBackgroundColor=none;rounded=0;html=1;strokeColor=none;whiteSpace=wrap;fontFamily=Garamond;fontSize=18;" parent="88" vertex="1">
          <mxGeometry x="5" y="5" width="14" height="14" as="geometry" />
        </mxCell>
        <mxCell id="96" value="&lt;div&gt;&lt;font style=&quot;color: rgb(0, 0, 0); direction: ltr; letter-spacing: 0px; line-height: 120%; opacity: 1;&quot;&gt;   &lt;/font&gt;&lt;font style=&quot;color: rgb(0, 0, 0); direction: ltr; letter-spacing: 0px; line-height: 120%; opacity: 1;&quot;&gt;Type the Domain description&lt;br&gt;&lt;/font&gt;&lt;/div&gt;" style="text;vsdxID=381;fillColor=none;gradientColor=none;spacingTop=-1;spacingBottom=-1;spacingLeft=-1;spacingRight=-1;points=[[0,0.75,0],[0,0.5,0],[0,0.25,0],[0.25,0,0],[0.5,0,0],[0.75,0,0],[1,0.25,0],[1,0.5,0],[1,0.75,0],[0.75,1,0],[0.5,1,0],[0.25,1,0]];labelBackgroundColor=none;rounded=1;strokeColor=none;html=1;whiteSpace=wrap;verticalAlign=middle;align=center;;html=1;fontFamily=Garamond;fontSize=18;" parent="88" vertex="1">
          <mxGeometry y="37.9" width="165.1" as="geometry" />
        </mxCell>
        <UserObject label="" BpmnName="     Type the Operation description " tags="Flowchart" id="97">
          <mxCell style="vsdxID=404;fillColor=none;gradientColor=none;spacingTop=-1;spacingBottom=-1;spacingLeft=-1;spacingRight=-1;points=[[0,0.75,0],[0,0.5,0],[0,0.25,0],[0.25,0,0],[0.5,0,0],[0.75,0,0],[1,0.25,0],[1,0.5,0],[1,0.75,0],[0.75,1,0],[0.5,1,0],[0.25,1,0]];labelBackgroundColor=none;rounded=1;strokeColor=none;html=1;whiteSpace=wrap;fontFamily=Garamond;fontSize=18;" parent="1" vertex="1">
            <mxGeometry x="920" y="268" width="165" height="76" as="geometry" />
          </mxCell>
        </UserObject>
        <mxCell id="98" style="vsdxID=405;fillColor=#FFFFFF;gradientColor=none;shape=stencil(nZCxDsIwDES/xitKk6V7KT/AF0TUEIuQVGmgwNeT9kCqOjB0s++efdKRaQZneyathpzilUfpsiOzJ60lOE6Sy0SmJdOcY+JLivfQYe9tIbWaFe5wU020VjadjvJmaPWu0jV0HN7iYwp8wlawXt8HCvsBqJewQH/mJvgPuhFcxZdhrgRlifdodOmvKywS6jftBw==);spacingTop=-1;spacingBottom=-1;spacingLeft=-1;spacingRight=-1;points=[[0,0.75,0],[0,0.5,0],[0,0.25,0],[0.25,0,0],[0.5,0,0],[0.75,0,0],[1,0.25,0],[1,0.5,0],[1,0.75,0],[0.75,1,0],[0.5,1,0],[0.25,1,0]];labelBackgroundColor=none;rounded=1;html=1;whiteSpace=wrap;fontFamily=Garamond;fontSize=18;" parent="97" vertex="1">
          <mxGeometry width="165" height="76" as="geometry" />
        </mxCell>
        <mxCell id="100" value="&lt;div&gt;&lt;/div&gt;" style="verticalAlign=middle;align=center;overflow=width;vsdxID=409;fillColor=none;gradientColor=none;strokeWidth=2;spacingTop=-3;spacingBottom=-3;spacingLeft=-3;spacingRight=-3;points=[[0,0.75,0],[0,0.5,0],[0,0.25,0],[0.25,0,0],[0.5,0,0],[0.75,0,0],[1,0.25,0],[1,0.5,0],[1,0.75,0],[0.75,1,0],[0.5,1,0],[0.25,1,0]];labelBackgroundColor=none;rounded=0;html=1;strokeColor=none;whiteSpace=wrap;fontFamily=Garamond;fontSize=18;" parent="97" vertex="1">
          <mxGeometry x="83" y="56" width="16" height="16" as="geometry" />
        </mxCell>
        <mxCell id="103" value="&lt;div&gt;&lt;/div&gt;" style="verticalAlign=middle;align=center;overflow=width;vsdxID=417;fillColor=none;gradientColor=none;spacingTop=-1;spacingBottom=-1;spacingLeft=-1;spacingRight=-1;points=[[0,0.75,0],[0,0.5,0],[0,0.25,0],[0.25,0,0],[0.5,0,0],[0.75,0,0],[1,0.25,0],[1,0.5,0],[1,0.75,0],[0.75,1,0],[0.5,1,0],[0.25,1,0]];labelBackgroundColor=none;rounded=0;html=1;strokeColor=none;whiteSpace=wrap;fontFamily=Garamond;fontSize=18;" parent="97" vertex="1">
          <mxGeometry x="5" y="5" width="14" height="14" as="geometry" />
        </mxCell>
        <mxCell id="105" value="&lt;div&gt;&lt;font style=&quot;color: rgb(0, 0, 0); direction: ltr; letter-spacing: 0px; line-height: 120%; opacity: 1;&quot;&gt;     Type the Operation description &lt;br&gt;&lt;/font&gt;&lt;/div&gt;" style="text;vsdxID=404;fillColor=none;gradientColor=none;spacingTop=-1;spacingBottom=-1;spacingLeft=-1;spacingRight=-1;points=[[0,0.75,0],[0,0.5,0],[0,0.25,0],[0.25,0,0],[0.5,0,0],[0.75,0,0],[1,0.25,0],[1,0.5,0],[1,0.75,0],[0.75,1,0],[0.5,1,0],[0.25,1,0]];labelBackgroundColor=none;rounded=1;strokeColor=none;html=1;whiteSpace=wrap;verticalAlign=middle;align=center;;html=1;fontFamily=Garamond;fontSize=18;" parent="97" vertex="1">
          <mxGeometry y="37.9" width="165.1" as="geometry" />
        </mxCell>
        <UserObject label="" tags="Flowchart" id="106">
          <mxCell style="vsdxID=427;fillColor=none;gradientColor=none;strokeColor=none;spacingTop=-1;spacingBottom=-1;spacingLeft=-1;spacingRight=-1;points=[[0.5,0.5,0],[0.5,0,0],[0,0.5,0],[0.5,1,0],[1,0.5,0]];labelBackgroundColor=none;rounded=0;html=1;whiteSpace=wrap;fontFamily=Garamond;fontSize=18;" parent="1" vertex="1">
            <mxGeometry x="1130" y="68" width="31" height="31" as="geometry" />
          </mxCell>
        </UserObject>
        <mxCell id="107" style="vsdxID=428;fillColor=#000000;gradientColor=none;shape=stencil(vVHLDsIgEPwajiQI6RfU+h8bu22JCGRB2/69kG1iazx58DazM/vIjjBtmiCi0CplCjecbZ8nYc5Ca+snJJsLEqYTph0C4Ujh4XvmEaqzont41gkL96naodXKrGF6YSfQtUi0OXXDVlqPfJNP6usotUhYbJIUMmQb/GGrAxpRljVycDBuc1hKM2LclX8/7H9nFfB+82Cd45T2+mcspcSRmu4F);spacingTop=-1;spacingBottom=-1;spacingLeft=-1;spacingRight=-1;points=[[0.5,0.5,0],[0.5,0,0],[0,0.5,0],[0.5,1,0],[1,0.5,0]];labelBackgroundColor=none;rounded=0;html=1;whiteSpace=wrap;fontFamily=Garamond;fontSize=18;" parent="106" vertex="1">
          <mxGeometry width="31" height="31" as="geometry" />
        </mxCell>
        <mxCell id="108" style="vsdxID=431;fillColor=#FFFFFF;gradientColor=none;shape=stencil(vVHLDsIgEPwajiQI6RfU+h8bu22JCGRB2/69kG1iazx58DazM/vIjjBtmiCi0CplCjecbZ8nYc5Ca+snJJsLEqYTph0C4Ujh4XvmEaqzont41gkL96naodXKrGF6YSfQtUi0OXXDVlqPfJNP6usotUhYbJIUMmQb/GGrAxpRljVycDBuc1hKM2LclX8/7H9nFfB+82Cd45T2+mcspcSRmu4F);spacingTop=-1;spacingBottom=-1;spacingLeft=-1;spacingRight=-1;points=[[0.5,0.5,0],[0.5,0,0],[0,0.5,0],[0.5,1,0],[1,0.5,0]];labelBackgroundColor=none;rounded=0;html=1;whiteSpace=wrap;fontFamily=Garamond;fontSize=18;" parent="106" vertex="1">
          <mxGeometry x="3" y="3" width="25" height="25" as="geometry" />
        </mxCell>
        <mxCell id="109" value="&lt;div&gt;&lt;/div&gt;" style="verticalAlign=middle;align=center;overflow=width;vsdxID=432;fillColor=none;gradientColor=none;strokeColor=none;spacingTop=-1;spacingBottom=-1;spacingLeft=-1;spacingRight=-1;points=[[0.5,0.5,0],[0.5,0,0],[0,0.5,0],[0.5,1,0],[1,0.5,0]];labelBackgroundColor=#FFFFFF;rounded=0;html=1;whiteSpace=wrap;fontFamily=Garamond;fontSize=18;" parent="106" vertex="1">
          <mxGeometry x="7" y="9" width="17" height="12" as="geometry" />
        </mxCell>
        <mxCell id="110" value="&lt;div&gt;&lt;/div&gt;" style="verticalAlign=middle;align=center;overflow=width;vsdxID=433;fillColor=none;gradientColor=none;strokeColor=none;spacingTop=-1;spacingBottom=-1;spacingLeft=-1;spacingRight=-1;flipH=1;points=[[0.5,0.5,0],[0.5,0,0],[0,0.5,0],[0.5,1,0],[1,0.5,0]];labelBackgroundColor=none;rounded=0;html=1;whiteSpace=wrap;fontFamily=Garamond;fontSize=18;" parent="106" vertex="1">
          <mxGeometry x="7" y="9" width="18" height="12" as="geometry" />
        </mxCell>
        <mxCell id="111" value="&lt;div&gt;&lt;/div&gt;" style="verticalAlign=middle;align=center;overflow=width;vsdxID=437;fillColor=none;gradientColor=none;strokeColor=none;spacingTop=-1;spacingBottom=-1;spacingLeft=-1;spacingRight=-1;points=[[0.5,0.5,0],[0.5,0,0],[0,0.5,0],[0.5,1,0],[1,0.5,0]];labelBackgroundColor=#FFFFFF;rounded=0;html=1;whiteSpace=wrap;fontFamily=Garamond;fontSize=18;" parent="106" vertex="1">
          <mxGeometry x="7" y="9" width="17" height="12" as="geometry" />
        </mxCell>
        <mxCell id="112" value="&lt;div&gt;&lt;/div&gt;" style="text;vsdxID=427;fillColor=none;gradientColor=none;strokeColor=none;spacingTop=-1;spacingBottom=-1;spacingLeft=-1;spacingRight=-1;points=[[0.5,0.5,0],[0.5,0,0],[0,0.5,0],[0.5,1,0],[1,0.5,0]];labelBackgroundColor=none;rounded=0;html=1;whiteSpace=wrap;verticalAlign=middle;align=center;overflow=width;;html=1;fontFamily=Garamond;fontSize=18;" parent="106" vertex="1">
          <mxGeometry x="13.05" y="31" width="5.64" height="25.96" as="geometry" />
        </mxCell>
        <UserObject label="" BpmnName="Operation Extraction" tags="Flowchart" id="113">
          <mxCell style="vsdxID=448;fillColor=none;gradientColor=none;spacingTop=-1;spacingBottom=-1;spacingLeft=-1;spacingRight=-1;points=[[0,0.75,0],[0,0.5,0],[0,0.25,0],[0.25,0,0],[0.5,0,0],[0.75,0,0],[1,0.25,0],[1,0.5,0],[1,0.75,0],[0.75,1,0],[0.5,1,0],[0.25,1,0]];labelBackgroundColor=none;rounded=1;strokeColor=none;html=1;whiteSpace=wrap;fontFamily=Garamond;fontSize=18;" parent="1" vertex="1">
            <mxGeometry x="1111" y="163" width="165" height="76" as="geometry" />
          </mxCell>
        </UserObject>
        <mxCell id="114" style="vsdxID=449;fillColor=#FFFFFF;gradientColor=none;shape=stencil(nZCxDsIwDES/xitKk6V7KT/AF0TUEIuQVGmgwNeT9kCqOjB0s++efdKRaQZneyathpzilUfpsiOzJ60lOE6Sy0SmJdOcY+JLivfQYe9tIbWaFe5wU020VjadjvJmaPWu0jV0HN7iYwp8wlawXt8HCvsBqJewQH/mJvgPuhFcxZdhrgRlifdodOmvKywS6jftBw==);spacingTop=-1;spacingBottom=-1;spacingLeft=-1;spacingRight=-1;points=[[0,0.75,0],[0,0.5,0],[0,0.25,0],[0.25,0,0],[0.5,0,0],[0.75,0,0],[1,0.25,0],[1,0.5,0],[1,0.75,0],[0.75,1,0],[0.5,1,0],[0.25,1,0]];labelBackgroundColor=none;rounded=1;html=1;whiteSpace=wrap;fontFamily=Garamond;fontSize=18;" parent="113" vertex="1">
          <mxGeometry width="165" height="76" as="geometry" />
        </mxCell>
        <mxCell id="116" value="&lt;div&gt;&lt;/div&gt;" style="verticalAlign=middle;align=center;overflow=width;vsdxID=453;fillColor=none;gradientColor=none;strokeWidth=2;spacingTop=-3;spacingBottom=-3;spacingLeft=-3;spacingRight=-3;points=[[0,0.75,0],[0,0.5,0],[0,0.25,0],[0.25,0,0],[0.5,0,0],[0.75,0,0],[1,0.25,0],[1,0.5,0],[1,0.75,0],[0.75,1,0],[0.5,1,0],[0.25,1,0]];labelBackgroundColor=none;rounded=0;html=1;strokeColor=none;whiteSpace=wrap;fontFamily=Garamond;fontSize=18;" parent="113" vertex="1">
          <mxGeometry x="83" y="56" width="16" height="16" as="geometry" />
        </mxCell>
        <mxCell id="119" value="&lt;div&gt;&lt;/div&gt;" style="verticalAlign=middle;align=center;overflow=width;vsdxID=461;fillColor=none;gradientColor=none;spacingTop=-1;spacingBottom=-1;spacingLeft=-1;spacingRight=-1;points=[[0,0.75,0],[0,0.5,0],[0,0.25,0],[0.25,0,0],[0.5,0,0],[0.75,0,0],[1,0.25,0],[1,0.5,0],[1,0.75,0],[0.75,1,0],[0.5,1,0],[0.25,1,0]];labelBackgroundColor=none;rounded=0;html=1;strokeColor=none;whiteSpace=wrap;fontFamily=Garamond;fontSize=18;" parent="113" vertex="1">
          <mxGeometry x="5" y="5" width="14" height="14" as="geometry" />
        </mxCell>
        <mxCell id="121" value="&lt;div&gt;&lt;font style=&quot;color: rgb(0, 0, 0); direction: ltr; letter-spacing: 0px; line-height: 120%; opacity: 1;&quot;&gt;Operation &lt;/font&gt;&lt;font style=&quot;color: rgb(0, 0, 0); direction: ltr; letter-spacing: 0px; line-height: 120%; opacity: 1;&quot;&gt;Extraction&lt;/font&gt;&lt;font style=&quot;color: rgb(0, 0, 0); direction: ltr; letter-spacing: 0px; line-height: 120%; opacity: 1;&quot;&gt;&lt;br&gt;&lt;/font&gt;&lt;/div&gt;" style="text;vsdxID=448;fillColor=none;gradientColor=none;spacingTop=-1;spacingBottom=-1;spacingLeft=-1;spacingRight=-1;points=[[0,0.75,0],[0,0.5,0],[0,0.25,0],[0.25,0,0],[0.5,0,0],[0.75,0,0],[1,0.25,0],[1,0.5,0],[1,0.75,0],[0.75,1,0],[0.5,1,0],[0.25,1,0]];labelBackgroundColor=none;rounded=1;strokeColor=none;html=1;whiteSpace=wrap;verticalAlign=middle;align=center;;html=1;fontFamily=Garamond;fontSize=18;" parent="113" vertex="1">
          <mxGeometry y="37.9" width="165.1" as="geometry" />
        </mxCell>
        <UserObject label="&lt;div&gt;&lt;/div&gt;" tags="Background" id="122">
          <mxCell style="verticalAlign=middle;align=left;overflow=width;vsdxID=503;fillColor=none;gradientColor=none;shape=stencil(vZXBdoMgEEW/xqVzkAEG12n6H57GJJ5azUHbpH9fLMZ2MNpNmh0Oz8cVHmOCm+5YnMpEiq537Wt5rnb9McGnRMqqOZau6v0owW2Cm33ryoNr35tdeD4Vg3IYvbUfg8MlvGcJ8mx4S4rPUMmE+H5+DvK6an7JMw24pi7ci59zoxoJ1GjuRj0qoNFhFEkJ0jBPK0CpUZMWl6pLXdsXfdU2YT6sKOrCHcrUr5ju6+LAprpzWZ5m5ZuMFkFEjEQgiDFmImZUBuhhjCYHspzRqKl0YbbXc8nvzZct80kCIzmf1GAU30MJPGji//B4aK3fq1tLL2UWaZ5Z9ik+IKTj7dbmYZGVYDGKrIGcIdo8RtQ4ZfghibV6lthrabpVPLNW3Jvwj8zOI8tb03Jz/BdAP/hp0/uqrkOXn+aXenh09aUFTcu3weh1deTN1cpHz6x423U190bOrQkytexNuK6OvDk3ZaBwpUOIdTU7mehU/CD+2fpS+FHj9gs=);strokeColor=#595959;spacingTop=-1;spacingBottom=-1;spacingLeft=-1;spacingRight=-1;points=[[0.5,0.5,0]];labelBackgroundColor=none;rounded=0;html=1;whiteSpace=wrap;fontFamily=Garamond;fontSize=18;" parent="1" vertex="1">
            <mxGeometry x="190" y="128" width="18" height="20" as="geometry" />
          </mxCell>
        </UserObject>
        <UserObject label="&lt;div&gt;&lt;/div&gt;" tags="Background" id="123">
          <mxCell style="verticalAlign=middle;align=left;overflow=width;vsdxID=504;fillColor=none;gradientColor=none;shape=stencil(vZXBdoMgEEW/xqVzkAEG12n6H57GJJ5azUHbpH9fLMZ2MNpNmh0Oz8cVHmOCm+5YnMpEiq537Wt5rnb9McGnRMqqOZau6v0owW2Cm33ryoNr35tdeD4Vg3IYvbUfg8MlvGcJ8mx4S4rPUMmE+H5+DvK6an7JMw24pi7ci59zoxoJ1GjuRj0qoNFhFEkJ0jBPK0CpUZMWl6pLXdsXfdU2YT6sKOrCHcrUr5ju6+LAprpzWZ5m5ZuMFkFEjEQgiDFmImZUBuhhjCYHspzRqKl0YbbXc8nvzZct80kCIzmf1GAU30MJPGji//B4aK3fq1tLL2UWaZ5Z9ik+IKTj7dbmYZGVYDGKrIGcIdo8RtQ4ZfghibV6lthrabpVPLNW3Jvwj8zOI8tb03Jz/BdAP/hp0/uqrkOXn+aXenh09aUFTcu3weh1deTN1cpHz6x423U190bOrQkytexNuK6OvDk3ZaBwpUOIdTU7mehU/CD+2fpS+FHj9gs=);strokeColor=#595959;spacingTop=-1;spacingBottom=-1;spacingLeft=-1;spacingRight=-1;points=[[0.5,0.5,0]];labelBackgroundColor=none;rounded=0;html=1;whiteSpace=wrap;fontFamily=Garamond;fontSize=18;" parent="1" vertex="1">
            <mxGeometry x="717" y="167" width="18" height="20" as="geometry" />
          </mxCell>
        </UserObject>
        <UserObject label="&lt;div&gt;&lt;/div&gt;" tags="Background" id="124">
          <mxCell style="verticalAlign=middle;align=left;overflow=width;vsdxID=505;fillColor=none;gradientColor=none;shape=stencil(vZXBdoMgEEW/xqVzkAEG12n6H57GJJ5azUHbpH9fLMZ2MNpNmh0Oz8cVHmOCm+5YnMpEiq537Wt5rnb9McGnRMqqOZau6v0owW2Cm33ryoNr35tdeD4Vg3IYvbUfg8MlvGcJ8mx4S4rPUMmE+H5+DvK6an7JMw24pi7ci59zoxoJ1GjuRj0qoNFhFEkJ0jBPK0CpUZMWl6pLXdsXfdU2YT6sKOrCHcrUr5ju6+LAprpzWZ5m5ZuMFkFEjEQgiDFmImZUBuhhjCYHspzRqKl0YbbXc8nvzZct80kCIzmf1GAU30MJPGji//B4aK3fq1tLL2UWaZ5Z9ik+IKTj7dbmYZGVYDGKrIGcIdo8RtQ4ZfghibV6lthrabpVPLNW3Jvwj8zOI8tb03Jz/BdAP/hp0/uqrkOXn+aXenh09aUFTcu3weh1deTN1cpHz6x423U190bOrQkytexNuK6OvDk3ZaBwpUOIdTU7mehU/CD+2fpS+FHj9gs=);strokeColor=#595959;spacingTop=-1;spacingBottom=-1;spacingLeft=-1;spacingRight=-1;points=[[0.5,0.5,0]];labelBackgroundColor=none;rounded=0;html=1;whiteSpace=wrap;fontFamily=Garamond;fontSize=18;" parent="1" vertex="1">
            <mxGeometry x="927" y="167" width="18" height="20" as="geometry" />
          </mxCell>
        </UserObject>
        <UserObject label="" tags="Background" id="125">
          <mxCell style="vsdxID=508;fillColor=#595959;gradientColor=none;shape=stencil(lVvZkt3GDf2aeUxX78tjynH+wxXLkSqK5BrLifT3OSAvewFAdmWeZjiNSwAN4GC7b+GnPz7+8vuHN2//+Pb+9V8f/vvp128f38Lf3rz/9OXjh/dP3/DbW/j5Lfz029f3D/98//rnl1/Pv3//hU7Sb//++h/6hO8nXXOmeKLy9sf5JHtT0vHk7yfBP/58PynceaA2U2oMJdnzx73IX//OzrRA/z4ff/cvqmBSHY9/vB6nZoKrJbbrJ77IwkT2IgmDxA8G7V/B4+dPXyahQNTaIlSKxi1CMYIILhaC2EwNDwTBlLISOJOe3lBMTQtBaMY/qnmicJ3EtVyFaptpLmXPVBuqCZFOv+7JMtXi6vsLXo9CWYQ4VMv5atZEepnVrz9A03n+fxbM1uoErzC6LkC/+2piWxn0uPu6YbBmkyZDu/iyxhW8OHJDu/jC/8Nkh00wWCcddxZBFZkOcfLZPEs2LS+24Ot1FTfGUJKJ3lUulMcnTY8vWQqcJggd+2ScnS7GhlWW4i4fGeoOxudHWXIxYXU1b014cIRcYawLgUubgHOQeCb6oOpiZ5iWlXI7CiHTxbfC5LYmM7kdnNltzAySQ2X1Lgw6WMb0X+EHOZnKg2GD4U7uHXpA5m5Q4WM79pzJtgk3AFsBRjCU4Va2EnTtFTfpysymEo/xRplEH5gy82LcihElxOs1OIImTBJK8ZIzcY55rtM5MoG4evElXaymNCsiJVFJ345Z+AMOCrtYRQEMxBVPXXmEHoIB5g8IIE+iHxRCcARQBRqAAV6CLowgthkZWCQADLA7rDIOCLZwiUHw1Uyec4X+phFWU1QuxJ6+JYL1gAHHsgK4bG47Fl8YwHUXjc1aDnIxGVbuEOFKlvYSmM7oWHk0FhKDAUG4oOHm8j2uJs5RPKyyIMhHaQZ4muOMboVJhFiW2nSAqRtcFSZcMzE8C+eMXZEBFuLa260nwLnimlMFJKfuSRsHiYRFoluCXFnV4UjLWg7ju50UO/8w/4CtKYlJ2SEGQYL0ENLKFKi/DyzIAiCQXCUnAKKOCDIcuPEcROFGU109M4qbAIpgFgXARoKaIVjXEp1d+aKTO7aWNzj9DSNutya1FK/MerAyZVyhH6rbC2Off2EPZThZMFPO9GrlJXljk6obx3RDJ3ep7fEOCepEOsHafFlNVlx55nO+LGbSdPAZ7JCDMRcH/PvFxYUE8coOB/fNWGH+FJOVq8VZ76tQZx18XEkTMrgdHDQ1hcjCERU+cp6sdAoLDAIoI936IUpJeaWZKgJp8cCUKjhxMiRM58I4x1lhATvy1AUVgZ0QTEGjtBQaV7GChFUDoYJPY3osHNgRfhjjKH3ysxlSEsEYr2ZBUXbe8voL5bx9LEGIRJrKIBtC4saLrG9rUlN7qvtYGEDRa3cmA4FdVthpGvYDX1KawYxl9Kjnl+xn5TDkUa6NvkHaclhMVSJnZe57BWxh1RVXqkBKFGZNBx+NI6LOWmMUbs0/ZhWoEvyStMY3fu2JSQBIqFm2YHBSQ0bUO4nBEU6G52QRobXnvF329mDmGUl0XAnK9eSu0iYSKw0LdCJCI8I6xdDb0uabalgeoan9xCUW/CCbbVO2y2psmG6yU9rKGETdqRR71C1j3BWIze2q7vED0T1q2gI2VNkABTslSiQpSBxTkwrLvb3RAyFOPjdjEK/rhUCvJ4j6TxdeqMEzFYJMwSXONV1vL+Gpk4LQR8mqCBxkzwRxSx2gCdJG1/elj3I9uWvgurWKxuW48CT6QSLAn6iU5nVGfSQsCWZjxcXVngENeQEeG1OinvrcomqMLUiv9PkaNXNkw+uAesbW3OcfPll47GTDActDToqb+vQgkd1XopsLLhuFJE7mzul1GbyFFgYRa76ChFelgkMkNVYmLaDMIoNuiBWKghNljnPDgDPWDM+l25Vb3Zk82Op+0p3APjaCDhKeexGR8FhCScVj09wc6gaMT2XFPhy+brvuyAokNygQJDOoniUnTrIReQBMSydNZQPyR258haYassKmx/JuKfR4mVBTA55DhNt3YQ8yYWsHpRJVqzLFoetQMkecDkXw03aACrLi75vWsJNalHlCNUqTrgHT5yYLY7CK6v8geHQC5DiZNUOtfXKBg0D0HOF+888qDEKRkqDTVGvue6zCgCaySEOJzu72QeaVFDhx/Sa92KWjMjOgUaZkZQcwSFCb7PbQME6570ijRy1xqlpOngQ3ccMMcnItBIMyKD3sCMfwMnrR6SIdFaf5NIdOblmiq5KeCrPwilmMusVlBQd+DPgocfIRxil1o5mHEMGjh6CwX0tXgIB/rtGRJCul2EEnEo5exkLnE/Ba65nyEZ1FqufT1Xfrmrfbfh+IrKL4eo0oBF9NzjNwOChFx3FYMLSdH3vkRQLI6llpyHaMUmFQyqtYpuuz6xlYRQom+kNk55wdolP6ocegdLpUVlWDzCnY5qph1Shy+e0wxRVTBFeykVf0qqfM4ahjhqx5lEb26hB28QbggX2scFFmB5tzsyXg9enDXxwr7o9PkO1IGPJcJ/GJASr6KtuSRMWXV8K+6iWy2TV5NUCfIV0DVFVBaTqstHvt2JAZnO1t0S7uN/jxSleHGBL9W72vQ0e5onaNHZpfLHdPHf3HuycKBXYOOqV7bs8rvbvymLVZDGmINYGBdmVXlIDMihANQlYmnadGUA58TSU6QKgIhFY0X45zj+qFG6yZmHesAhcVAEBdNrIPMm37YgwpmoLu1FlOQVnXGTGLGQwo2nagU1/13P30tKhz54tZVFdKjk7j1WVpgi1FEJkX3OadURC6KG1exLDFCvhmCfCryQT3+DDZYZiwmycj4Hpbbh1kc6hikECfsayLMIWCXlnYoYHQPK4ugleejbu+dvJ/ZxogtfMej1Anhcq50OGtahPokm5XFWSkrbtWLzLDvPbx7GYQc1DIyGz5YsNrcXLOrXnOehasd6NvEPBVAFop2mV5kVo52i7Scs/MOEAUlNBAZEoVci2FLnztAkKsy6hqbK3UpqxL9HqNdj3nbpbQYVXlGhVckjp0O/slMsnqQTm/jC90IVWce2icV6JfxkNZMMsHQK4XLg/MpnOjRCg2HBjBrWs01qwMXZZx1PtinSP79uROZWDF5YDPTfFxvkObW2CDhQhqcymtJHeMTaboyBcPo+FmUOXIXWnhVK+GMe9mo2Sqpab9DBosmwF58LMd8OXQKAazB8mO2SmlH6gWS31QZsObRDrgz/h2M6VEOcrnqFT87bg7yAS8vqYbQhOj9G0S/21Viukxo+QGS6XyLmbSeC/KyezMp5bL9N61U8dfyMeUEvA4zFjEQa5AnoGvxVe0m+HAIBiw9TwWoB0yUe4TaGkyWLjbKkPsVvu4z+4lchJgLWFTDiy8MvBlkDWzxlx9ANbzqr2SAMaCcDOHbMlbUlir61hysMZn0ey7D3esJckZgDEonXaSQytN/eTp81CHl4Lr0EkZVBEksPGfXZIsZXgbeZAHZBWlDszpBFCmzfLaEVi5p6E4S0NiXxZ8QMt1ZNyX8VAkNGU3Y9yoDdqewtgWLMruWfSm38S15dFkOSg6J+BRQXS4mJUdZHCuDJxw4ZFrjLqgjBtaItvlF3htETtT5x4vb66Hs4XLh6RpKVfn5IIhCTMlzfw8SzCCXZxbnVvYpWLMqyj4gNoe6iaa3c5ZOs/qQrgB2b5ewAxgHa/rWE7f0bnfFYgZ2pdrkQUhQRpClYYAkRpznZwuS31wnapgeK7LWvlkClmZ/dAcX1kqpIDJLJM2PnYMxbUbNi/0KeoJ9fiy0u0IIedzLnG3ntXziHmsv83Og19mJ1PvU10V68xatjfNFuNp3qX4FJFx9GvblYjbl40I4JTAE14bQ8wfkKs22QY9viLHPCHuv/oTvbr4Eyhjkin2NFVLivXR5niQSDLFlKFGkTHg9/HNzt8+ff58fjG0xx38wr8Jikfnt0jDz/8D);strokeColor=none;spacingTop=-1;spacingBottom=-1;spacingLeft=-1;spacingRight=-1;points=[[0.5,0.5,0]];labelBackgroundColor=none;rounded=0;html=1;whiteSpace=wrap;fontFamily=Garamond;fontSize=18;" parent="1" vertex="1">
            <mxGeometry x="362" y="129" width="18" height="18" as="geometry" />
          </mxCell>
        </UserObject>
        <UserObject label="" tags="Background" id="126">
          <mxCell style="vsdxID=509;fillColor=#595959;gradientColor=none;shape=stencil(lVvZkt3GDf2aeUxX78tjynH+wxXLkSqK5BrLifT3OSAvewFAdmWeZjiNSwAN4GC7b+GnPz7+8vuHN2//+Pb+9V8f/vvp128f38Lf3rz/9OXjh/dP3/DbW/j5Lfz029f3D/98//rnl1/Pv3//hU7Sb//++h/6hO8nXXOmeKLy9sf5JHtT0vHk7yfBP/58PynceaA2U2oMJdnzx73IX//OzrRA/z4ff/cvqmBSHY9/vB6nZoKrJbbrJ77IwkT2IgmDxA8G7V/B4+dPXyahQNTaIlSKxi1CMYIILhaC2EwNDwTBlLISOJOe3lBMTQtBaMY/qnmicJ3EtVyFaptpLmXPVBuqCZFOv+7JMtXi6vsLXo9CWYQ4VMv5atZEepnVrz9A03n+fxbM1uoErzC6LkC/+2piWxn0uPu6YbBmkyZDu/iyxhW8OHJDu/jC/8Nkh00wWCcddxZBFZkOcfLZPEs2LS+24Ot1FTfGUJKJ3lUulMcnTY8vWQqcJggd+2ScnS7GhlWW4i4fGeoOxudHWXIxYXU1b014cIRcYawLgUubgHOQeCb6oOpiZ5iWlXI7CiHTxbfC5LYmM7kdnNltzAySQ2X1Lgw6WMb0X+EHOZnKg2GD4U7uHXpA5m5Q4WM79pzJtgk3AFsBRjCU4Va2EnTtFTfpysymEo/xRplEH5gy82LcihElxOs1OIImTBJK8ZIzcY55rtM5MoG4evElXaymNCsiJVFJ345Z+AMOCrtYRQEMxBVPXXmEHoIB5g8IIE+iHxRCcARQBRqAAV6CLowgthkZWCQADLA7rDIOCLZwiUHw1Uyec4X+phFWU1QuxJ6+JYL1gAHHsgK4bG47Fl8YwHUXjc1aDnIxGVbuEOFKlvYSmM7oWHk0FhKDAUG4oOHm8j2uJs5RPKyyIMhHaQZ4muOMboVJhFiW2nSAqRtcFSZcMzE8C+eMXZEBFuLa260nwLnimlMFJKfuSRsHiYRFoluCXFnV4UjLWg7ju50UO/8w/4CtKYlJ2SEGQYL0ENLKFKi/DyzIAiCQXCUnAKKOCDIcuPEcROFGU109M4qbAIpgFgXARoKaIVjXEp1d+aKTO7aWNzj9DSNutya1FK/MerAyZVyhH6rbC2Off2EPZThZMFPO9GrlJXljk6obx3RDJ3ep7fEOCepEOsHafFlNVlx55nO+LGbSdPAZ7JCDMRcH/PvFxYUE8coOB/fNWGH+FJOVq8VZ76tQZx18XEkTMrgdHDQ1hcjCERU+cp6sdAoLDAIoI936IUpJeaWZKgJp8cCUKjhxMiRM58I4x1lhATvy1AUVgZ0QTEGjtBQaV7GChFUDoYJPY3osHNgRfhjjKH3ysxlSEsEYr2ZBUXbe8voL5bx9LEGIRJrKIBtC4saLrG9rUlN7qvtYGEDRa3cmA4FdVthpGvYDX1KawYxl9Kjnl+xn5TDkUa6NvkHaclhMVSJnZe57BWxh1RVXqkBKFGZNBx+NI6LOWmMUbs0/ZhWoEvyStMY3fu2JSQBIqFm2YHBSQ0bUO4nBEU6G52QRobXnvF329mDmGUl0XAnK9eSu0iYSKw0LdCJCI8I6xdDb0uabalgeoan9xCUW/CCbbVO2y2psmG6yU9rKGETdqRR71C1j3BWIze2q7vED0T1q2gI2VNkABTslSiQpSBxTkwrLvb3RAyFOPjdjEK/rhUCvJ4j6TxdeqMEzFYJMwSXONV1vL+Gpk4LQR8mqCBxkzwRxSx2gCdJG1/elj3I9uWvgurWKxuW48CT6QSLAn6iU5nVGfSQsCWZjxcXVngENeQEeG1OinvrcomqMLUiv9PkaNXNkw+uAesbW3OcfPll47GTDActDToqb+vQgkd1XopsLLhuFJE7mzul1GbyFFgYRa76ChFelgkMkNVYmLaDMIoNuiBWKghNljnPDgDPWDM+l25Vb3Zk82Op+0p3APjaCDhKeexGR8FhCScVj09wc6gaMT2XFPhy+brvuyAokNygQJDOoniUnTrIReQBMSydNZQPyR258haYassKmx/JuKfR4mVBTA55DhNt3YQ8yYWsHpRJVqzLFoetQMkecDkXw03aACrLi75vWsJNalHlCNUqTrgHT5yYLY7CK6v8geHQC5DiZNUOtfXKBg0D0HOF+888qDEKRkqDTVGvue6zCgCaySEOJzu72QeaVFDhx/Sa92KWjMjOgUaZkZQcwSFCb7PbQME6570ijRy1xqlpOngQ3ccMMcnItBIMyKD3sCMfwMnrR6SIdFaf5NIdOblmiq5KeCrPwilmMusVlBQd+DPgocfIRxil1o5mHEMGjh6CwX0tXgIB/rtGRJCul2EEnEo5exkLnE/Ba65nyEZ1FqufT1Xfrmrfbfh+IrKL4eo0oBF9NzjNwOChFx3FYMLSdH3vkRQLI6llpyHaMUmFQyqtYpuuz6xlYRQom+kNk55wdolP6ocegdLpUVlWDzCnY5qph1Shy+e0wxRVTBFeykVf0qqfM4ahjhqx5lEb26hB28QbggX2scFFmB5tzsyXg9enDXxwr7o9PkO1IGPJcJ/GJASr6KtuSRMWXV8K+6iWy2TV5NUCfIV0DVFVBaTqstHvt2JAZnO1t0S7uN/jxSleHGBL9W72vQ0e5onaNHZpfLHdPHf3HuycKBXYOOqV7bs8rvbvymLVZDGmINYGBdmVXlIDMihANQlYmnadGUA58TSU6QKgIhFY0X45zj+qFG6yZmHesAhcVAEBdNrIPMm37YgwpmoLu1FlOQVnXGTGLGQwo2nagU1/13P30tKhz54tZVFdKjk7j1WVpgi1FEJkX3OadURC6KG1exLDFCvhmCfCryQT3+DDZYZiwmycj4Hpbbh1kc6hikECfsayLMIWCXlnYoYHQPK4ugleejbu+dvJ/ZxogtfMej1Anhcq50OGtahPokm5XFWSkrbtWLzLDvPbx7GYQc1DIyGz5YsNrcXLOrXnOehasd6NvEPBVAFop2mV5kVo52i7Scs/MOEAUlNBAZEoVci2FLnztAkKsy6hqbK3UpqxL9HqNdj3nbpbQYVXlGhVckjp0O/slMsnqQTm/jC90IVWce2icV6JfxkNZMMsHQK4XLg/MpnOjRCg2HBjBrWs01qwMXZZx1PtinSP79uROZWDF5YDPTfFxvkObW2CDhQhqcymtJHeMTaboyBcPo+FmUOXIXWnhVK+GMe9mo2Sqpab9DBosmwF58LMd8OXQKAazB8mO2SmlH6gWS31QZsObRDrgz/h2M6VEOcrnqFT87bg7yAS8vqYbQhOj9G0S/21Viukxo+QGS6XyLmbSeC/KyezMp5bL9N61U8dfyMeUEvA4zFjEQa5AnoGvxVe0m+HAIBiw9TwWoB0yUe4TaGkyWLjbKkPsVvu4z+4lchJgLWFTDiy8MvBlkDWzxlx9ANbzqr2SAMaCcDOHbMlbUlir61hysMZn0ey7D3esJckZgDEonXaSQytN/eTp81CHl4Lr0EkZVBEksPGfXZIsZXgbeZAHZBWlDszpBFCmzfLaEVi5p6E4S0NiXxZ8QMt1ZNyX8VAkNGU3Y9yoDdqewtgWLMruWfSm38S15dFkOSg6J+BRQXS4mJUdZHCuDJxw4ZFrjLqgjBtaItvlF3htETtT5x4vb66Hs4XLh6RpKVfn5IIhCTMlzfw8SzCCXZxbnVvYpWLMqyj4gNoe6iaa3c5ZOs/qQrgB2b5ewAxgHa/rWE7f0bnfFYgZ2pdrkQUhQRpClYYAkRpznZwuS31wnapgeK7LWvlkClmZ/dAcX1kqpIDJLJM2PnYMxbUbNi/0KeoJ9fiy0u0IIedzLnG3ntXziHmsv83Og19mJ1PvU10V68xatjfNFuNp3qX4FJFx9GvblYjbl40I4JTAE14bQ8wfkKs22QY9viLHPCHuv/oTvbr4Eyhjkin2NFVLivXR5niQSDLFlKFGkTHg9/HNzt8+ff58fjG0xx38wr8Jikfnt0jDz/8D);strokeColor=none;spacingTop=-1;spacingBottom=-1;spacingLeft=-1;spacingRight=-1;points=[[0.5,0.5,0]];labelBackgroundColor=none;rounded=0;html=1;whiteSpace=wrap;fontFamily=Garamond;fontSize=18;" parent="1" vertex="1">
            <mxGeometry x="1117" y="167" width="18" height="18" as="geometry" />
          </mxCell>
        </UserObject>
        <UserObject label="" tags="Background" id="127">
          <mxCell style="vsdxID=510;fillColor=none;gradientColor=none;image;aspect=fixed;image=data:image/png,iVBORw0KGgoAAAANSUhEUgAABPgAAAW3CAIAAABSXFjAAAAxhUlEQVR4nO3ZzcttBf338e/aT9d58CgeD2j4lNjxNGjgA6KogyYRIggOGuSgnCVEg2gSNGkQNKhB9RdIVKCDEoKi6NQgO3WSoBAklaA0Sy2PD8enc1177/Ub3Df3tH63+V352a/XP/BZ+7rWWnu99xrGcawdsN1u+0eHYYhf3B39V8qO/DcnuTZns1n/6I6cQpvNpnlxPp83L07inXfe6R89dOhQ/2i//f395sXlctm8WBPdEPrv8JPc3oH/Tm4HAAAARBG6AAAARBG6AAAARBG6AAAARBG6AAAARBG6AAAARBG6AAAARBG6AAAARBG6AAAARBG6AAAARBG6AAAARBG6AAAARBG6AAAARBG6AAAARBG6AAAARBG6AAAARBG6AAAARBG6AAAARBG6AAAARBG6AAAARBG6AAAARBG6AAAARBG6AAAARBG6AAAARBG6AAAARBG6AAAARBG6AAAARBG6AAAARBG6AAAARBG6AAAARBG6AAAARBG6AAAARBG6AAAARBG6AAAARBG6AAAARBG6AAAARBG6AAAARBm22+0Eq8PQP9pvHMfmxR35w+6I/vOnpjiFJvmYO+Lg4KB/dLVaNS+u1+vmxZrivF0ul82Lk3jrrbf6R48cOdK8OMl9b5LR2az7hcokN4TFYtG8OMntfUfuQiTxRhcAAIAoQhcAAIAoQhcAAIAoQhcAAIAoQhcAAIAoQhcAAIAoQhcAAIAoQhcAAIAoQhcAAIAoQhcAAIAoQhcAAIAoQhcAAIAoQhcAAIAoQhcAAIAoQhcAAIAoQhcAAIAoQhcAAIAoQhcAAIAoQhcAAIAoQhcAAIAoQhcAAIAoQhcAAIAoQhcAAIAoQhcAAIAoQhcAAIAoQhcAAIAoQhcAAIAoQhcAAIAoQhcAAIAoQhcAAIAoQhcAAIAoQhcAAIAoQhcAAIAoQhcAAIAoQhcAAIAoQhcAAIAoQhcAAIAoQhcAAIAowziO/aubzaZ5cT6fNy/uju1227w4m+3EDzTr9bp/dLFY9I/yHjl9+nT/6A9/+MPmxTfeeKN5sar29vaaF2+77bbmxar6xCc+0bx4+PDh5sXamWeS/o9ZVcMwNC/uyBMC8O9wOwAAACCK0AUAACCK0AUAACCK0AUAACCK0AUAACCK0AUAACCK0AUAACCK0AUAACCK0AUAACCK0AUAACCK0AUAACCK0AUAACCK0AUAACCK0AUAACCK0AUAACCK0AUAACCK0AUAACCK0AUAACCK0AUAACCK0AUAACCK0AUAACCK0AUAACCK0AUAACCK0AUAACCK0AUAACCK0AUAACCK0AUAACCK0AUAACCK0AUAACCK0AUAACCK0AUAACCK0AUAACCK0AUAACCK0AUAACCK0AUAACCK0AUAACCK0AUAACDKMI7j1MfQYbPZ9I/O5/P+0X7b7bZ5cTbbiR9o1ut1/+hisegf7ff222/3j377299uXvzNb37TvFhVV199dfPiFVdc0bxYU5xCzzzzTPNiVZ08ebJ58YEHHmherKrjx483Lw7D0Lw4lR15Quh/yNyRJ0x4l3YiGAAAANgdQhcAAIAoQhcAAIAoQhcAAIAoQhcAAIAoQhcAAIAoQhcAAIAoQhcAAIAoQhcAAIAoQhcAAIAoQhcAAIAoQhcAAIAoQhcAAIAoQhcAAIAoQhcAAIAoQhcAAIAoQhcAAIAoQhcAAIAoQhcAAIAoQhcAAIAoQhcAAIAoQhcAAIAoQhcAAIAoQhcAAIAoQhcAAIAoQhcAAIAoQhcAAIAoQhcAAIAoQhcAAIAoQhcAAIAoQhcAAIAoQhcAAIAoQhcAAIAoQhcAAIAoQhcAAIAoQhcAAIAoQhcAAIAoQhcAAIAowziOUx9Dh0k+5jAM/aP9duQU6v9vbrfb5sWqms26f/x65ZVXmher6nvf+17/6HPPPde8+MADDzQvVtUNN9zQvNh/0lbVwcFB8+Krr77avFhVDz30UPPim2++2bxYVV/4wheaF48dO9a8WDvzIHThwoXmxara29trXtxsNs2LVTWfz/tH4d3wRhcAAIAoQhcAAIAoQhcAAIAoQhcAAIAoQhcAAIAoQhcAAIAoQhcAAIAoQhcAAIAoQhcAAIAoQhcAAIAoQhcAAIAoQhcAAIAoQhcAAIAoQhcAAIAoQhcAAIAoQhcAAIAoQhcAAIAoQhcAAIAoQhcAAIAoQhcAAIAoQhcAAIAoQhcAAIAoQhcAAIAoQhcAAIAoQhcAAIAoQhcAAIAoQhcAAIAoQhcAAIAoQhcAAIAoQhcAAIAoQhcAAIAoQhcAAIAoQhcAAIAoQhcAAIAoQhcAAIAoQhcAAIAoQhcAAIAow3q97l+dz+f9o8TYbDb9ozty0vb/bc+cOdO8WFXf/OY3+0e//vWvNy9ec801zYtVNZt1/366v7/fvFhVq9WqeXGSj9nvM5/5TP/oPffc07x47733Ni/WFCct751xHPtHh2HoH4V3wxtdAAAAoghdAAAAoghdAAAAoghdAAAAoghdAAAAoghdAAAAoghdAAAAoghdAAAAoghdAAAAoghdAAAAoghdAAAAoghdAAAAoghdAAAAoghdAAAAoghdAAAAoghdAAAAoghdAAAAoghdAAAAoghdAAAAoghdAAAAoghdAAAAoghdAAAAoghdAAAAoghdAAAAoghdAAAAoghdAAAAoghdAAAAoghdAAAAoghdAAAAoghdAAAAoghdAAAAoghdAAAAoghdAAAAoghdAAAAoghdAAAAoghdAAAAoghdAAAAoghdAAAAoiy2223/6nw+b14cx7F5saqGYegf3QWT/Dd3xLlz55oXf/WrXzUvVtUtt9zSP/rBD36weXG9XjcvVtVs1v376WKxaF6cxCQfs/+/+clPfrJ5saq++93vNi9+7GMfa16sqtVq1T96cHDQvLhcLpsXq2p/f795sf/arJ252ZLEG10AAACiCF0AAACiCF0AAACiCF0AAACiCF0AAACiCF0AAACiCF0AAACiCF0AAACiCF0AAACiCF0AAACiCF0AAACiCF0AAACiCF0AAACiCF0AAACiCF0AAACiCF0AAACiCF0AAACiCF0AAACiCF0AAACiCF0AAACiCF0AAACiCF0AAACiCF0AAACiCF0AAACiCF0AAACiCF0AAACiCF0AAACiCF0AAACiCF0AAACiCF0AAACiCF0AAACiCF0AAACiCF0AAACiCF0AAACiCF0AAACiCF0AAACiCF0AAACiLJbLZf/q/v5+8+JisWhenMQwDFMfAu9vr7/+evPik08+2bxYVZ/97Gf7R/vN5/OpDyHWdrttXpzNJvhherPZNC/eddddzYtV9eUvf7l58YUXXmherKrDhw/3j65Wq/7Rfv1PXzvyWAvvkje6AAAARBG6AAAARBG6AAAARBG6AAAARBG6AAAARBG6AAAARBG6AAAARBG6AAAARBG6AAAARBG6AAAARBG6AAAARBG6AAAARBG6AAAARBG6AAAARBG6AAAARBG6AAAARBG6AAAARBG6AAAARBG6AAAARBG6AAAARBG6AAAARBG6AAAARBG6AAAARBG6AAAARBG6AAAARBG6AAAARBG6AAAARBG6AAAARBG6AAAARBG6AAAARBG6AAAARBG6AAAARBG6AAAARBG6AAAARBG6AAAARBG6AAAARBG6AAAARBG6AAAARFlMsrparSbZjbfZbPpH5/N5/GJVrdfr5sXFYoLL84UXXmhefPXVV5sXq+q6667rH+03DMPUh9BhkvvecrnsH+03m3X/Gj7J48GVV17ZvPiXv/ylebGqTp061T/af3lO8oQwySjwL3mjCwAAQBShCwAAQBShCwAAQBShCwAAQBShCwAAQBShCwAAQBShCwAAQBShCwAAQBShCwAAQBShCwAAQBShCwAAQBShCwAAQBShCwAAQBShCwAAQBShCwAAQBShCwAAQBShCwAAQBShCwAAQBShCwAAQBShCwAAQBShCwAAQBShCwAAQBShCwAAQBShCwAAQBShCwAAQBShCwAAQBShCwAAQBShCwAAQBShCwAAQBShCwAAQBShCwAAQBShCwAAQBShCwAAQBShCwAAQBShCwAAQBShCwAAQBShCwAAQJTF1AeQbBzHqQ8h0zAM/aPz+bx/tN96vW5ePH/+fPNiVR0/frx/tN/BwUH/aP+Vslwumxcnsb+/3z+6Wq36R/tdeeWVzYvnzp1rXqwpbu81xYPQjnxZA/8Ob3QBAACIInQBAACIInQBAACIInQBAACIInQBAACIInQBAACIInQBAACIInQBAACIInQBAACIInQBAACIInQBAACIInQBAACIInQBAACIInQBAACIInQBAACIInQBAACIInQBAACIInQBAACIInQBAACIInQBAACIInQBAACIInQBAACIInQBAACIInQBAACIInQBAACIInQBAACIInQBAACIInQBAACIInQBAACIInQBAACIInQBAACIInQBAACIInQBAACIInQBAACIInQBAACIInQBAACIInQBAACIInQBAACIspj6AJINwxC/OIlxHPtH+/+22+22ebGqjh492rx46NCh5sWqevnll/tHL7/88ubF5XLZvFhVm82meXF/f795sapWq1X8YlUdHBz0j/Y7d+5c8+JFF13UvFhVi8UEj3yTfJEB/B/e6AIAABBF6AIAABBF6AIAABBF6AIAABBF6AIAABBF6AIAABBF6AIAABBF6AIAABBF6AIAABBF6AIAABBF6AIAABBF6AIAABBF6AIAABBF6AIAABBF6AIAABBF6AIAABBF6AIAABBF6AIAABBF6AIAABBF6AIAABBF6AIAABBF6AIAABBF6AIAABBF6AIAABBF6AIAABBF6AIAABBF6AIAABBF6AIAABBF6AIAABBF6AIAABBF6AIAABBF6AIAABBF6AIAABBF6AIAABBF6AIAABBF6AIAABBF6AIAABBlMfUB8J80m+3ELxebzaZ/dLHovliGYWherKpLL720efGqq65qXqyqP/3pT/2jl19+efPiJFfKfD6PX6wp/rbjODYvVtVyuWxePH/+fPNiVT399NPNizfccEPz4lR25LGk//t6khvCJI8l8G7sxA0IAACA3SF0AQAAiCJ0AQAAiCJ0AQAAiCJ0AQAAiCJ0AQAAiCJ0AQAAiCJ0AQAAiCJ0AQAAiCJ0AQAAiCJ0AQAAiCJ0AQAAiCJ0AQAAiCJ0AQAAiCJ0AQAAiCJ0AQAAiCJ0AQAAiCJ0AQAAiCJ0AQAAiCJ0AQAAiCJ0AQAAiCJ0AQAAiCJ0AQAAiCJ0AQAAiCJ0AQAAiCJ0AQAAiCJ0AQAAiCJ0AQAAiCJ0AQAAiCJ0AQAAiCJ0AQAAiCJ0AQAAiCJ0AQAAiCJ0AQAAiCJ0AQAAiCJ0AQAAiCJ0AQAAiCJ0AQAAiLKY+gDgf20224kfaIZh6B+9+OKLmxdPnjzZvFhVv/zlL/tHb7vttubF+XzevLg7+u9Cm82meXESZ86c6R/90Ic+1Lx4xRVXNC9W1Xq97h/tv1J25AlhkhvCYqEaeJ/ZidsBAAAAu0PoAgAAEEXoAgAAEEXoAgAAEEXoAgAAEEXoAgAAEEXoAgAAEEXoAgAAEEXoAgAAEEXoAgAAEEXoAgAAEEXoAgAAEEXoAgAAEEXoAgAAEEXoAgAAEEXoAgAAEEXoAgAAEEXoAgAAEEXoAgAAEEXoAgAAEEXoAgAAEEXoAgAAEEXoAgAAEEXoAgAAEEXoAgAAEEXoAgAAEEXoAgAAEEXoAgAAEEXoAgAAEEXoAgAAEEXoAgAAEEXoAgAAEEXoAgAAEEXoAgAAEEXoAgAAEEXoAgAAEEXoAgAAEGUx9QHwvjeO49SHwH/MpZde2rx4++23Ny9W1de+9rX+0Xvuuad58SMf+Ujz4iQ2m03/6Hw+b15cLCb4vn7uueeaF7/zne80L1bVpz/96ebFQ4cONS/WRKfQJJdnv/4HoUn+m/C+440uAAAAUYQuAAAAUYQuAAAAUYQuAAAAUYQuAAAAUYQuAAAAUYQuAAAAUYQuAAAAUYQuAAAAUYQuAAAAUYQuAAAAUYQuAAAAUYQuAAAAUYQuAAAAUYQuAAAAUYQuAAAAUYQuAAAAUYQuAAAAUYQuAAAAUYQuAAAAUYQuAAAAUYQuAAAAUYQuAAAAUYQuAAAAUYQuAAAAUYQuAAAAUYQuAAAAUYQuAAAAUYQuAAAAUYQuAAAAUYQuAAAAUYQuAAAAUYQuAAAAUYQuAAAAUYQuAAAAUYQuAAAAUYQuAAAAUYQuAAAAURZTHwD8r43juAujwzA0L1bVYtF9T7jxxhubF6vq+uuv7x/90pe+1Lz4+c9/vnmxqj760Y82L67X6+bFmuKG8Le//a15saq++MUvNi++9tprzYtVdccddzQvLpfL5sWpzOfz5sVJnhBmM++N4L+RKxMAAIAoQhcAAIAoQhcAAIAoQhcAAIAoQhcAAIAoQhcAAIAoQhcAAIAoQhcAAIAoQhcAAIAoQhcAAIAoQhcAAIAoQhcAAIAoQhcAAIAoQhcAAIAoQhcAAIAoQhcAAIAoQhcAAIAoQhcAAIAoQhcAAIAoQhcAAIAoQhcAAIAoQhcAAIAoQhcAAIAoQhcAAIAoQhcAAIAoQhcAAIAoQhcAAIAoQhcAAIAoQhcAAIAoQhcAAIAoQhcAAIAoQhcAAIAoQhcAAIAoQhcAAIAoQhcAAIAoQhcAAIAoQhcAAIAoi6kPINl2u21enM0m+OViGIbmxfl83rxYVeM4Ni/2nz81xX/z4osvbl6sqmuvvbZ/9Kmnnmpe/MUvftG8WFWnT59uXrzsssuaF6vq7bffbl588803mxer6uDgoHnxzjvvbF6sKb5T+u+0NdF3Sv9jySR/237r9bp/dLFQDbzPeKMLAABAFKELAABAFKELAABAFKELAABAFKELAABAFKELAABAFKELAABAFKELAABAFKELAABAFKELAABAFKELAABAFKELAABAFKELAABAFKELAABAFKELAABAFKELAABAFKELAABAFKELAABAFKELAABAFKELAABAFKELAABAFKELAABAFKELAABAFKELAABAFKELAABAFKELAABAFKELAABAFKELAABAFKELAABAFKELAABAFKELAABAFKELAABAFKELAABAFKELAABAFKELAABAFKELAABAFKELAABAFKELAABAlMXUB9BkHMcdGd0F2+22f3Q26/5VaL1eNy9W1T//+c/mxbNnzzYvVtWZM2f6R2+44YbmxePHjzcvVtUjjzzSvHju3LnmxZrib3vnnXc2L1bVqVOnmhd//etfNy9W1ZNPPtm8eP311zcvVtXhw4f7R1erVf/oLuh/Jtkdm82meXEYhubFSUxy0rpOAAAAiCJ0AQAAiCJ0AQAAiCJ0AQAAiCJ0AQAAiCJ0AQAAiCJ0AQAAiCJ0AQAAiCJ0AQAAiCJ0AQAAiCJ0AQAAiCJ0AQAAiCJ0AQAAiCJ0AQAAiCJ0AQAAiCJ0AQAAiCJ0AQAAiCJ0AQAAiCJ0AQAAiCJ0AQAAiCJ0AQAAiCJ0AQAAiCJ0AQAAiCJ0AQAAiCJ0AQAAiCJ0AQAAiCJ0AQAAiCJ0AQAAiCJ0AQAAiCJ0AQAAiCJ0AQAAiCJ0AQAAiCJ0AQAAiCJ0AQAAiCJ0AQAAiCJ0AQAAiCJ0AQAAiDKs1+v+1fl83rw4jmPzYlUNw9C8uL+/37xYVcvlsnlxu902L1bVj370o+bF06dPNy9W1SuvvNK8eOTIkebFqnr22Wf7R48dO9a8ePLkyebFmuLy7L/TVtXe3l7z4htvvNG8WFX/+Mc/mhfPnj3bvFhV119/ffPiVVdd1bxYEz0hXH755c2L9913X/NiVd14443Ni4vFonlxEm+++Wb/6NGjR/tHd8EkyemNLgAAAFGELgAAAFGELgAAAFGELgAAAFGELgAAAFGELgAAAFGELgAAAFGELgAAAFGELgAAAFGELgAAAFGELgAAAFGELgAAAFGELgAAAFGELgAAAFGELgAAAFGELgAAAFGELgAAAFGELgAAAFGELgAAAFGELgAAAFGELgAAAFGELgAAAFGELgAAAFGELgAAAFGELgAAAFGELgAAAFGELgAAAFGELgAAAFGELgAAAFGELgAAAFGELgAAAFGELgAAAFGELgAAAFGELgAAAFGELgAAAFGELgAAAFGELgAAAFGELgAAAFGGzWbTvzqbdQf2JB9zGIbmxf4/bFWdO3euefFb3/pW82JN8TFPnTrVvFhVH/jAB5oXr7322ubFqloul/2jb731VvPi3t5e8+Iko/1/2Ko6fPhw8+L+/n7zYk3x33zjjTeaF6vq73//e/Pi+fPnmxdrim+xqnrllVeaF5955pnmxaq65JJLmhcfeOCB5sWquvXWW/tH+/XfbFerVfNiVR0cHDQvTvLo5Y0uAAAAUYQuAAAAUYQuAAAAUYQuAAAAUYQuAAAAUYQuAAAAUYQuAAAAUYQuAAAAUYQuAAAAUYQuAAAAUYQuAAAAUYQuAAAAUYQuAAAAUYQuAAAAUYQuAAAAUYQuAAAAUYQuAAAAUYQuAAAAUYQuAAAAUYQuAAAAUYQuAAAAUYQuAAAAUYQuAAAAUYQuAAAAUYQuAAAAUYQuAAAAUYQuAAAAUYQuAAAAUYQuAAAAUYQuAAAAUYQuAAAAUYQuAAAAUYQuAAAAUYQuAAAAUYQuAAAAUYQuAAAAUYQuAAAAUYZxHKc+hg7r9bp/dLFYNC++8MILzYtV9dWvfrV58ZprrmlerKp77723efHkyZPNi5PYbrf9o7PZBL/x9d+F+m9BvHcmuVL6XbhwoX/08OHD/aP9Jnne22w2zYtPPPFE82JVPf74482LZ8+ebV6sqjvvvLN58f77729erKpDhw71j/brvyEMw9C8WN7oAgAAEEboAgAAEEXoAgAAEEXoAgAAEEXoAgAAEEXoAgAAEEXoAgAAEEXoAgAAEEXoAgAAEEXoAgAAEEXoAgAAEEXoAgAAEEXoAgAAEEXoAgAAEEXoAgAAEEXoAgAAEEXoAgAAEEXoAgAAEEXoAgAAEEXoAgAAEEXoAgAAEEXoAgAAEEXoAgAAEEXoAgAAEEXoAgAAEEXoAgAAEEXoAgAAEEXoAgAAEEXoAgAAEEXoAgAAEEXoAgAAEEXoAgAAEEXoAgAAEEXoAgAAEEXoAgAAEEXoAgAAEEXoAgAAEEXoAgAAEGXYbDb9q+M4Ni/O5/Pmxao6f/588+JXvvKV5sWqOnnyZPPipz71qebFqhqGoXlxuVw2L1bVer1uXlwsFs2LU+m/2U5y39vf329eXK1WzYvwLvXfaWuim23/817/YlXNZt3vjc6ePdu8WFUPP/xw8+Ltt9/evFhV9913X/PiJM97/aa5NvsnAQAA4L0jdAEAAIgidAEAAIgidAEAAIgidAEAAIgidAEAAIgidAEAAIgidAEAAIgidAEAAIgidAEAAIgidAEAAIgidAEAAIgidAEAAIgidAEAAIgidAEAAIgidAEAAIgidAEAAIgidAEAAIgidAEAAIgidAEAAIgidAEAAIgidAEAAIgidAEAAIgidAEAAIgidAEAAIgidAEAAIgidAEAAIgidAEAAIgidAEAAIgidAEAAIgidAEAAIgidAEAAIgidAEAAIgidAEAAIgidAEAAIgidAEAAIgidAEAAIiy2G63E6wuFs2Lm82mebGqvvGNbzQvnjhxonmxqu6///7mxeVy2bxYVcMw9I/225Frczab4De++XzeP9pvtVo1L07yLTaOY/PiJLegSa6UXbAjd4Oa4rztvzYncdttt/WP9j8hPPTQQ82LVXXs2LHmxbvvvrt5sab46pzkC8V3GAAAAFGELgAAAFGELgAAAFGELgAAAFGELgAAAFGELgAAAFGELgAAAFGELgAAAFGELgAAAFGELgAAAFGELgAAAFGELgAAAFGELgAAAFGELgAAAFGELgAAAFGELgAAAFGELgAAAFGELgAAAFGELgAAAFGELgAAAFGELgAAAFGELgAAAFGELgAAAFGELgAAAFGELgAAAFGELgAAAFGELgAAAFGELgAAAFGELgAAAFGELgAAAFGELgAAAFGELgAAAFGELgAAAFGELgAAAFGELgAAAFGELgAAAFGELgAAAFGELgAAAFEWs9lOtO7p06f7R//61782L37uc59rXqyqw4cP94/222w2Ux9Ch/l8Hr9YVeM47sLowcFB82JVrVar5sUd+RbbkZN2GIbmxZri9j7JfW8S/Xeh5XLZvDiJSZ5JbrnllubFRx99tHmxqn772982L3784x9vXqyd+erciQ8JAADA7hC6AAAARBG6AAAARBG6AAAARBG6AAAARBG6AAAARBG6AAAARBG6AAAARBG6AAAARBG6AAAARBG6AAAARBG6AAAARBG6AAAARBG6AAAARBG6AAAARBG6AAAARBG6AAAARBG6AAAARBG6AAAARBG6AAAARBG6AAAARBG6AAAARBG6AAAARBG6AAAARBG6AAAARBG6AAAARBG6AAAARBG6AAAARBG6AAAARBG6AAAARBG6AAAARBG6AAAARBG6AAAARBG6AAAARBG6AAAARBG6AAAARBG6AAAARFlMsrrZbJoXH3nkkebFqrrjjjuaFz/84Q83L1bVMAz9o/3m8/nUh9Ch/9qc5A+73W77R/s/6Wq1al6snTmF1ut18+JiMc339S7oP4X6z5+a6BSazbpfqIzj2LxYUzwI7cgzyV133dU/+uMf/7h58Q9/+EPzYlXddNNN/aP9vNEFAAAgitAFAAAgitAFAAAgitAFAAAgitAFAAAgitAFAAAgitAFAAAgitAFAAAgitAFAAAgitAFAAAgitAFAAAgitAFAAAgitAFAAAgitAFAAAgitAFAAAgitAFAAAgitAFAAAgitAFAAAgitAFAAAgitAFAAAgitAFAAAgitAFAAAgitAFAAAgitAFAAAgitAFAAAgitAFAAAgitAFAAAgitAFAAAgitAFAAAgitAFAAAgitAFAAAgitAFAAAgitAFAAAgitAFAAAgitAFAAAgitAFAAAgitAFAAAgitAFAAAgymIcx/7VM2fONC/u7e01L1bVrbfe2rw4n8+bF3dH/5UyDEPz4lSj/Vwp750d+dsuFoupD4H3sd05f3bkhnBwcNC8uFwumxerarvdNi+eOnWqebGqfvCDHzQvPv/8882LVXXTTTf1j/bzRhcAAIAoQhcAAIAoQhcAAIAoQhcAAIAoQhcAAIAoQhcAAIAoQhcAAIAoQhcAAIAoQhcAAIAoQhcAAIAoQhcAAIAoQhcAAIAoQhcAAIAoQhcAAIAoQhcAAIAoQhcAAIAoQhcAAIAoQhcAAIAoQhcAAIAoQhcAAIAoQhcAAIAoQhcAAIAoQhcAAIAoQhcAAIAoQhcAAIAoQhcAAIAoQhcAAIAoQhcAAIAoQhcAAIAoQhcAAIAoQhcAAIAoQhcAAIAoQhcAAIAoQhcAAIAoQhcAAIAoQhcAAIAoQhcAAIAoi/l83r/62GOPNS9eeumlzYtVdd111zUvDsPQvFhVFy5caF7c29trXqyJ/rb9ZjM/fgG7ZbvdNi/uzp12f3+/eXG1WjUvVtVyuWxe7H/0qimevo4ePdq8WFXr9bp5cbPZNC9OYhzH/tFdudUCAACwI4QuAAAAUYQuAAAAUYQuAAAAUYQuAAAAUYQuAAAAUYQuAAAAUYQuAAAAUYQuAAAAUYQuAAAAUYQuAAAAUYQuAAAAUYQuAAAAUYQuAAAAUYQuAAAAUYQuAAAAUYQuAAAAUYQuAAAAUYQuAAAAUYQuAAAAUYQuAAAAUYQuAAAAUYQuAAAAUYQuAAAAUYQuAAAAUYQuAAAAUYQuAAAAUYQuAAAAUYQuAAAAUYQuAAAAUYQuAAAAUYQuAAAAUYQuAAAAUYQuAAAAUYQuAAAAUYQuAAAAUYQuAAAAUYQuAAAAURZvvfVW/+rvf//75sW77767ebGqLrrooubF7XbbvFhVq9WqeXGSk/YnP/lJ8+K1117bvFhVN998c/PiJCftMAz9o8C/NMm1udlsmhdnswleMzz99NP9oz//+c+bFx988MHmxUns7e31j/Z/X/dfm5OY5L/Zb5LnPW90AQAAiCJ0AQAAiCJ0AQAAiCJ0AQAAiCJ0AQAAiCJ0AQAAiCJ0AQAAiCJ0AQAAiCJ0AQAAiCJ0AQAAiCJ0AQAAiCJ0AQAAiCJ0AQAAiCJ0AQAAiCJ0AQAAiCJ0AQAAiCJ0AQAAiCJ0AQAAiCJ0AQAAiCJ0AQAAiCJ0AQAAiCJ0AQAAiCJ0AQAAiCJ0AQAAiCJ0AQAAiCJ0AQAAiCJ0AQAAiCJ0AQAAiCJ0AQAAiCJ0AQAAiCJ0AQAAiCJ0AQAAiCJ0AQAAiCJ0AQAAiCJ0AQAAiCJ0AQAAiCJ0AQAAiLJ4/vnn+1cvvvji5sVTp041L05is9n0jy6Xy+bFST7mz372s+bFO+64o3mxqm6++ebmxdnMz23AlBaLxdSH0OHZZ5/tH/3+97/fvPjggw82L9YUjyXz+bx5cRJ//vOf+0dXq1Xz4okTJ5oXJzEMQ/+oR0wAAACiCF0AAACiCF0AAACiCF0AAACiCF0AAACiCF0AAACiCF0AAACiCF0AAACiCF0AAACiCF0AAACiCF0AAACiCF0AAACiCF0AAACiCF0AAACiCF0AAACiCF0AAACiCF0AAACiCF0AAACiCF0AAACiCF0AAACiCF0AAACiCF0AAACiCF0AAACiCF0AAACiCF0AAACiCF0AAACiCF0AAACiCF0AAACiCF0AAACiCF0AAACiCF0AAACiCF0AAACiCF0AAACiCF0AAACiCF0AAACiCF0AAACiCF0AAACiCF0AAACiLJ588sn+1SNHjjQvXnLJJc2Lk5jNJvjlYhzH5sXlctm8OMnoJB/z4OCgeXGSj9l/0gL/jkmuzf6vzv47bVXN5/P+0f6/7WazaV6sKf62+/v7zYtVtVqtmhefeOKJ5sWaIlKuvPLK5sVJTBIp3ugCAAAQRegCAAAQRegCAAAQRegCAAAQRegCAAAQRegCAAAQRegCAAAQRegCAAAQRegCAAAQRegCAAAQRegCAAAQRegCAAAQRegCAAAQRegCAAAQRegCAAAQRegCAAAQRegCAAAQRegCAAAQRegCAAAQRegCAAAQRegCAAAQRegCAAAQRegCAAAQRegCAAAQRegCAAAQRegCAAAQRegCAAAQRegCAAAQRegCAAAQRegCAAAQRegCAAAQRegCAAAQRegCAAAQRegCAAAQRegCAAAQRegCAAAQRegCAAAQZfHSSy/1r65Wq+bFkydPNi9OYj6fT30IHcZx7B/d29trXjx06FDzYlUtFov+0X7DMEx9CMDums0meM0wye396NGjzYs78iDU/yBdVev1unnxmWeeaV6sqssuu6x58cSJE82Lk5jk6d0bXQAAAKIIXQAAAKIIXQAAAKIIXQAAAKIIXQAAAKIIXQAAAKIIXQAAAKIIXQAAAKIIXQAAAKIIXQAAAKIIXQAAAKIIXQAAAKIIXQAAAKIIXQAAAKIIXQAAAKIIXQAAAKIIXQAAAKIIXQAAAKIIXQAAAKIIXQAAAKIIXQAAAKIIXQAAAKIIXQAAAKIIXQAAAKIIXQAAAKIIXQAAAKIIXQAAAKIIXQAAAKIIXQAAAKIIXQAAAKIIXQAAAKIIXQAAAKIIXQAAAKIIXQAAAKIIXQAAAKIIXQAAAKIIXQAAAKIIXQAAAKIs3n777f7VZ599tnnxpz/9afNiVR07dqx5cbvdNi9W1Wq1al587bXXmher6o9//GPz4t7eXvNiVZ04caJ58cKFC82LVTWb+Y0P+L/m83nz4iRf1o8//nj/aP/z3mOPPda8WFX9z9IXX3xx82JV/eMf/2hefPnll5sXq+rGG29sXlwul82LkxiGoX/U0x4AAABRhC4AAABRhC4AAABRhC4AAABRhC4AAABRhC4AAABRhC4AAABRhC4AAABRhC4AAABRhC4AAABRhC4AAABRhC4AAABRhC4AAABRhC4AAABRhC4AAABRhC4AAABRhC4AAABRhC4AAABRhC4AAABRhC4AAABRhC4AAABRhC4AAABRhC4AAABRhC4AAABRhC4AAABRhC4AAABRhC4AAABRhC4AAABRhC4AAABRhC4AAABRhC4AAABRhC4AAABRhC4AAABRhC4AAABRhC4AAABRhC4AAABRhC4AAABRFrfeemv/6lNPPdW8+OijjzYvVtWRI0eaFw8ODpoXq2oYhvjFqnr99debF3/3u981L1bVq6++2ry42WyaF2uiUwj4lya5NvvvQsvlsnmxql588cX+0XEcmxcffvjh5sWqms/nzYvvvPNO82JN8ZB54cKF5sWquvrqq/tH+2232+bF2WyC16ve6AIAABBF6AIAABBF6AIAABBF6AIAABBF6AIAABBF6AIAABBF6AIAABBF6AIAABBF6AIAABBF6AIAABBF6AIAABBF6AIAABBF6AIAABBF6AIAABBF6AIAABBF6AIAABBF6AIAABBF6AIAABBF6AIAABBF6AIAABBF6AIAABBF6AIAABBF6AIAABBF6AIAABBF6AIAABBF6AIAABBF6AIAABBF6AIAABBF6AIAABBF6AIAABBF6AIAABBF6AIAABBF6AIAABBF6AIAABBF6AIAABBF6AIAABBF6AIAABBF6AIAABBl2N/f71998cUXmxdfeuml5sWqGoaheXEcx+bFqtput82Lk3zMfv3nT1XNZt0/fk3yMQH+n/7vlP7vzfLV+V7aka/O/lPo8OHDzYtVdfz48fjFqloul/2j/bzRBQAAIIrQBQAAIIrQBQAAIIrQBQAAIIrQBQAAIIrQBQAAIIrQBQAAIIrQBQAAIIrQBQAAIIrQBQAAIIrQBQAAIIrQBQAAIIrQBQAAIIrQBQAAIIrQBQAAIIrQBQAAIIrQBQAAIIrQBQAAIIrQBQAAIIrQBQAAIIrQBQAAIIrQBQAAIIrQBQAAIIrQBQAAIIrQBQAAIIrQBQAAIIrQBQAAIIrQBQAAIIrQBQAAIIrQBQAAIIrQBQAAIIrQBQAAIIrQBQAAIIrQBQAAIIrQBQAAIIrQBQAAIIrQBQAAIMowjuPUx9BhvV73jy4Wi/5RAAD4z9qRZBiGYepDyLTdbvtHvdEFAAAgitAFAAAgitAFAAAgitAFAAAgitAFAAAgitAFAAAgitAFAAAgitAFAAAgitAFAAAgitAFAAAgitAFAAAgitAFAAAgitAFAAAgitAFAAAgitAFAAAgitAFAAAgitAFAAAgitAFAAAgitAFAAAgitAFAAAgitAFAAAgitAFAAAgitAFAAAgitAFAAAgitAFAAAgitAFAAAgitAFAAAgitAFAAAgitAFAAAgitAFAAAgitAFAAAgitAFAAAgitAFAAAgitAFAAAgitAFAAAgitAFAAAgitAFAAAgitAFAAAgyrDZbPpXZzOBzf+/cRynPoQOwzBMfQixduQUAv4dbra870zyLeZK4d3Ybrf9o4ITAACAKEIXAACAKEIXAACAKEIXAACAKEIXAACAKEIXAACAKEIXAACAKEIXAACAKEIXAACAKEIXAACAKEIXAACAKEIXAACAKEIXAACAKEIXAACAKEIXAACAKEIXAACAKEIXAACAKEIXAACAKEIXAACAKEIXAACAKEIXAACAKEIXAACAKEIXAACAKEIXAACAKEIXAACAKEIXAACAKEIXAACAKEIXAACAKEIXAACAKEIXAACAKEIXAACAKEIXAACAKEIXAACAKEIXAACAKEIXAACAKEIXAACAKEIXAACAKMM4jlMfQ4ftdts/Opv5HQEA/l2TPJMMw9A/Cu/GJFfKjiSDp/f3yCTnj/8lAAAAUYQuAAAAUYQuAAAAUYQuAAAAUYQuAAAAUYQuAAAAUYQuAAAAUYQuAAAAUYQuAAAAUYQuAAAAUYQuAAAAUYQuAAAAUYQuAAAAUYQuAAAAUYQuAAAAUYQuAAAAUYQuAAAAUYQuAAAAUYQuAAAAUYQuAAAAUYQuAAAAUYQuAAAAUYQuAAAAUYQuAAAAUYQuAAAAUYQuAAAAUYQuAAAAUYQuAAAAUYQuAAAAUYQuAAAAUYQuAAAAUYQuAAAAUYQuAAAAUYQuAAAAUYQuAAAAUYQuAAAAUYQuAAAAUYQuAAAAUYZxHKc+BgAAADr0B+AkyemNLgAAAFGELgAAAFGELgAAAFGELgAAAFGELgAAAFGELgAAAFGELgAAAFGELgAAAFGELgAAAFGELgAAAFGELgAAAFGELgAAAFGELgAAAFGELgAAAFGELgAAAFGELgAAAFGELgAAAFGELgAAAFGELgAAAFGELgAAAFGELgAAAFGELgAAAFGELgAAAFGELgAAAFGELgAAAFGELgAAAFGELgAAAFGELgAAAFGELgAAAFGELgAAAFGELgAAAFGELgAAAFGELgAAAFGELgAAAFGELgAAAFGELgAAAFGELgAAAFGGg4ODCVaHIX5xktFJPia8G+M4Tn0IwH8L32LvnR252TqF3jubzWbqQ+iwI0/vO3KleKMLAABAFKELAABAFKELAABAFKELAABAFKELAABAFKELAABAFKELAABAFKELAABAFKELAABAFKELAABAFKELAABAFKELAABAFKELAABAFKELAABAFKELAABAFKELAABAFKELAABAFKELAABAFKELAABAFKELAABAFKELAABAFKELAABAFKELAABAFKELAABAFKELAABAFKELAABAFKELAABAFKELAABAFKELAABAFKELAABAFKELAABAFKELAABAFKELAABAFKELAABAFKELAABAFKELAABAFKELAABAFKELAABAlP8ByF4zX6FA/6AAAAAASUVORK5CYII=;strokeColor=none;points=[];labelBackgroundColor=none;rounded=0;html=1;whiteSpace=wrap;fontFamily=Garamond;fontSize=18;" parent="1" vertex="1">
            <mxGeometry x="190" y="272" width="18" height="21" as="geometry" />
          </mxCell>
        </UserObject>
        <UserObject label="" tags="Background" id="128">
          <mxCell style="vsdxID=511;fillColor=none;gradientColor=none;image;aspect=fixed;image=data:image/png,iVBORw0KGgoAAAANSUhEUgAABPgAAAW3CAIAAABSXFjAAAAxhUlEQVR4nO3ZzcttBf338e/aT9d58CgeD2j4lNjxNGjgA6KogyYRIggOGuSgnCVEg2gSNGkQNKhB9RdIVKCDEoKi6NQgO3WSoBAklaA0Sy2PD8enc1177/Ub3Df3tH63+V352a/XP/BZ+7rWWnu99xrGcawdsN1u+0eHYYhf3B39V8qO/DcnuTZns1n/6I6cQpvNpnlxPp83L07inXfe6R89dOhQ/2i//f395sXlctm8WBPdEPrv8JPc3oH/Tm4HAAAARBG6AAAARBG6AAAARBG6AAAARBG6AAAARBG6AAAARBG6AAAARBG6AAAARBG6AAAARBG6AAAARBG6AAAARBG6AAAARBG6AAAARBG6AAAARBG6AAAARBG6AAAARBG6AAAARBG6AAAARBG6AAAARBG6AAAARBG6AAAARBG6AAAARBG6AAAARBG6AAAARBG6AAAARBG6AAAARBG6AAAARBG6AAAARBG6AAAARBG6AAAARBG6AAAARBG6AAAARBG6AAAARBG6AAAARBG6AAAARBG6AAAARBG6AAAARBm22+0Eq8PQP9pvHMfmxR35w+6I/vOnpjiFJvmYO+Lg4KB/dLVaNS+u1+vmxZrivF0ul82Lk3jrrbf6R48cOdK8OMl9b5LR2az7hcokN4TFYtG8OMntfUfuQiTxRhcAAIAoQhcAAIAoQhcAAIAoQhcAAIAoQhcAAIAoQhcAAIAoQhcAAIAoQhcAAIAoQhcAAIAoQhcAAIAoQhcAAIAoQhcAAIAoQhcAAIAoQhcAAIAoQhcAAIAoQhcAAIAoQhcAAIAoQhcAAIAoQhcAAIAoQhcAAIAoQhcAAIAoQhcAAIAoQhcAAIAoQhcAAIAoQhcAAIAoQhcAAIAoQhcAAIAoQhcAAIAoQhcAAIAoQhcAAIAoQhcAAIAoQhcAAIAoQhcAAIAoQhcAAIAoQhcAAIAoQhcAAIAoQhcAAIAoQhcAAIAowziO/aubzaZ5cT6fNy/uju1227w4m+3EDzTr9bp/dLFY9I/yHjl9+nT/6A9/+MPmxTfeeKN5sar29vaaF2+77bbmxar6xCc+0bx4+PDh5sXamWeS/o9ZVcMwNC/uyBMC8O9wOwAAACCK0AUAACCK0AUAACCK0AUAACCK0AUAACCK0AUAACCK0AUAACCK0AUAACCK0AUAACCK0AUAACCK0AUAACCK0AUAACCK0AUAACCK0AUAACCK0AUAACCK0AUAACCK0AUAACCK0AUAACCK0AUAACCK0AUAACCK0AUAACCK0AUAACCK0AUAACCK0AUAACCK0AUAACCK0AUAACCK0AUAACCK0AUAACCK0AUAACCK0AUAACCK0AUAACCK0AUAACCK0AUAACCK0AUAACCK0AUAACCK0AUAACCK0AUAACDKMI7j1MfQYbPZ9I/O5/P+0X7b7bZ5cTbbiR9o1ut1/+hisegf7ff222/3j377299uXvzNb37TvFhVV199dfPiFVdc0bxYU5xCzzzzTPNiVZ08ebJ58YEHHmherKrjx483Lw7D0Lw4lR15Quh/yNyRJ0x4l3YiGAAAANgdQhcAAIAoQhcAAIAoQhcAAIAoQhcAAIAoQhcAAIAoQhcAAIAoQhcAAIAoQhcAAIAoQhcAAIAoQhcAAIAoQhcAAIAoQhcAAIAoQhcAAIAoQhcAAIAoQhcAAIAoQhcAAIAoQhcAAIAoQhcAAIAoQhcAAIAoQhcAAIAoQhcAAIAoQhcAAIAoQhcAAIAoQhcAAIAoQhcAAIAoQhcAAIAoQhcAAIAoQhcAAIAoQhcAAIAoQhcAAIAoQhcAAIAoQhcAAIAoQhcAAIAoQhcAAIAoQhcAAIAoQhcAAIAoQhcAAIAowziOUx9Dh0k+5jAM/aP9duQU6v9vbrfb5sWqms26f/x65ZVXmher6nvf+17/6HPPPde8+MADDzQvVtUNN9zQvNh/0lbVwcFB8+Krr77avFhVDz30UPPim2++2bxYVV/4wheaF48dO9a8WDvzIHThwoXmxara29trXtxsNs2LVTWfz/tH4d3wRhcAAIAoQhcAAIAoQhcAAIAoQhcAAIAoQhcAAIAoQhcAAIAoQhcAAIAoQhcAAIAoQhcAAIAoQhcAAIAoQhcAAIAoQhcAAIAoQhcAAIAoQhcAAIAoQhcAAIAoQhcAAIAoQhcAAIAoQhcAAIAoQhcAAIAoQhcAAIAoQhcAAIAoQhcAAIAoQhcAAIAoQhcAAIAoQhcAAIAoQhcAAIAoQhcAAIAoQhcAAIAoQhcAAIAoQhcAAIAoQhcAAIAoQhcAAIAoQhcAAIAoQhcAAIAoQhcAAIAoQhcAAIAoQhcAAIAow3q97l+dz+f9o8TYbDb9ozty0vb/bc+cOdO8WFXf/OY3+0e//vWvNy9ec801zYtVNZt1/366v7/fvFhVq9WqeXGSj9nvM5/5TP/oPffc07x47733Ni/WFCct751xHPtHh2HoH4V3wxtdAAAAoghdAAAAoghdAAAAoghdAAAAoghdAAAAoghdAAAAoghdAAAAoghdAAAAoghdAAAAoghdAAAAoghdAAAAoghdAAAAoghdAAAAoghdAAAAoghdAAAAoghdAAAAoghdAAAAoghdAAAAoghdAAAAoghdAAAAoghdAAAAoghdAAAAoghdAAAAoghdAAAAoghdAAAAoghdAAAAoghdAAAAoghdAAAAoghdAAAAoghdAAAAoghdAAAAoghdAAAAoghdAAAAoghdAAAAoghdAAAAoghdAAAAoghdAAAAoghdAAAAoiy2223/6nw+b14cx7F5saqGYegf3QWT/Dd3xLlz55oXf/WrXzUvVtUtt9zSP/rBD36weXG9XjcvVtVs1v376WKxaF6cxCQfs/+/+clPfrJ5saq++93vNi9+7GMfa16sqtVq1T96cHDQvLhcLpsXq2p/f795sf/arJ252ZLEG10AAACiCF0AAACiCF0AAACiCF0AAACiCF0AAACiCF0AAACiCF0AAACiCF0AAACiCF0AAACiCF0AAACiCF0AAACiCF0AAACiCF0AAACiCF0AAACiCF0AAACiCF0AAACiCF0AAACiCF0AAACiCF0AAACiCF0AAACiCF0AAACiCF0AAACiCF0AAACiCF0AAACiCF0AAACiCF0AAACiCF0AAACiCF0AAACiCF0AAACiCF0AAACiCF0AAACiCF0AAACiCF0AAACiCF0AAACiCF0AAACiCF0AAACiCF0AAACiLJbLZf/q/v5+8+JisWhenMQwDFMfAu9vr7/+evPik08+2bxYVZ/97Gf7R/vN5/OpDyHWdrttXpzNJvhherPZNC/eddddzYtV9eUvf7l58YUXXmherKrDhw/3j65Wq/7Rfv1PXzvyWAvvkje6AAAARBG6AAAARBG6AAAARBG6AAAARBG6AAAARBG6AAAARBG6AAAARBG6AAAARBG6AAAARBG6AAAARBG6AAAARBG6AAAARBG6AAAARBG6AAAARBG6AAAARBG6AAAARBG6AAAARBG6AAAARBG6AAAARBG6AAAARBG6AAAARBG6AAAARBG6AAAARBG6AAAARBG6AAAARBG6AAAARBG6AAAARBG6AAAARBG6AAAARBG6AAAARBG6AAAARBG6AAAARBG6AAAARBG6AAAARBG6AAAARBG6AAAARBG6AAAARBG6AAAARFlMsrparSbZjbfZbPpH5/N5/GJVrdfr5sXFYoLL84UXXmhefPXVV5sXq+q6667rH+03DMPUh9BhkvvecrnsH+03m3X/Gj7J48GVV17ZvPiXv/ylebGqTp061T/af3lO8oQwySjwL3mjCwAAQBShCwAAQBShCwAAQBShCwAAQBShCwAAQBShCwAAQBShCwAAQBShCwAAQBShCwAAQBShCwAAQBShCwAAQBShCwAAQBShCwAAQBShCwAAQBShCwAAQBShCwAAQBShCwAAQBShCwAAQBShCwAAQBShCwAAQBShCwAAQBShCwAAQBShCwAAQBShCwAAQBShCwAAQBShCwAAQBShCwAAQBShCwAAQBShCwAAQBShCwAAQBShCwAAQBShCwAAQBShCwAAQBShCwAAQBShCwAAQBShCwAAQBShCwAAQJTF1AeQbBzHqQ8h0zAM/aPz+bx/tN96vW5ePH/+fPNiVR0/frx/tN/BwUH/aP+Vslwumxcnsb+/3z+6Wq36R/tdeeWVzYvnzp1rXqwpbu81xYPQjnxZA/8Ob3QBAACIInQBAACIInQBAACIInQBAACIInQBAACIInQBAACIInQBAACIInQBAACIInQBAACIInQBAACIInQBAACIInQBAACIInQBAACIInQBAACIInQBAACIInQBAACIInQBAACIInQBAACIInQBAACIInQBAACIInQBAACIInQBAACIInQBAACIInQBAACIInQBAACIInQBAACIInQBAACIInQBAACIInQBAACIInQBAACIInQBAACIInQBAACIInQBAACIInQBAACIInQBAACIInQBAACIInQBAACIInQBAACIspj6AJINwxC/OIlxHPtH+/+22+22ebGqjh492rx46NCh5sWqevnll/tHL7/88ubF5XLZvFhVm82meXF/f795sapWq1X8YlUdHBz0j/Y7d+5c8+JFF13UvFhVi8UEj3yTfJEB/B/e6AIAABBF6AIAABBF6AIAABBF6AIAABBF6AIAABBF6AIAABBF6AIAABBF6AIAABBF6AIAABBF6AIAABBF6AIAABBF6AIAABBF6AIAABBF6AIAABBF6AIAABBF6AIAABBF6AIAABBF6AIAABBF6AIAABBF6AIAABBF6AIAABBF6AIAABBF6AIAABBF6AIAABBF6AIAABBF6AIAABBF6AIAABBF6AIAABBF6AIAABBF6AIAABBF6AIAABBF6AIAABBF6AIAABBF6AIAABBF6AIAABBF6AIAABBF6AIAABBlMfUB8J80m+3ELxebzaZ/dLHovliGYWherKpLL720efGqq65qXqyqP/3pT/2jl19+efPiJFfKfD6PX6wp/rbjODYvVtVyuWxePH/+fPNiVT399NPNizfccEPz4lR25LGk//t6khvCJI8l8G7sxA0IAACA3SF0AQAAiCJ0AQAAiCJ0AQAAiCJ0AQAAiCJ0AQAAiCJ0AQAAiCJ0AQAAiCJ0AQAAiCJ0AQAAiCJ0AQAAiCJ0AQAAiCJ0AQAAiCJ0AQAAiCJ0AQAAiCJ0AQAAiCJ0AQAAiCJ0AQAAiCJ0AQAAiCJ0AQAAiCJ0AQAAiCJ0AQAAiCJ0AQAAiCJ0AQAAiCJ0AQAAiCJ0AQAAiCJ0AQAAiCJ0AQAAiCJ0AQAAiCJ0AQAAiCJ0AQAAiCJ0AQAAiCJ0AQAAiCJ0AQAAiCJ0AQAAiCJ0AQAAiCJ0AQAAiCJ0AQAAiLKY+gDgf20224kfaIZh6B+9+OKLmxdPnjzZvFhVv/zlL/tHb7vttubF+XzevLg7+u9Cm82meXESZ86c6R/90Ic+1Lx4xRVXNC9W1Xq97h/tv1J25AlhkhvCYqEaeJ/ZidsBAAAAu0PoAgAAEEXoAgAAEEXoAgAAEEXoAgAAEEXoAgAAEEXoAgAAEEXoAgAAEEXoAgAAEEXoAgAAEEXoAgAAEEXoAgAAEEXoAgAAEEXoAgAAEEXoAgAAEEXoAgAAEEXoAgAAEEXoAgAAEEXoAgAAEEXoAgAAEEXoAgAAEEXoAgAAEEXoAgAAEEXoAgAAEEXoAgAAEEXoAgAAEEXoAgAAEEXoAgAAEEXoAgAAEEXoAgAAEEXoAgAAEEXoAgAAEEXoAgAAEEXoAgAAEEXoAgAAEEXoAgAAEEXoAgAAEGUx9QHwvjeO49SHwH/MpZde2rx4++23Ny9W1de+9rX+0Xvuuad58SMf+Ujz4iQ2m03/6Hw+b15cLCb4vn7uueeaF7/zne80L1bVpz/96ebFQ4cONS/WRKfQJJdnv/4HoUn+m/C+440uAAAAUYQuAAAAUYQuAAAAUYQuAAAAUYQuAAAAUYQuAAAAUYQuAAAAUYQuAAAAUYQuAAAAUYQuAAAAUYQuAAAAUYQuAAAAUYQuAAAAUYQuAAAAUYQuAAAAUYQuAAAAUYQuAAAAUYQuAAAAUYQuAAAAUYQuAAAAUYQuAAAAUYQuAAAAUYQuAAAAUYQuAAAAUYQuAAAAUYQuAAAAUYQuAAAAUYQuAAAAUYQuAAAAUYQuAAAAUYQuAAAAUYQuAAAAUYQuAAAAUYQuAAAAUYQuAAAAUYQuAAAAUYQuAAAAUYQuAAAAURZTHwD8r43juAujwzA0L1bVYtF9T7jxxhubF6vq+uuv7x/90pe+1Lz4+c9/vnmxqj760Y82L67X6+bFmuKG8Le//a15saq++MUvNi++9tprzYtVdccddzQvLpfL5sWpzOfz5sVJnhBmM++N4L+RKxMAAIAoQhcAAIAoQhcAAIAoQhcAAIAoQhcAAIAoQhcAAIAoQhcAAIAoQhcAAIAoQhcAAIAoQhcAAIAoQhcAAIAoQhcAAIAoQhcAAIAoQhcAAIAoQhcAAIAoQhcAAIAoQhcAAIAoQhcAAIAoQhcAAIAoQhcAAIAoQhcAAIAoQhcAAIAoQhcAAIAoQhcAAIAoQhcAAIAoQhcAAIAoQhcAAIAoQhcAAIAoQhcAAIAoQhcAAIAoQhcAAIAoQhcAAIAoQhcAAIAoQhcAAIAoQhcAAIAoQhcAAIAoQhcAAIAoi6kPINl2u21enM0m+OViGIbmxfl83rxYVeM4Ni/2nz81xX/z4osvbl6sqmuvvbZ/9Kmnnmpe/MUvftG8WFWnT59uXrzsssuaF6vq7bffbl588803mxer6uDgoHnxzjvvbF6sKb5T+u+0NdF3Sv9jySR/237r9bp/dLFQDbzPeKMLAABAFKELAABAFKELAABAFKELAABAFKELAABAFKELAABAFKELAABAFKELAABAFKELAABAFKELAABAFKELAABAFKELAABAFKELAABAFKELAABAFKELAABAFKELAABAFKELAABAFKELAABAFKELAABAFKELAABAFKELAABAFKELAABAFKELAABAFKELAABAFKELAABAFKELAABAFKELAABAFKELAABAFKELAABAFKELAABAFKELAABAFKELAABAFKELAABAFKELAABAFKELAABAFKELAABAFKELAABAFKELAABAlMXUB9BkHMcdGd0F2+22f3Q26/5VaL1eNy9W1T//+c/mxbNnzzYvVtWZM2f6R2+44YbmxePHjzcvVtUjjzzSvHju3LnmxZrib3vnnXc2L1bVqVOnmhd//etfNy9W1ZNPPtm8eP311zcvVtXhw4f7R1erVf/oLuh/Jtkdm82meXEYhubFSUxy0rpOAAAAiCJ0AQAAiCJ0AQAAiCJ0AQAAiCJ0AQAAiCJ0AQAAiCJ0AQAAiCJ0AQAAiCJ0AQAAiCJ0AQAAiCJ0AQAAiCJ0AQAAiCJ0AQAAiCJ0AQAAiCJ0AQAAiCJ0AQAAiCJ0AQAAiCJ0AQAAiCJ0AQAAiCJ0AQAAiCJ0AQAAiCJ0AQAAiCJ0AQAAiCJ0AQAAiCJ0AQAAiCJ0AQAAiCJ0AQAAiCJ0AQAAiCJ0AQAAiCJ0AQAAiCJ0AQAAiCJ0AQAAiCJ0AQAAiCJ0AQAAiCJ0AQAAiCJ0AQAAiCJ0AQAAiDKs1+v+1fl83rw4jmPzYlUNw9C8uL+/37xYVcvlsnlxu902L1bVj370o+bF06dPNy9W1SuvvNK8eOTIkebFqnr22Wf7R48dO9a8ePLkyebFmuLy7L/TVtXe3l7z4htvvNG8WFX/+Mc/mhfPnj3bvFhV119/ffPiVVdd1bxYEz0hXH755c2L9913X/NiVd14443Ni4vFonlxEm+++Wb/6NGjR/tHd8EkyemNLgAAAFGELgAAAFGELgAAAFGELgAAAFGELgAAAFGELgAAAFGELgAAAFGELgAAAFGELgAAAFGELgAAAFGELgAAAFGELgAAAFGELgAAAFGELgAAAFGELgAAAFGELgAAAFGELgAAAFGELgAAAFGELgAAAFGELgAAAFGELgAAAFGELgAAAFGELgAAAFGELgAAAFGELgAAAFGELgAAAFGELgAAAFGELgAAAFGELgAAAFGELgAAAFGELgAAAFGELgAAAFGELgAAAFGELgAAAFGELgAAAFGELgAAAFGELgAAAFGELgAAAFGGzWbTvzqbdQf2JB9zGIbmxf4/bFWdO3euefFb3/pW82JN8TFPnTrVvFhVH/jAB5oXr7322ubFqloul/2jb731VvPi3t5e8+Iko/1/2Ko6fPhw8+L+/n7zYk3x33zjjTeaF6vq73//e/Pi+fPnmxdrim+xqnrllVeaF5955pnmxaq65JJLmhcfeOCB5sWquvXWW/tH+/XfbFerVfNiVR0cHDQvTvLo5Y0uAAAAUYQuAAAAUYQuAAAAUYQuAAAAUYQuAAAAUYQuAAAAUYQuAAAAUYQuAAAAUYQuAAAAUYQuAAAAUYQuAAAAUYQuAAAAUYQuAAAAUYQuAAAAUYQuAAAAUYQuAAAAUYQuAAAAUYQuAAAAUYQuAAAAUYQuAAAAUYQuAAAAUYQuAAAAUYQuAAAAUYQuAAAAUYQuAAAAUYQuAAAAUYQuAAAAUYQuAAAAUYQuAAAAUYQuAAAAUYQuAAAAUYQuAAAAUYQuAAAAUYQuAAAAUYQuAAAAUYQuAAAAUYQuAAAAUYZxHKc+hg7r9bp/dLFYNC++8MILzYtV9dWvfrV58ZprrmlerKp77723efHkyZPNi5PYbrf9o7PZBL/x9d+F+m9BvHcmuVL6XbhwoX/08OHD/aP9Jnne22w2zYtPPPFE82JVPf74482LZ8+ebV6sqjvvvLN58f77729erKpDhw71j/brvyEMw9C8WN7oAgAAEEboAgAAEEXoAgAAEEXoAgAAEEXoAgAAEEXoAgAAEEXoAgAAEEXoAgAAEEXoAgAAEEXoAgAAEEXoAgAAEEXoAgAAEEXoAgAAEEXoAgAAEEXoAgAAEEXoAgAAEEXoAgAAEEXoAgAAEEXoAgAAEEXoAgAAEEXoAgAAEEXoAgAAEEXoAgAAEEXoAgAAEEXoAgAAEEXoAgAAEEXoAgAAEEXoAgAAEEXoAgAAEEXoAgAAEEXoAgAAEEXoAgAAEEXoAgAAEEXoAgAAEEXoAgAAEEXoAgAAEEXoAgAAEEXoAgAAEGXYbDb9q+M4Ni/O5/Pmxao6f/588+JXvvKV5sWqOnnyZPPipz71qebFqhqGoXlxuVw2L1bVer1uXlwsFs2LU+m/2U5y39vf329eXK1WzYvwLvXfaWuim23/817/YlXNZt3vjc6ePdu8WFUPP/xw8+Ltt9/evFhV9913X/PiJM97/aa5NvsnAQAA4L0jdAEAAIgidAEAAIgidAEAAIgidAEAAIgidAEAAIgidAEAAIgidAEAAIgidAEAAIgidAEAAIgidAEAAIgidAEAAIgidAEAAIgidAEAAIgidAEAAIgidAEAAIgidAEAAIgidAEAAIgidAEAAIgidAEAAIgidAEAAIgidAEAAIgidAEAAIgidAEAAIgidAEAAIgidAEAAIgidAEAAIgidAEAAIgidAEAAIgidAEAAIgidAEAAIgidAEAAIgidAEAAIgidAEAAIgidAEAAIgidAEAAIgidAEAAIiy2G63E6wuFs2Lm82mebGqvvGNbzQvnjhxonmxqu6///7mxeVy2bxYVcMw9I/225Frczab4De++XzeP9pvtVo1L07yLTaOY/PiJLegSa6UXbAjd4Oa4rztvzYncdttt/WP9j8hPPTQQ82LVXXs2LHmxbvvvrt5sab46pzkC8V3GAAAAFGELgAAAFGELgAAAFGELgAAAFGELgAAAFGELgAAAFGELgAAAFGELgAAAFGELgAAAFGELgAAAFGELgAAAFGELgAAAFGELgAAAFGELgAAAFGELgAAAFGELgAAAFGELgAAAFGELgAAAFGELgAAAFGELgAAAFGELgAAAFGELgAAAFGELgAAAFGELgAAAFGELgAAAFGELgAAAFGELgAAAFGELgAAAFGELgAAAFGELgAAAFGELgAAAFGELgAAAFGELgAAAFGELgAAAFGELgAAAFGELgAAAFGELgAAAFGELgAAAFEWs9lOtO7p06f7R//61782L37uc59rXqyqw4cP94/222w2Ux9Ch/l8Hr9YVeM47sLowcFB82JVrVar5sUd+RbbkZN2GIbmxZri9j7JfW8S/Xeh5XLZvDiJSZ5JbrnllubFRx99tHmxqn772982L3784x9vXqyd+erciQ8JAADA7hC6AAAARBG6AAAARBG6AAAARBG6AAAARBG6AAAARBG6AAAARBG6AAAARBG6AAAARBG6AAAARBG6AAAARBG6AAAARBG6AAAARBG6AAAARBG6AAAARBG6AAAARBG6AAAARBG6AAAARBG6AAAARBG6AAAARBG6AAAARBG6AAAARBG6AAAARBG6AAAARBG6AAAARBG6AAAARBG6AAAARBG6AAAARBG6AAAARBG6AAAARBG6AAAARBG6AAAARBG6AAAARBG6AAAARBG6AAAARBG6AAAARBG6AAAARFlMsrrZbJoXH3nkkebFqrrjjjuaFz/84Q83L1bVMAz9o/3m8/nUh9Ch/9qc5A+73W77R/s/6Wq1al6snTmF1ut18+JiMc339S7oP4X6z5+a6BSazbpfqIzj2LxYUzwI7cgzyV133dU/+uMf/7h58Q9/+EPzYlXddNNN/aP9vNEFAAAgitAFAAAgitAFAAAgitAFAAAgitAFAAAgitAFAAAgitAFAAAgitAFAAAgitAFAAAgitAFAAAgitAFAAAgitAFAAAgitAFAAAgitAFAAAgitAFAAAgitAFAAAgitAFAAAgitAFAAAgitAFAAAgitAFAAAgitAFAAAgitAFAAAgitAFAAAgitAFAAAgitAFAAAgitAFAAAgitAFAAAgitAFAAAgitAFAAAgitAFAAAgitAFAAAgitAFAAAgitAFAAAgitAFAAAgitAFAAAgitAFAAAgitAFAAAgitAFAAAgymIcx/7VM2fONC/u7e01L1bVrbfe2rw4n8+bF3dH/5UyDEPz4lSj/Vwp750d+dsuFoupD4H3sd05f3bkhnBwcNC8uFwumxerarvdNi+eOnWqebGqfvCDHzQvPv/8882LVXXTTTf1j/bzRhcAAIAoQhcAAIAoQhcAAIAoQhcAAIAoQhcAAIAoQhcAAIAoQhcAAIAoQhcAAIAoQhcAAIAoQhcAAIAoQhcAAIAoQhcAAIAoQhcAAIAoQhcAAIAoQhcAAIAoQhcAAIAoQhcAAIAoQhcAAIAoQhcAAIAoQhcAAIAoQhcAAIAoQhcAAIAoQhcAAIAoQhcAAIAoQhcAAIAoQhcAAIAoQhcAAIAoQhcAAIAoQhcAAIAoQhcAAIAoQhcAAIAoQhcAAIAoQhcAAIAoQhcAAIAoQhcAAIAoQhcAAIAoQhcAAIAoi/l83r/62GOPNS9eeumlzYtVdd111zUvDsPQvFhVFy5caF7c29trXqyJ/rb9ZjM/fgG7ZbvdNi/uzp12f3+/eXG1WjUvVtVyuWxe7H/0qimevo4ePdq8WFXr9bp5cbPZNC9OYhzH/tFdudUCAACwI4QuAAAAUYQuAAAAUYQuAAAAUYQuAAAAUYQuAAAAUYQuAAAAUYQuAAAAUYQuAAAAUYQuAAAAUYQuAAAAUYQuAAAAUYQuAAAAUYQuAAAAUYQuAAAAUYQuAAAAUYQuAAAAUYQuAAAAUYQuAAAAUYQuAAAAUYQuAAAAUYQuAAAAUYQuAAAAUYQuAAAAUYQuAAAAUYQuAAAAUYQuAAAAUYQuAAAAUYQuAAAAUYQuAAAAUYQuAAAAUYQuAAAAUYQuAAAAUYQuAAAAUYQuAAAAUYQuAAAAUYQuAAAAUYQuAAAAURZvvfVW/+rvf//75sW77767ebGqLrrooubF7XbbvFhVq9WqeXGSk/YnP/lJ8+K1117bvFhVN998c/PiJCftMAz9o8C/NMm1udlsmhdnswleMzz99NP9oz//+c+bFx988MHmxUns7e31j/Z/X/dfm5OY5L/Zb5LnPW90AQAAiCJ0AQAAiCJ0AQAAiCJ0AQAAiCJ0AQAAiCJ0AQAAiCJ0AQAAiCJ0AQAAiCJ0AQAAiCJ0AQAAiCJ0AQAAiCJ0AQAAiCJ0AQAAiCJ0AQAAiCJ0AQAAiCJ0AQAAiCJ0AQAAiCJ0AQAAiCJ0AQAAiCJ0AQAAiCJ0AQAAiCJ0AQAAiCJ0AQAAiCJ0AQAAiCJ0AQAAiCJ0AQAAiCJ0AQAAiCJ0AQAAiCJ0AQAAiCJ0AQAAiCJ0AQAAiCJ0AQAAiCJ0AQAAiCJ0AQAAiCJ0AQAAiCJ0AQAAiCJ0AQAAiLJ4/vnn+1cvvvji5sVTp041L05is9n0jy6Xy+bFST7mz372s+bFO+64o3mxqm6++ebmxdnMz23AlBaLxdSH0OHZZ5/tH/3+97/fvPjggw82L9YUjyXz+bx5cRJ//vOf+0dXq1Xz4okTJ5oXJzEMQ/+oR0wAAACiCF0AAACiCF0AAACiCF0AAACiCF0AAACiCF0AAACiCF0AAACiCF0AAACiCF0AAACiCF0AAACiCF0AAACiCF0AAACiCF0AAACiCF0AAACiCF0AAACiCF0AAACiCF0AAACiCF0AAACiCF0AAACiCF0AAACiCF0AAACiCF0AAACiCF0AAACiCF0AAACiCF0AAACiCF0AAACiCF0AAACiCF0AAACiCF0AAACiCF0AAACiCF0AAACiCF0AAACiCF0AAACiCF0AAACiCF0AAACiCF0AAACiCF0AAACiCF0AAACiLJ588sn+1SNHjjQvXnLJJc2Lk5jNJvjlYhzH5sXlctm8OMnoJB/z4OCgeXGSj9l/0gL/jkmuzf6vzv47bVXN5/P+0f6/7WazaV6sKf62+/v7zYtVtVqtmhefeOKJ5sWaIlKuvPLK5sVJTBIp3ugCAAAQRegCAAAQRegCAAAQRegCAAAQRegCAAAQRegCAAAQRegCAAAQRegCAAAQRegCAAAQRegCAAAQRegCAAAQRegCAAAQRegCAAAQRegCAAAQRegCAAAQRegCAAAQRegCAAAQRegCAAAQRegCAAAQRegCAAAQRegCAAAQRegCAAAQRegCAAAQRegCAAAQRegCAAAQRegCAAAQRegCAAAQRegCAAAQRegCAAAQRegCAAAQRegCAAAQRegCAAAQRegCAAAQRegCAAAQRegCAAAQRegCAAAQRegCAAAQZfHSSy/1r65Wq+bFkydPNi9OYj6fT30IHcZx7B/d29trXjx06FDzYlUtFov+0X7DMEx9CMDums0meM0wye396NGjzYs78iDU/yBdVev1unnxmWeeaV6sqssuu6x58cSJE82Lk5jk6d0bXQAAAKIIXQAAAKIIXQAAAKIIXQAAAKIIXQAAAKIIXQAAAKIIXQAAAKIIXQAAAKIIXQAAAKIIXQAAAKIIXQAAAKIIXQAAAKIIXQAAAKIIXQAAAKIIXQAAAKIIXQAAAKIIXQAAAKIIXQAAAKIIXQAAAKIIXQAAAKIIXQAAAKIIXQAAAKIIXQAAAKIIXQAAAKIIXQAAAKIIXQAAAKIIXQAAAKIIXQAAAKIIXQAAAKIIXQAAAKIIXQAAAKIIXQAAAKIIXQAAAKIIXQAAAKIIXQAAAKIIXQAAAKIIXQAAAKIIXQAAAKIs3n777f7VZ599tnnxpz/9afNiVR07dqx5cbvdNi9W1Wq1al587bXXmher6o9//GPz4t7eXvNiVZ04caJ58cKFC82LVTWb+Y0P+L/m83nz4iRf1o8//nj/aP/z3mOPPda8WFX9z9IXX3xx82JV/eMf/2hefPnll5sXq+rGG29sXlwul82LkxiGoX/U0x4AAABRhC4AAABRhC4AAABRhC4AAABRhC4AAABRhC4AAABRhC4AAABRhC4AAABRhC4AAABRhC4AAABRhC4AAABRhC4AAABRhC4AAABRhC4AAABRhC4AAABRhC4AAABRhC4AAABRhC4AAABRhC4AAABRhC4AAABRhC4AAABRhC4AAABRhC4AAABRhC4AAABRhC4AAABRhC4AAABRhC4AAABRhC4AAABRhC4AAABRhC4AAABRhC4AAABRhC4AAABRhC4AAABRhC4AAABRhC4AAABRhC4AAABRhC4AAABRFrfeemv/6lNPPdW8+OijjzYvVtWRI0eaFw8ODpoXq2oYhvjFqnr99debF3/3u981L1bVq6++2ry42WyaF2uiUwj4lya5NvvvQsvlsnmxql588cX+0XEcmxcffvjh5sWqms/nzYvvvPNO82JN8ZB54cKF5sWquvrqq/tH+2232+bF2WyC16ve6AIAABBF6AIAABBF6AIAABBF6AIAABBF6AIAABBF6AIAABBF6AIAABBF6AIAABBF6AIAABBF6AIAABBF6AIAABBF6AIAABBF6AIAABBF6AIAABBF6AIAABBF6AIAABBF6AIAABBF6AIAABBF6AIAABBF6AIAABBF6AIAABBF6AIAABBF6AIAABBF6AIAABBF6AIAABBF6AIAABBF6AIAABBF6AIAABBF6AIAABBF6AIAABBF6AIAABBF6AIAABBF6AIAABBF6AIAABBF6AIAABBF6AIAABBF6AIAABBF6AIAABBl2N/f71998cUXmxdfeuml5sWqGoaheXEcx+bFqtput82Lk3zMfv3nT1XNZt0/fk3yMQH+n/7vlP7vzfLV+V7aka/O/lPo8OHDzYtVdfz48fjFqloul/2j/bzRBQAAIIrQBQAAIIrQBQAAIIrQBQAAIIrQBQAAIIrQBQAAIIrQBQAAIIrQBQAAIIrQBQAAIIrQBQAAIIrQBQAAIIrQBQAAIIrQBQAAIIrQBQAAIIrQBQAAIIrQBQAAIIrQBQAAIIrQBQAAIIrQBQAAIIrQBQAAIIrQBQAAIIrQBQAAIIrQBQAAIIrQBQAAIIrQBQAAIIrQBQAAIIrQBQAAIIrQBQAAIIrQBQAAIIrQBQAAIIrQBQAAIIrQBQAAIIrQBQAAIIrQBQAAIIrQBQAAIIrQBQAAIIrQBQAAIMowjuPUx9BhvV73jy4Wi/5RAAD4z9qRZBiGYepDyLTdbvtHvdEFAAAgitAFAAAgitAFAAAgitAFAAAgitAFAAAgitAFAAAgitAFAAAgitAFAAAgitAFAAAgitAFAAAgitAFAAAgitAFAAAgitAFAAAgitAFAAAgitAFAAAgitAFAAAgitAFAAAgitAFAAAgitAFAAAgitAFAAAgitAFAAAgitAFAAAgitAFAAAgitAFAAAgitAFAAAgitAFAAAgitAFAAAgitAFAAAgitAFAAAgitAFAAAgitAFAAAgitAFAAAgitAFAAAgitAFAAAgitAFAAAgitAFAAAgitAFAAAgitAFAAAgyrDZbPpXZzOBzf+/cRynPoQOwzBMfQixduQUAv4dbra870zyLeZK4d3Ybrf9o4ITAACAKEIXAACAKEIXAACAKEIXAACAKEIXAACAKEIXAACAKEIXAACAKEIXAACAKEIXAACAKEIXAACAKEIXAACAKEIXAACAKEIXAACAKEIXAACAKEIXAACAKEIXAACAKEIXAACAKEIXAACAKEIXAACAKEIXAACAKEIXAACAKEIXAACAKEIXAACAKEIXAACAKEIXAACAKEIXAACAKEIXAACAKEIXAACAKEIXAACAKEIXAACAKEIXAACAKEIXAACAKEIXAACAKEIXAACAKEIXAACAKEIXAACAKEIXAACAKMM4jlMfQ4ftdts/Opv5HQEA/l2TPJMMw9A/Cu/GJFfKjiSDp/f3yCTnj/8lAAAAUYQuAAAAUYQuAAAAUYQuAAAAUYQuAAAAUYQuAAAAUYQuAAAAUYQuAAAAUYQuAAAAUYQuAAAAUYQuAAAAUYQuAAAAUYQuAAAAUYQuAAAAUYQuAAAAUYQuAAAAUYQuAAAAUYQuAAAAUYQuAAAAUYQuAAAAUYQuAAAAUYQuAAAAUYQuAAAAUYQuAAAAUYQuAAAAUYQuAAAAUYQuAAAAUYQuAAAAUYQuAAAAUYQuAAAAUYQuAAAAUYQuAAAAUYQuAAAAUYQuAAAAUYQuAAAAUYQuAAAAUYQuAAAAUYQuAAAAUYZxHKc+BgAAADr0B+AkyemNLgAAAFGELgAAAFGELgAAAFGELgAAAFGELgAAAFGELgAAAFGELgAAAFGELgAAAFGELgAAAFGELgAAAFGELgAAAFGELgAAAFGELgAAAFGELgAAAFGELgAAAFGELgAAAFGELgAAAFGELgAAAFGELgAAAFGELgAAAFGELgAAAFGELgAAAFGELgAAAFGELgAAAFGELgAAAFGELgAAAFGELgAAAFGELgAAAFGELgAAAFGELgAAAFGELgAAAFGELgAAAFGELgAAAFGELgAAAFGELgAAAFGELgAAAFGELgAAAFGGg4ODCVaHIX5xktFJPia8G+M4Tn0IwH8L32LvnR252TqF3jubzWbqQ+iwI0/vO3KleKMLAABAFKELAABAFKELAABAFKELAABAFKELAABAFKELAABAFKELAABAFKELAABAFKELAABAFKELAABAFKELAABAFKELAABAFKELAABAFKELAABAFKELAABAFKELAABAFKELAABAFKELAABAFKELAABAFKELAABAFKELAABAFKELAABAFKELAABAFKELAABAFKELAABAFKELAABAFKELAABAFKELAABAFKELAABAFKELAABAFKELAABAFKELAABAFKELAABAFKELAABAFKELAABAFKELAABAFKELAABAFKELAABAlP8ByF4zX6FA/6AAAAAASUVORK5CYII=;strokeColor=none;points=[];labelBackgroundColor=none;rounded=0;html=1;whiteSpace=wrap;fontFamily=Garamond;fontSize=18;" parent="1" vertex="1">
            <mxGeometry x="540" y="272" width="18" height="21" as="geometry" />
          </mxCell>
        </UserObject>
        <UserObject label="" tags="Background" id="129">
          <mxCell style="vsdxID=512;fillColor=none;gradientColor=none;image;aspect=fixed;image=data:image/png,iVBORw0KGgoAAAANSUhEUgAABPgAAAW3CAIAAABSXFjAAAAxhUlEQVR4nO3ZzcttBf338e/aT9d58CgeD2j4lNjxNGjgA6KogyYRIggOGuSgnCVEg2gSNGkQNKhB9RdIVKCDEoKi6NQgO3WSoBAklaA0Sy2PD8enc1177/Ub3Df3tH63+V352a/XP/BZ+7rWWnu99xrGcawdsN1u+0eHYYhf3B39V8qO/DcnuTZns1n/6I6cQpvNpnlxPp83L07inXfe6R89dOhQ/2i//f395sXlctm8WBPdEPrv8JPc3oH/Tm4HAAAARBG6AAAARBG6AAAARBG6AAAARBG6AAAARBG6AAAARBG6AAAARBG6AAAARBG6AAAARBG6AAAARBG6AAAARBG6AAAARBG6AAAARBG6AAAARBG6AAAARBG6AAAARBG6AAAARBG6AAAARBG6AAAARBG6AAAARBG6AAAARBG6AAAARBG6AAAARBG6AAAARBG6AAAARBG6AAAARBG6AAAARBG6AAAARBG6AAAARBG6AAAARBG6AAAARBG6AAAARBG6AAAARBG6AAAARBG6AAAARBG6AAAARBG6AAAARBm22+0Eq8PQP9pvHMfmxR35w+6I/vOnpjiFJvmYO+Lg4KB/dLVaNS+u1+vmxZrivF0ul82Lk3jrrbf6R48cOdK8OMl9b5LR2az7hcokN4TFYtG8OMntfUfuQiTxRhcAAIAoQhcAAIAoQhcAAIAoQhcAAIAoQhcAAIAoQhcAAIAoQhcAAIAoQhcAAIAoQhcAAIAoQhcAAIAoQhcAAIAoQhcAAIAoQhcAAIAoQhcAAIAoQhcAAIAoQhcAAIAoQhcAAIAoQhcAAIAoQhcAAIAoQhcAAIAoQhcAAIAoQhcAAIAoQhcAAIAoQhcAAIAoQhcAAIAoQhcAAIAoQhcAAIAoQhcAAIAoQhcAAIAoQhcAAIAoQhcAAIAoQhcAAIAoQhcAAIAoQhcAAIAoQhcAAIAoQhcAAIAoQhcAAIAoQhcAAIAowziO/aubzaZ5cT6fNy/uju1227w4m+3EDzTr9bp/dLFY9I/yHjl9+nT/6A9/+MPmxTfeeKN5sar29vaaF2+77bbmxar6xCc+0bx4+PDh5sXamWeS/o9ZVcMwNC/uyBMC8O9wOwAAACCK0AUAACCK0AUAACCK0AUAACCK0AUAACCK0AUAACCK0AUAACCK0AUAACCK0AUAACCK0AUAACCK0AUAACCK0AUAACCK0AUAACCK0AUAACCK0AUAACCK0AUAACCK0AUAACCK0AUAACCK0AUAACCK0AUAACCK0AUAACCK0AUAACCK0AUAACCK0AUAACCK0AUAACCK0AUAACCK0AUAACCK0AUAACCK0AUAACCK0AUAACCK0AUAACCK0AUAACCK0AUAACCK0AUAACCK0AUAACCK0AUAACCK0AUAACDKMI7j1MfQYbPZ9I/O5/P+0X7b7bZ5cTbbiR9o1ut1/+hisegf7ff222/3j377299uXvzNb37TvFhVV199dfPiFVdc0bxYU5xCzzzzTPNiVZ08ebJ58YEHHmherKrjx483Lw7D0Lw4lR15Quh/yNyRJ0x4l3YiGAAAANgdQhcAAIAoQhcAAIAoQhcAAIAoQhcAAIAoQhcAAIAoQhcAAIAoQhcAAIAoQhcAAIAoQhcAAIAoQhcAAIAoQhcAAIAoQhcAAIAoQhcAAIAoQhcAAIAoQhcAAIAoQhcAAIAoQhcAAIAoQhcAAIAoQhcAAIAoQhcAAIAoQhcAAIAoQhcAAIAoQhcAAIAoQhcAAIAoQhcAAIAoQhcAAIAoQhcAAIAoQhcAAIAoQhcAAIAoQhcAAIAoQhcAAIAoQhcAAIAoQhcAAIAoQhcAAIAoQhcAAIAoQhcAAIAoQhcAAIAowziOUx9Dh0k+5jAM/aP9duQU6v9vbrfb5sWqms26f/x65ZVXmher6nvf+17/6HPPPde8+MADDzQvVtUNN9zQvNh/0lbVwcFB8+Krr77avFhVDz30UPPim2++2bxYVV/4wheaF48dO9a8WDvzIHThwoXmxara29trXtxsNs2LVTWfz/tH4d3wRhcAAIAoQhcAAIAoQhcAAIAoQhcAAIAoQhcAAIAoQhcAAIAoQhcAAIAoQhcAAIAoQhcAAIAoQhcAAIAoQhcAAIAoQhcAAIAoQhcAAIAoQhcAAIAoQhcAAIAoQhcAAIAoQhcAAIAoQhcAAIAoQhcAAIAoQhcAAIAoQhcAAIAoQhcAAIAoQhcAAIAoQhcAAIAoQhcAAIAoQhcAAIAoQhcAAIAoQhcAAIAoQhcAAIAoQhcAAIAoQhcAAIAoQhcAAIAoQhcAAIAoQhcAAIAoQhcAAIAoQhcAAIAoQhcAAIAow3q97l+dz+f9o8TYbDb9ozty0vb/bc+cOdO8WFXf/OY3+0e//vWvNy9ec801zYtVNZt1/366v7/fvFhVq9WqeXGSj9nvM5/5TP/oPffc07x47733Ni/WFCct751xHPtHh2HoH4V3wxtdAAAAoghdAAAAoghdAAAAoghdAAAAoghdAAAAoghdAAAAoghdAAAAoghdAAAAoghdAAAAoghdAAAAoghdAAAAoghdAAAAoghdAAAAoghdAAAAoghdAAAAoghdAAAAoghdAAAAoghdAAAAoghdAAAAoghdAAAAoghdAAAAoghdAAAAoghdAAAAoghdAAAAoghdAAAAoghdAAAAoghdAAAAoghdAAAAoghdAAAAoghdAAAAoghdAAAAoghdAAAAoghdAAAAoghdAAAAoghdAAAAoghdAAAAoghdAAAAoghdAAAAoiy2223/6nw+b14cx7F5saqGYegf3QWT/Dd3xLlz55oXf/WrXzUvVtUtt9zSP/rBD36weXG9XjcvVtVs1v376WKxaF6cxCQfs/+/+clPfrJ5saq++93vNi9+7GMfa16sqtVq1T96cHDQvLhcLpsXq2p/f795sf/arJ252ZLEG10AAACiCF0AAACiCF0AAACiCF0AAACiCF0AAACiCF0AAACiCF0AAACiCF0AAACiCF0AAACiCF0AAACiCF0AAACiCF0AAACiCF0AAACiCF0AAACiCF0AAACiCF0AAACiCF0AAACiCF0AAACiCF0AAACiCF0AAACiCF0AAACiCF0AAACiCF0AAACiCF0AAACiCF0AAACiCF0AAACiCF0AAACiCF0AAACiCF0AAACiCF0AAACiCF0AAACiCF0AAACiCF0AAACiCF0AAACiCF0AAACiCF0AAACiCF0AAACiLJbLZf/q/v5+8+JisWhenMQwDFMfAu9vr7/+evPik08+2bxYVZ/97Gf7R/vN5/OpDyHWdrttXpzNJvhherPZNC/eddddzYtV9eUvf7l58YUXXmherKrDhw/3j65Wq/7Rfv1PXzvyWAvvkje6AAAARBG6AAAARBG6AAAARBG6AAAARBG6AAAARBG6AAAARBG6AAAARBG6AAAARBG6AAAARBG6AAAARBG6AAAARBG6AAAARBG6AAAARBG6AAAARBG6AAAARBG6AAAARBG6AAAARBG6AAAARBG6AAAARBG6AAAARBG6AAAARBG6AAAARBG6AAAARBG6AAAARBG6AAAARBG6AAAARBG6AAAARBG6AAAARBG6AAAARBG6AAAARBG6AAAARBG6AAAARBG6AAAARBG6AAAARBG6AAAARBG6AAAARBG6AAAARBG6AAAARFlMsrparSbZjbfZbPpH5/N5/GJVrdfr5sXFYoLL84UXXmhefPXVV5sXq+q6667rH+03DMPUh9BhkvvecrnsH+03m3X/Gj7J48GVV17ZvPiXv/ylebGqTp061T/af3lO8oQwySjwL3mjCwAAQBShCwAAQBShCwAAQBShCwAAQBShCwAAQBShCwAAQBShCwAAQBShCwAAQBShCwAAQBShCwAAQBShCwAAQBShCwAAQBShCwAAQBShCwAAQBShCwAAQBShCwAAQBShCwAAQBShCwAAQBShCwAAQBShCwAAQBShCwAAQBShCwAAQBShCwAAQBShCwAAQBShCwAAQBShCwAAQBShCwAAQBShCwAAQBShCwAAQBShCwAAQBShCwAAQBShCwAAQBShCwAAQBShCwAAQBShCwAAQBShCwAAQBShCwAAQJTF1AeQbBzHqQ8h0zAM/aPz+bx/tN96vW5ePH/+fPNiVR0/frx/tN/BwUH/aP+Vslwumxcnsb+/3z+6Wq36R/tdeeWVzYvnzp1rXqwpbu81xYPQjnxZA/8Ob3QBAACIInQBAACIInQBAACIInQBAACIInQBAACIInQBAACIInQBAACIInQBAACIInQBAACIInQBAACIInQBAACIInQBAACIInQBAACIInQBAACIInQBAACIInQBAACIInQBAACIInQBAACIInQBAACIInQBAACIInQBAACIInQBAACIInQBAACIInQBAACIInQBAACIInQBAACIInQBAACIInQBAACIInQBAACIInQBAACIInQBAACIInQBAACIInQBAACIInQBAACIInQBAACIInQBAACIInQBAACIInQBAACIspj6AJINwxC/OIlxHPtH+/+22+22ebGqjh492rx46NCh5sWqevnll/tHL7/88ubF5XLZvFhVm82meXF/f795sapWq1X8YlUdHBz0j/Y7d+5c8+JFF13UvFhVi8UEj3yTfJEB/B/e6AIAABBF6AIAABBF6AIAABBF6AIAABBF6AIAABBF6AIAABBF6AIAABBF6AIAABBF6AIAABBF6AIAABBF6AIAABBF6AIAABBF6AIAABBF6AIAABBF6AIAABBF6AIAABBF6AIAABBF6AIAABBF6AIAABBF6AIAABBF6AIAABBF6AIAABBF6AIAABBF6AIAABBF6AIAABBF6AIAABBF6AIAABBF6AIAABBF6AIAABBF6AIAABBF6AIAABBF6AIAABBF6AIAABBF6AIAABBF6AIAABBF6AIAABBF6AIAABBlMfUB8J80m+3ELxebzaZ/dLHovliGYWherKpLL720efGqq65qXqyqP/3pT/2jl19+efPiJFfKfD6PX6wp/rbjODYvVtVyuWxePH/+fPNiVT399NPNizfccEPz4lR25LGk//t6khvCJI8l8G7sxA0IAACA3SF0AQAAiCJ0AQAAiCJ0AQAAiCJ0AQAAiCJ0AQAAiCJ0AQAAiCJ0AQAAiCJ0AQAAiCJ0AQAAiCJ0AQAAiCJ0AQAAiCJ0AQAAiCJ0AQAAiCJ0AQAAiCJ0AQAAiCJ0AQAAiCJ0AQAAiCJ0AQAAiCJ0AQAAiCJ0AQAAiCJ0AQAAiCJ0AQAAiCJ0AQAAiCJ0AQAAiCJ0AQAAiCJ0AQAAiCJ0AQAAiCJ0AQAAiCJ0AQAAiCJ0AQAAiCJ0AQAAiCJ0AQAAiCJ0AQAAiCJ0AQAAiCJ0AQAAiCJ0AQAAiCJ0AQAAiLKY+gDgf20224kfaIZh6B+9+OKLmxdPnjzZvFhVv/zlL/tHb7vttubF+XzevLg7+u9Cm82meXESZ86c6R/90Ic+1Lx4xRVXNC9W1Xq97h/tv1J25AlhkhvCYqEaeJ/ZidsBAAAAu0PoAgAAEEXoAgAAEEXoAgAAEEXoAgAAEEXoAgAAEEXoAgAAEEXoAgAAEEXoAgAAEEXoAgAAEEXoAgAAEEXoAgAAEEXoAgAAEEXoAgAAEEXoAgAAEEXoAgAAEEXoAgAAEEXoAgAAEEXoAgAAEEXoAgAAEEXoAgAAEEXoAgAAEEXoAgAAEEXoAgAAEEXoAgAAEEXoAgAAEEXoAgAAEEXoAgAAEEXoAgAAEEXoAgAAEEXoAgAAEEXoAgAAEEXoAgAAEEXoAgAAEEXoAgAAEEXoAgAAEEXoAgAAEGUx9QHwvjeO49SHwH/MpZde2rx4++23Ny9W1de+9rX+0Xvuuad58SMf+Ujz4iQ2m03/6Hw+b15cLCb4vn7uueeaF7/zne80L1bVpz/96ebFQ4cONS/WRKfQJJdnv/4HoUn+m/C+440uAAAAUYQuAAAAUYQuAAAAUYQuAAAAUYQuAAAAUYQuAAAAUYQuAAAAUYQuAAAAUYQuAAAAUYQuAAAAUYQuAAAAUYQuAAAAUYQuAAAAUYQuAAAAUYQuAAAAUYQuAAAAUYQuAAAAUYQuAAAAUYQuAAAAUYQuAAAAUYQuAAAAUYQuAAAAUYQuAAAAUYQuAAAAUYQuAAAAUYQuAAAAUYQuAAAAUYQuAAAAUYQuAAAAUYQuAAAAUYQuAAAAUYQuAAAAUYQuAAAAUYQuAAAAUYQuAAAAUYQuAAAAUYQuAAAAUYQuAAAAURZTHwD8r43juAujwzA0L1bVYtF9T7jxxhubF6vq+uuv7x/90pe+1Lz4+c9/vnmxqj760Y82L67X6+bFmuKG8Le//a15saq++MUvNi++9tprzYtVdccddzQvLpfL5sWpzOfz5sVJnhBmM++N4L+RKxMAAIAoQhcAAIAoQhcAAIAoQhcAAIAoQhcAAIAoQhcAAIAoQhcAAIAoQhcAAIAoQhcAAIAoQhcAAIAoQhcAAIAoQhcAAIAoQhcAAIAoQhcAAIAoQhcAAIAoQhcAAIAoQhcAAIAoQhcAAIAoQhcAAIAoQhcAAIAoQhcAAIAoQhcAAIAoQhcAAIAoQhcAAIAoQhcAAIAoQhcAAIAoQhcAAIAoQhcAAIAoQhcAAIAoQhcAAIAoQhcAAIAoQhcAAIAoQhcAAIAoQhcAAIAoQhcAAIAoQhcAAIAoQhcAAIAoi6kPINl2u21enM0m+OViGIbmxfl83rxYVeM4Ni/2nz81xX/z4osvbl6sqmuvvbZ/9Kmnnmpe/MUvftG8WFWnT59uXrzsssuaF6vq7bffbl588803mxer6uDgoHnxzjvvbF6sKb5T+u+0NdF3Sv9jySR/237r9bp/dLFQDbzPeKMLAABAFKELAABAFKELAABAFKELAABAFKELAABAFKELAABAFKELAABAFKELAABAFKELAABAFKELAABAFKELAABAFKELAABAFKELAABAFKELAABAFKELAABAFKELAABAFKELAABAFKELAABAFKELAABAFKELAABAFKELAABAFKELAABAFKELAABAFKELAABAFKELAABAFKELAABAFKELAABAFKELAABAFKELAABAFKELAABAFKELAABAFKELAABAFKELAABAFKELAABAFKELAABAFKELAABAFKELAABAFKELAABAlMXUB9BkHMcdGd0F2+22f3Q26/5VaL1eNy9W1T//+c/mxbNnzzYvVtWZM2f6R2+44YbmxePHjzcvVtUjjzzSvHju3LnmxZrib3vnnXc2L1bVqVOnmhd//etfNy9W1ZNPPtm8eP311zcvVtXhw4f7R1erVf/oLuh/Jtkdm82meXEYhubFSUxy0rpOAAAAiCJ0AQAAiCJ0AQAAiCJ0AQAAiCJ0AQAAiCJ0AQAAiCJ0AQAAiCJ0AQAAiCJ0AQAAiCJ0AQAAiCJ0AQAAiCJ0AQAAiCJ0AQAAiCJ0AQAAiCJ0AQAAiCJ0AQAAiCJ0AQAAiCJ0AQAAiCJ0AQAAiCJ0AQAAiCJ0AQAAiCJ0AQAAiCJ0AQAAiCJ0AQAAiCJ0AQAAiCJ0AQAAiCJ0AQAAiCJ0AQAAiCJ0AQAAiCJ0AQAAiCJ0AQAAiCJ0AQAAiCJ0AQAAiCJ0AQAAiCJ0AQAAiCJ0AQAAiCJ0AQAAiDKs1+v+1fl83rw4jmPzYlUNw9C8uL+/37xYVcvlsnlxu902L1bVj370o+bF06dPNy9W1SuvvNK8eOTIkebFqnr22Wf7R48dO9a8ePLkyebFmuLy7L/TVtXe3l7z4htvvNG8WFX/+Mc/mhfPnj3bvFhV119/ffPiVVdd1bxYEz0hXH755c2L9913X/NiVd14443Ni4vFonlxEm+++Wb/6NGjR/tHd8EkyemNLgAAAFGELgAAAFGELgAAAFGELgAAAFGELgAAAFGELgAAAFGELgAAAFGELgAAAFGELgAAAFGELgAAAFGELgAAAFGELgAAAFGELgAAAFGELgAAAFGELgAAAFGELgAAAFGELgAAAFGELgAAAFGELgAAAFGELgAAAFGELgAAAFGELgAAAFGELgAAAFGELgAAAFGELgAAAFGELgAAAFGELgAAAFGELgAAAFGELgAAAFGELgAAAFGELgAAAFGELgAAAFGELgAAAFGELgAAAFGELgAAAFGELgAAAFGELgAAAFGELgAAAFGGzWbTvzqbdQf2JB9zGIbmxf4/bFWdO3euefFb3/pW82JN8TFPnTrVvFhVH/jAB5oXr7322ubFqloul/2jb731VvPi3t5e8+Iko/1/2Ko6fPhw8+L+/n7zYk3x33zjjTeaF6vq73//e/Pi+fPnmxdrim+xqnrllVeaF5955pnmxaq65JJLmhcfeOCB5sWquvXWW/tH+/XfbFerVfNiVR0cHDQvTvLo5Y0uAAAAUYQuAAAAUYQuAAAAUYQuAAAAUYQuAAAAUYQuAAAAUYQuAAAAUYQuAAAAUYQuAAAAUYQuAAAAUYQuAAAAUYQuAAAAUYQuAAAAUYQuAAAAUYQuAAAAUYQuAAAAUYQuAAAAUYQuAAAAUYQuAAAAUYQuAAAAUYQuAAAAUYQuAAAAUYQuAAAAUYQuAAAAUYQuAAAAUYQuAAAAUYQuAAAAUYQuAAAAUYQuAAAAUYQuAAAAUYQuAAAAUYQuAAAAUYQuAAAAUYQuAAAAUYQuAAAAUYQuAAAAUYQuAAAAUYZxHKc+hg7r9bp/dLFYNC++8MILzYtV9dWvfrV58ZprrmlerKp77723efHkyZPNi5PYbrf9o7PZBL/x9d+F+m9BvHcmuVL6XbhwoX/08OHD/aP9Jnne22w2zYtPPPFE82JVPf74482LZ8+ebV6sqjvvvLN58f77729erKpDhw71j/brvyEMw9C8WN7oAgAAEEboAgAAEEXoAgAAEEXoAgAAEEXoAgAAEEXoAgAAEEXoAgAAEEXoAgAAEEXoAgAAEEXoAgAAEEXoAgAAEEXoAgAAEEXoAgAAEEXoAgAAEEXoAgAAEEXoAgAAEEXoAgAAEEXoAgAAEEXoAgAAEEXoAgAAEEXoAgAAEEXoAgAAEEXoAgAAEEXoAgAAEEXoAgAAEEXoAgAAEEXoAgAAEEXoAgAAEEXoAgAAEEXoAgAAEEXoAgAAEEXoAgAAEEXoAgAAEEXoAgAAEEXoAgAAEEXoAgAAEEXoAgAAEEXoAgAAEGXYbDb9q+M4Ni/O5/Pmxao6f/588+JXvvKV5sWqOnnyZPPipz71qebFqhqGoXlxuVw2L1bVer1uXlwsFs2LU+m/2U5y39vf329eXK1WzYvwLvXfaWuim23/817/YlXNZt3vjc6ePdu8WFUPP/xw8+Ltt9/evFhV9913X/PiJM97/aa5NvsnAQAA4L0jdAEAAIgidAEAAIgidAEAAIgidAEAAIgidAEAAIgidAEAAIgidAEAAIgidAEAAIgidAEAAIgidAEAAIgidAEAAIgidAEAAIgidAEAAIgidAEAAIgidAEAAIgidAEAAIgidAEAAIgidAEAAIgidAEAAIgidAEAAIgidAEAAIgidAEAAIgidAEAAIgidAEAAIgidAEAAIgidAEAAIgidAEAAIgidAEAAIgidAEAAIgidAEAAIgidAEAAIgidAEAAIgidAEAAIgidAEAAIgidAEAAIgidAEAAIiy2G63E6wuFs2Lm82mebGqvvGNbzQvnjhxonmxqu6///7mxeVy2bxYVcMw9I/225Frczab4De++XzeP9pvtVo1L07yLTaOY/PiJLegSa6UXbAjd4Oa4rztvzYncdttt/WP9j8hPPTQQ82LVXXs2LHmxbvvvrt5sab46pzkC8V3GAAAAFGELgAAAFGELgAAAFGELgAAAFGELgAAAFGELgAAAFGELgAAAFGELgAAAFGELgAAAFGELgAAAFGELgAAAFGELgAAAFGELgAAAFGELgAAAFGELgAAAFGELgAAAFGELgAAAFGELgAAAFGELgAAAFGELgAAAFGELgAAAFGELgAAAFGELgAAAFGELgAAAFGELgAAAFGELgAAAFGELgAAAFGELgAAAFGELgAAAFGELgAAAFGELgAAAFGELgAAAFGELgAAAFGELgAAAFGELgAAAFGELgAAAFGELgAAAFGELgAAAFEWs9lOtO7p06f7R//61782L37uc59rXqyqw4cP94/222w2Ux9Ch/l8Hr9YVeM47sLowcFB82JVrVar5sUd+RbbkZN2GIbmxZri9j7JfW8S/Xeh5XLZvDiJSZ5JbrnllubFRx99tHmxqn772982L3784x9vXqyd+erciQ8JAADA7hC6AAAARBG6AAAARBG6AAAARBG6AAAARBG6AAAARBG6AAAARBG6AAAARBG6AAAARBG6AAAARBG6AAAARBG6AAAARBG6AAAARBG6AAAARBG6AAAARBG6AAAARBG6AAAARBG6AAAARBG6AAAARBG6AAAARBG6AAAARBG6AAAARBG6AAAARBG6AAAARBG6AAAARBG6AAAARBG6AAAARBG6AAAARBG6AAAARBG6AAAARBG6AAAARBG6AAAARBG6AAAARBG6AAAARBG6AAAARBG6AAAARBG6AAAARFlMsrrZbJoXH3nkkebFqrrjjjuaFz/84Q83L1bVMAz9o/3m8/nUh9Ch/9qc5A+73W77R/s/6Wq1al6snTmF1ut18+JiMc339S7oP4X6z5+a6BSazbpfqIzj2LxYUzwI7cgzyV133dU/+uMf/7h58Q9/+EPzYlXddNNN/aP9vNEFAAAgitAFAAAgitAFAAAgitAFAAAgitAFAAAgitAFAAAgitAFAAAgitAFAAAgitAFAAAgitAFAAAgitAFAAAgitAFAAAgitAFAAAgitAFAAAgitAFAAAgitAFAAAgitAFAAAgitAFAAAgitAFAAAgitAFAAAgitAFAAAgitAFAAAgitAFAAAgitAFAAAgitAFAAAgitAFAAAgitAFAAAgitAFAAAgitAFAAAgitAFAAAgitAFAAAgitAFAAAgitAFAAAgitAFAAAgitAFAAAgitAFAAAgitAFAAAgitAFAAAgymIcx/7VM2fONC/u7e01L1bVrbfe2rw4n8+bF3dH/5UyDEPz4lSj/Vwp750d+dsuFoupD4H3sd05f3bkhnBwcNC8uFwumxerarvdNi+eOnWqebGqfvCDHzQvPv/8882LVXXTTTf1j/bzRhcAAIAoQhcAAIAoQhcAAIAoQhcAAIAoQhcAAIAoQhcAAIAoQhcAAIAoQhcAAIAoQhcAAIAoQhcAAIAoQhcAAIAoQhcAAIAoQhcAAIAoQhcAAIAoQhcAAIAoQhcAAIAoQhcAAIAoQhcAAIAoQhcAAIAoQhcAAIAoQhcAAIAoQhcAAIAoQhcAAIAoQhcAAIAoQhcAAIAoQhcAAIAoQhcAAIAoQhcAAIAoQhcAAIAoQhcAAIAoQhcAAIAoQhcAAIAoQhcAAIAoQhcAAIAoQhcAAIAoQhcAAIAoQhcAAIAoi/l83r/62GOPNS9eeumlzYtVdd111zUvDsPQvFhVFy5caF7c29trXqyJ/rb9ZjM/fgG7ZbvdNi/uzp12f3+/eXG1WjUvVtVyuWxe7H/0qimevo4ePdq8WFXr9bp5cbPZNC9OYhzH/tFdudUCAACwI4QuAAAAUYQuAAAAUYQuAAAAUYQuAAAAUYQuAAAAUYQuAAAAUYQuAAAAUYQuAAAAUYQuAAAAUYQuAAAAUYQuAAAAUYQuAAAAUYQuAAAAUYQuAAAAUYQuAAAAUYQuAAAAUYQuAAAAUYQuAAAAUYQuAAAAUYQuAAAAUYQuAAAAUYQuAAAAUYQuAAAAUYQuAAAAUYQuAAAAUYQuAAAAUYQuAAAAUYQuAAAAUYQuAAAAUYQuAAAAUYQuAAAAUYQuAAAAUYQuAAAAUYQuAAAAUYQuAAAAUYQuAAAAUYQuAAAAURZvvfVW/+rvf//75sW77767ebGqLrrooubF7XbbvFhVq9WqeXGSk/YnP/lJ8+K1117bvFhVN998c/PiJCftMAz9o8C/NMm1udlsmhdnswleMzz99NP9oz//+c+bFx988MHmxUns7e31j/Z/X/dfm5OY5L/Zb5LnPW90AQAAiCJ0AQAAiCJ0AQAAiCJ0AQAAiCJ0AQAAiCJ0AQAAiCJ0AQAAiCJ0AQAAiCJ0AQAAiCJ0AQAAiCJ0AQAAiCJ0AQAAiCJ0AQAAiCJ0AQAAiCJ0AQAAiCJ0AQAAiCJ0AQAAiCJ0AQAAiCJ0AQAAiCJ0AQAAiCJ0AQAAiCJ0AQAAiCJ0AQAAiCJ0AQAAiCJ0AQAAiCJ0AQAAiCJ0AQAAiCJ0AQAAiCJ0AQAAiCJ0AQAAiCJ0AQAAiCJ0AQAAiCJ0AQAAiCJ0AQAAiCJ0AQAAiCJ0AQAAiCJ0AQAAiLJ4/vnn+1cvvvji5sVTp041L05is9n0jy6Xy+bFST7mz372s+bFO+64o3mxqm6++ebmxdnMz23AlBaLxdSH0OHZZ5/tH/3+97/fvPjggw82L9YUjyXz+bx5cRJ//vOf+0dXq1Xz4okTJ5oXJzEMQ/+oR0wAAACiCF0AAACiCF0AAACiCF0AAACiCF0AAACiCF0AAACiCF0AAACiCF0AAACiCF0AAACiCF0AAACiCF0AAACiCF0AAACiCF0AAACiCF0AAACiCF0AAACiCF0AAACiCF0AAACiCF0AAACiCF0AAACiCF0AAACiCF0AAACiCF0AAACiCF0AAACiCF0AAACiCF0AAACiCF0AAACiCF0AAACiCF0AAACiCF0AAACiCF0AAACiCF0AAACiCF0AAACiCF0AAACiCF0AAACiCF0AAACiCF0AAACiCF0AAACiCF0AAACiLJ588sn+1SNHjjQvXnLJJc2Lk5jNJvjlYhzH5sXlctm8OMnoJB/z4OCgeXGSj9l/0gL/jkmuzf6vzv47bVXN5/P+0f6/7WazaV6sKf62+/v7zYtVtVqtmhefeOKJ5sWaIlKuvPLK5sVJTBIp3ugCAAAQRegCAAAQRegCAAAQRegCAAAQRegCAAAQRegCAAAQRegCAAAQRegCAAAQRegCAAAQRegCAAAQRegCAAAQRegCAAAQRegCAAAQRegCAAAQRegCAAAQRegCAAAQRegCAAAQRegCAAAQRegCAAAQRegCAAAQRegCAAAQRegCAAAQRegCAAAQRegCAAAQRegCAAAQRegCAAAQRegCAAAQRegCAAAQRegCAAAQRegCAAAQRegCAAAQRegCAAAQRegCAAAQRegCAAAQRegCAAAQRegCAAAQRegCAAAQZfHSSy/1r65Wq+bFkydPNi9OYj6fT30IHcZx7B/d29trXjx06FDzYlUtFov+0X7DMEx9CMDums0meM0wye396NGjzYs78iDU/yBdVev1unnxmWeeaV6sqssuu6x58cSJE82Lk5jk6d0bXQAAAKIIXQAAAKIIXQAAAKIIXQAAAKIIXQAAAKIIXQAAAKIIXQAAAKIIXQAAAKIIXQAAAKIIXQAAAKIIXQAAAKIIXQAAAKIIXQAAAKIIXQAAAKIIXQAAAKIIXQAAAKIIXQAAAKIIXQAAAKIIXQAAAKIIXQAAAKIIXQAAAKIIXQAAAKIIXQAAAKIIXQAAAKIIXQAAAKIIXQAAAKIIXQAAAKIIXQAAAKIIXQAAAKIIXQAAAKIIXQAAAKIIXQAAAKIIXQAAAKIIXQAAAKIIXQAAAKIIXQAAAKIIXQAAAKIIXQAAAKIs3n777f7VZ599tnnxpz/9afNiVR07dqx5cbvdNi9W1Wq1al587bXXmher6o9//GPz4t7eXvNiVZ04caJ58cKFC82LVTWb+Y0P+L/m83nz4iRf1o8//nj/aP/z3mOPPda8WFX9z9IXX3xx82JV/eMf/2hefPnll5sXq+rGG29sXlwul82LkxiGoX/U0x4AAABRhC4AAABRhC4AAABRhC4AAABRhC4AAABRhC4AAABRhC4AAABRhC4AAABRhC4AAABRhC4AAABRhC4AAABRhC4AAABRhC4AAABRhC4AAABRhC4AAABRhC4AAABRhC4AAABRhC4AAABRhC4AAABRhC4AAABRhC4AAABRhC4AAABRhC4AAABRhC4AAABRhC4AAABRhC4AAABRhC4AAABRhC4AAABRhC4AAABRhC4AAABRhC4AAABRhC4AAABRhC4AAABRhC4AAABRhC4AAABRhC4AAABRhC4AAABRFrfeemv/6lNPPdW8+OijjzYvVtWRI0eaFw8ODpoXq2oYhvjFqnr99debF3/3u981L1bVq6++2ry42WyaF2uiUwj4lya5NvvvQsvlsnmxql588cX+0XEcmxcffvjh5sWqms/nzYvvvPNO82JN8ZB54cKF5sWquvrqq/tH+2232+bF2WyC16ve6AIAABBF6AIAABBF6AIAABBF6AIAABBF6AIAABBF6AIAABBF6AIAABBF6AIAABBF6AIAABBF6AIAABBF6AIAABBF6AIAABBF6AIAABBF6AIAABBF6AIAABBF6AIAABBF6AIAABBF6AIAABBF6AIAABBF6AIAABBF6AIAABBF6AIAABBF6AIAABBF6AIAABBF6AIAABBF6AIAABBF6AIAABBF6AIAABBF6AIAABBF6AIAABBF6AIAABBF6AIAABBF6AIAABBF6AIAABBF6AIAABBF6AIAABBF6AIAABBF6AIAABBl2N/f71998cUXmxdfeuml5sWqGoaheXEcx+bFqtput82Lk3zMfv3nT1XNZt0/fk3yMQH+n/7vlP7vzfLV+V7aka/O/lPo8OHDzYtVdfz48fjFqloul/2j/bzRBQAAIIrQBQAAIIrQBQAAIIrQBQAAIIrQBQAAIIrQBQAAIIrQBQAAIIrQBQAAIIrQBQAAIIrQBQAAIIrQBQAAIIrQBQAAIIrQBQAAIIrQBQAAIIrQBQAAIIrQBQAAIIrQBQAAIIrQBQAAIIrQBQAAIIrQBQAAIIrQBQAAIIrQBQAAIIrQBQAAIIrQBQAAIIrQBQAAIIrQBQAAIIrQBQAAIIrQBQAAIIrQBQAAIIrQBQAAIIrQBQAAIIrQBQAAIIrQBQAAIIrQBQAAIIrQBQAAIIrQBQAAIIrQBQAAIMowjuPUx9BhvV73jy4Wi/5RAAD4z9qRZBiGYepDyLTdbvtHvdEFAAAgitAFAAAgitAFAAAgitAFAAAgitAFAAAgitAFAAAgitAFAAAgitAFAAAgitAFAAAgitAFAAAgitAFAAAgitAFAAAgitAFAAAgitAFAAAgitAFAAAgitAFAAAgitAFAAAgitAFAAAgitAFAAAgitAFAAAgitAFAAAgitAFAAAgitAFAAAgitAFAAAgitAFAAAgitAFAAAgitAFAAAgitAFAAAgitAFAAAgitAFAAAgitAFAAAgitAFAAAgitAFAAAgitAFAAAgitAFAAAgitAFAAAgitAFAAAgitAFAAAgyrDZbPpXZzOBzf+/cRynPoQOwzBMfQixduQUAv4dbra870zyLeZK4d3Ybrf9o4ITAACAKEIXAACAKEIXAACAKEIXAACAKEIXAACAKEIXAACAKEIXAACAKEIXAACAKEIXAACAKEIXAACAKEIXAACAKEIXAACAKEIXAACAKEIXAACAKEIXAACAKEIXAACAKEIXAACAKEIXAACAKEIXAACAKEIXAACAKEIXAACAKEIXAACAKEIXAACAKEIXAACAKEIXAACAKEIXAACAKEIXAACAKEIXAACAKEIXAACAKEIXAACAKEIXAACAKEIXAACAKEIXAACAKEIXAACAKEIXAACAKEIXAACAKEIXAACAKMM4jlMfQ4ftdts/Opv5HQEA/l2TPJMMw9A/Cu/GJFfKjiSDp/f3yCTnj/8lAAAAUYQuAAAAUYQuAAAAUYQuAAAAUYQuAAAAUYQuAAAAUYQuAAAAUYQuAAAAUYQuAAAAUYQuAAAAUYQuAAAAUYQuAAAAUYQuAAAAUYQuAAAAUYQuAAAAUYQuAAAAUYQuAAAAUYQuAAAAUYQuAAAAUYQuAAAAUYQuAAAAUYQuAAAAUYQuAAAAUYQuAAAAUYQuAAAAUYQuAAAAUYQuAAAAUYQuAAAAUYQuAAAAUYQuAAAAUYQuAAAAUYQuAAAAUYQuAAAAUYQuAAAAUYQuAAAAUYQuAAAAUYQuAAAAUYQuAAAAUYZxHKc+BgAAADr0B+AkyemNLgAAAFGELgAAAFGELgAAAFGELgAAAFGELgAAAFGELgAAAFGELgAAAFGELgAAAFGELgAAAFGELgAAAFGELgAAAFGELgAAAFGELgAAAFGELgAAAFGELgAAAFGELgAAAFGELgAAAFGELgAAAFGELgAAAFGELgAAAFGELgAAAFGELgAAAFGELgAAAFGELgAAAFGELgAAAFGELgAAAFGELgAAAFGELgAAAFGELgAAAFGELgAAAFGELgAAAFGELgAAAFGELgAAAFGELgAAAFGELgAAAFGELgAAAFGELgAAAFGGg4ODCVaHIX5xktFJPia8G+M4Tn0IwH8L32LvnR252TqF3jubzWbqQ+iwI0/vO3KleKMLAABAFKELAABAFKELAABAFKELAABAFKELAABAFKELAABAFKELAABAFKELAABAFKELAABAFKELAABAFKELAABAFKELAABAFKELAABAFKELAABAFKELAABAFKELAABAFKELAABAFKELAABAFKELAABAFKELAABAFKELAABAFKELAABAFKELAABAFKELAABAFKELAABAFKELAABAFKELAABAFKELAABAFKELAABAFKELAABAFKELAABAFKELAABAFKELAABAFKELAABAFKELAABAFKELAABAFKELAABAFKELAABAlP8ByF4zX6FA/6AAAAAASUVORK5CYII=;strokeColor=none;points=[];labelBackgroundColor=none;rounded=0;html=1;whiteSpace=wrap;fontFamily=Garamond;fontSize=18;" parent="1" vertex="1">
            <mxGeometry x="927" y="272" width="18" height="21" as="geometry" />
          </mxCell>
        </UserObject>
        <UserObject label="" tags="Background" id="130">
          <mxCell style="vsdxID=517;fillColor=none;gradientColor=none;points=[];labelBackgroundColor=none;rounded=0;strokeColor=none;html=1;whiteSpace=wrap;fontFamily=Garamond;fontSize=18;" parent="1" vertex="1">
            <mxGeometry x="1219" y="75" width="41" height="53" as="geometry" />
          </mxCell>
        </UserObject>
        <mxCell id="131" style="vsdxID=513;fillColor=none;gradientColor=none;spacingTop=-1;spacingBottom=-1;spacingLeft=-1;spacingRight=-1;points=[[0.5,0.5,0],[0.5,0,0],[1,0.5,0]];labelBackgroundColor=none;rounded=0;strokeColor=none;html=1;whiteSpace=wrap;fontFamily=Garamond;fontSize=18;" parent="130" vertex="1">
          <mxGeometry width="41" height="53" as="geometry" />
        </mxCell>
        <mxCell id="132" value="&lt;div&gt;&lt;/div&gt;" style="verticalAlign=top;align=center;overflow=width;vsdxID=514;fillColor=#FFFFFF;gradientColor=none;shape=stencil(rZLbDoMgDIafpremA2O8d+49TEQhY2CQnd5+YLPMkC0Gs7sevpL25wfezLKbBDCcvbNncVe9l8CPwJgyUjjlQwS8Bd4M1onR2avpKZ+6SMboYm/xhQfNHRDjDMMn5awu6qVwIlors6Krcj+Mv0ncB753/4qmh2XB6WEbmlVF+Q8ZstTN+7itlUPwccigtCaDrfupo0KJ3MjbFw==);spacingTop=-1;spacingBottom=-1;spacingLeft=-1;spacingRight=-1;points=[[0,0.5,0],[0.5,1,0],[0.5,0,0],[1,0.5,0]];labelBackgroundColor=none;rounded=0;html=1;whiteSpace=wrap;fontFamily=Garamond;fontSize=18;" parent="131" vertex="1">
          <mxGeometry width="41" height="53" as="geometry" />
        </mxCell>
        <mxCell id="133" value="&lt;div&gt;&lt;font style=&quot;color: rgb(0, 0, 0); direction: ltr; letter-spacing: 0px; line-height: 120%; opacity: 1;&quot;&gt;Request &lt;br&gt;Template&lt;br&gt;&lt;/font&gt;&lt;/div&gt;" style="text;vsdxID=513;fillColor=none;gradientColor=none;spacingTop=-1;spacingBottom=-1;spacingLeft=-1;spacingRight=-1;points=[[0.5,0.5,0],[0.5,0,0],[1,0.5,0]];labelBackgroundColor=none;rounded=0;strokeColor=none;html=1;whiteSpace=wrap;verticalAlign=top;align=center;overflow=width;;html=1;fontFamily=Garamond;fontSize=18;" parent="131" vertex="1">
          <mxGeometry x="-7.75" y="53" width="56.78" height="36.13" as="geometry" />
        </mxCell>
        <mxCell id="134" style="vsdxID=516;fillColor=#000000;gradientColor=none;shape=stencil(pZFLDsIwDERP421lnEaIdSn3qNSURISkSkOB25NgVfzUCsRuxn6ehQdENeimV0A4xOAP6mzaqEFsgcg4rYKJSYGoQVSdD2of/Mm17Psmk1kd/ZgTLnyH+YLwyo7k3e6YtMbNkusFspRFKf+gV4jz+LScYIkFbn5JX8j+hL9/yCuZxOPjnbGWC3vevzeURtyuqG8=);strokeColor=none;spacingTop=-1;spacingBottom=-1;spacingLeft=-1;spacingRight=-1;points=[[0.5,0.5,0]];labelBackgroundColor=none;rounded=0;html=1;whiteSpace=wrap;fontFamily=Garamond;fontSize=18;" parent="130" vertex="1">
          <mxGeometry x="4" y="6" width="16" height="15" as="geometry" />
        </mxCell>
        <mxCell id="135" style="fontFamily=Garamond;fontSize=18;" parent="1" vertex="1">
          <mxGeometry x="1219" y="118" as="geometry" />
        </mxCell>
        <UserObject label="&lt;div&gt;&lt;/div&gt;" tags="Connector" id="136">
          <mxCell style="vsdxID=518;edgeStyle=none;dashed=1;startFill=0;startArrow=oval;endFill=0;endArrow=block;startSize=3;endSize=3;spacingTop=0;spacingBottom=0;spacingLeft=0;spacingRight=0;verticalAlign=middle;html=1;labelBackgroundColor=#ffffff;rounded=1;align=center;exitX=1;exitY=0.75;exitDx=0;exitDy=0;exitPerimeter=0;jumpStyle=arc;fontFamily=Garamond;fontSize=18;" parent="1" source="79" target="135" edge="1">
            <mxGeometry relative="1" as="geometry">
              <mxPoint as="offset" />
              <Array as="points">
                <mxPoint x="1188.71" y="118" />
              </Array>
            </mxGeometry>
          </mxCell>
        </UserObject>
        <UserObject label="&lt;div&gt;&lt;/div&gt;" tags="Connector" id="137">
          <mxCell style="vsdxID=479;edgeStyle=none;startArrow=none;endArrow=block;startSize=3;endSize=3;spacingTop=0;spacingBottom=0;spacingLeft=0;spacingRight=0;verticalAlign=middle;html=1;labelBackgroundColor=#ffffff;rounded=1;align=center;exitX=0.49696969696969695;exitY=0;exitDx=0;exitDy=0;exitPerimeter=0;entryX=0.5;entryY=0;entryDx=0;entryDy=0;entryPerimeter=0;fontFamily=Garamond;fontSize=18;" parent="1" source="113" target="64" edge="1">
            <mxGeometry relative="1" as="geometry">
              <mxPoint as="offset" />
              <Array as="points">
                <mxPoint x="1193" y="37.59" />
                <mxPoint x="806.18" y="37.59" />
              </Array>
            </mxGeometry>
          </mxCell>
        </UserObject>
        <UserObject label="&lt;div&gt;&lt;/div&gt;" tags="Connector" id="138">
          <mxCell style="vsdxID=478;edgeStyle=none;startArrow=none;endArrow=block;startSize=3;endSize=3;spacingTop=0;spacingBottom=0;spacingLeft=0;spacingRight=0;verticalAlign=middle;html=1;labelBackgroundColor=#ffffff;rounded=1;align=center;exitX=1;exitY=0.5;exitDx=0;exitDy=0;exitPerimeter=0;entryX=0.49696969696969695;entryY=1;entryDx=0;entryDy=0;entryPerimeter=0;fontFamily=Garamond;fontSize=18;" parent="1" source="97" target="113" edge="1">
            <mxGeometry relative="1" as="geometry">
              <mxPoint x="-3" as="offset" />
              <Array as="points">
                <mxPoint x="1192.95" y="306" />
              </Array>
            </mxGeometry>
          </mxCell>
        </UserObject>
        <UserObject label="&lt;div&gt;&lt;/div&gt;" tags="Connector" id="139">
          <mxCell style="vsdxID=477;edgeStyle=none;startArrow=none;endArrow=block;startSize=3;endSize=3;spacingTop=0;spacingBottom=0;spacingLeft=0;spacingRight=0;verticalAlign=middle;html=1;labelBackgroundColor=#ffffff;rounded=1;align=center;exitX=0.503030303030303;exitY=1;exitDx=0;exitDy=0;exitPerimeter=0;entryX=0.503030303030303;entryY=0;entryDx=0;entryDy=0;entryPerimeter=0;fontFamily=Garamond;fontSize=18;" parent="1" source="70" target="97" edge="1">
            <mxGeometry relative="1" as="geometry">
              <mxPoint x="12" y="-1" as="offset" />
              <Array as="points" />
            </mxGeometry>
          </mxCell>
        </UserObject>
        <UserObject label="&lt;div&gt;&lt;/div&gt;" tags="Connector" id="140">
          <mxCell style="vsdxID=476;edgeStyle=none;startArrow=none;endArrow=block;startSize=3;endSize=3;spacingTop=0;spacingBottom=0;spacingLeft=0;spacingRight=0;verticalAlign=middle;html=1;labelBackgroundColor=#ffffff;rounded=1;align=center;exitX=0.503030303030303;exitY=1;exitDx=0;exitDy=0;exitPerimeter=0;entryX=1;entryY=0.5;entryDx=0;entryDy=0;entryPerimeter=0;fontFamily=Garamond;fontSize=18;" parent="1" source="55" target="88" edge="1">
            <mxGeometry relative="1" as="geometry">
              <mxPoint x="-3" as="offset" />
              <Array as="points">
                <mxPoint x="794" y="306.2" />
              </Array>
            </mxGeometry>
          </mxCell>
        </UserObject>
        <UserObject label="&lt;div&gt;&lt;/div&gt;" tags="Connector" id="141">
          <mxCell style="vsdxID=475;edgeStyle=none;startArrow=none;endArrow=block;startSize=3;endSize=3;spacingTop=0;spacingBottom=0;spacingLeft=0;spacingRight=0;verticalAlign=middle;html=1;labelBackgroundColor=#ffffff;rounded=1;align=center;exitX=0;exitY=0.5;exitDx=0;exitDy=0;exitPerimeter=0;entryX=0.5406698564593302;entryY=1;entryDx=0;entryDy=0;entryPerimeter=0;fontFamily=Garamond;fontSize=18;" parent="1" source="88" target="46" edge="1">
            <mxGeometry relative="1" as="geometry">
              <mxPoint y="-3" as="offset" />
              <Array as="points">
                <mxPoint x="472.15" y="306" />
              </Array>
            </mxGeometry>
          </mxCell>
        </UserObject>
        <UserObject label="&lt;div&gt;&lt;/div&gt;" tags="Connector" id="142">
          <mxCell style="vsdxID=474;edgeStyle=none;startArrow=none;endArrow=block;startSize=3;endSize=3;spacingTop=0;spacingBottom=0;spacingLeft=0;spacingRight=0;verticalAlign=middle;html=1;labelBackgroundColor=#ffffff;rounded=1;align=center;exitX=1;exitY=0.5;exitDx=0;exitDy=0;exitPerimeter=0;entryX=0.24880382775119617;entryY=1;entryDx=0;entryDy=0;entryPerimeter=0;fontFamily=Garamond;fontSize=18;" parent="1" source="16" target="46" edge="1">
            <mxGeometry relative="1" as="geometry">
              <mxPoint y="-3" as="offset" />
              <Array as="points">
                <mxPoint x="411.44" y="307" />
              </Array>
            </mxGeometry>
          </mxCell>
        </UserObject>
        <UserObject label="&lt;div&gt;&lt;/div&gt;" tags="Connector" id="143">
          <mxCell style="vsdxID=473;edgeStyle=none;startArrow=none;endArrow=block;startSize=3;endSize=3;spacingTop=0;spacingBottom=0;spacingLeft=0;spacingRight=0;verticalAlign=middle;html=1;labelBackgroundColor=#ffffff;rounded=1;align=center;exitX=0.503030303030303;exitY=1;exitDx=0;exitDy=0;exitPerimeter=0;entryX=0.49696969696969695;entryY=0;entryDx=0;entryDy=0;entryPerimeter=0;fontFamily=Garamond;fontSize=18;" parent="1" source="31" target="16" edge="1">
            <mxGeometry relative="1" as="geometry">
              <mxPoint x="-13" as="offset" />
              <Array as="points">
                <mxPoint x="267" y="217.05" />
                <mxPoint x="266.47" y="217.05" />
              </Array>
            </mxGeometry>
          </mxCell>
        </UserObject>
        <mxCell id="144" style="fontFamily=Garamond;fontSize=18;" parent="1" vertex="1">
          <mxGeometry x="1076" y="84" as="geometry" />
        </mxCell>
        <UserObject label="&lt;div&gt;&lt;/div&gt;" tags="Connector" id="145">
          <mxCell style="vsdxID=440;edgeStyle=none;startArrow=none;endArrow=block;startSize=3;endSize=3;spacingTop=0;spacingBottom=0;spacingLeft=0;spacingRight=0;verticalAlign=middle;html=1;labelBackgroundColor=#ffffff;rounded=1;align=center;entryX=0;entryY=0.5161290322580645;entryDx=0;entryDy=0;entryPerimeter=0;fontFamily=Garamond;fontSize=18;" parent="1" source="144" target="106" edge="1">
            <mxGeometry relative="1" as="geometry">
              <mxPoint x="-1" as="offset" />
              <Array as="points" />
            </mxGeometry>
          </mxCell>
        </UserObject>
        <UserObject label="&lt;div&gt;&lt;font style=&quot;color: rgb(0, 0, 0); direction: ltr; letter-spacing: 0px; line-height: 120%; opacity: 1;&quot;&gt;Yes&lt;/font&gt;&lt;font style=&quot;color: rgb(0, 0, 0); direction: ltr; letter-spacing: 0px; line-height: 120%; opacity: 1;&quot;&gt;&lt;br&gt;&lt;/font&gt;&lt;/div&gt;" tags="Connector" id="146">
          <mxCell style="vsdxID=380;edgeStyle=none;startArrow=none;endArrow=block;startSize=5;endSize=5;spacingTop=-1;spacingBottom=-1;spacingLeft=-1;spacingRight=-1;verticalAlign=middle;html=1;labelBackgroundColor=none;rounded=0;align=center;exitX=0.5;exitY=1.011764705882353;exitDx=0;exitDy=0;exitPerimeter=0;entryX=0.503030303030303;entryY=0;entryDx=0;entryDy=0;entryPerimeter=0;fontFamily=Garamond;fontSize=18;" parent="1" source="64" target="70" edge="1">
            <mxGeometry relative="1" as="geometry">
              <mxPoint x="-1" y="11" as="offset" />
              <Array as="points">
                <mxPoint x="806" y="148.35" />
                <mxPoint x="1002.32" y="148.35" />
              </Array>
            </mxGeometry>
          </mxCell>
        </UserObject>
        <UserObject label="&lt;div&gt;&lt;font style=&quot;color: rgb(0, 0, 0); direction: ltr; letter-spacing: 0px; line-height: 120%; opacity: 1;&quot;&gt;No&lt;br&gt;&lt;/font&gt;&lt;/div&gt;" tags="Connector" id="147">
          <mxCell style="vsdxID=379;edgeStyle=none;startArrow=none;endArrow=block;startSize=5;endSize=5;spacingTop=-1;spacingBottom=-1;spacingLeft=-1;spacingRight=-1;verticalAlign=middle;html=1;labelBackgroundColor=none;rounded=0;align=center;exitX=1.0087719298245614;exitY=0.5058823529411764;exitDx=0;exitDy=0;exitPerimeter=0;entryX=0;entryY=0.5;entryDx=0;entryDy=0;entryPerimeter=0;fontFamily=Garamond;fontSize=18;" parent="1" source="64" target="79" edge="1">
            <mxGeometry relative="1" as="geometry">
              <mxPoint x="-5" y="8" as="offset" />
              <Array as="points" />
            </mxGeometry>
          </mxCell>
        </UserObject>
        <UserObject label="&lt;div&gt;&lt;/div&gt;" tags="Connector" id="148">
          <mxCell style="vsdxID=251;edgeStyle=none;startArrow=none;endArrow=block;startSize=3;endSize=3;spacingTop=0;spacingBottom=0;spacingLeft=0;spacingRight=0;verticalAlign=middle;html=1;labelBackgroundColor=#ffffff;rounded=1;align=center;exitX=1.032258064516129;exitY=0.5161290322580645;exitDx=0;exitDy=0;exitPerimeter=0;entryX=0;entryY=0.5;entryDx=0;entryDy=0;entryPerimeter=0;fontFamily=Garamond;fontSize=18;" parent="1" source="25" target="31" edge="1">
            <mxGeometry relative="1" as="geometry">
              <mxPoint x="2" as="offset" />
              <Array as="points" />
            </mxGeometry>
          </mxCell>
        </UserObject>
        <UserObject label="&lt;div&gt;&lt;/div&gt;" tags="Connector" id="149">
          <mxCell style="vsdxID=290;edgeStyle=none;startArrow=none;endArrow=block;startSize=3;endSize=3;spacingTop=0;spacingBottom=0;spacingLeft=0;spacingRight=0;verticalAlign=middle;html=1;labelBackgroundColor=#ffffff;rounded=1;align=center;exitX=1;exitY=0.5;exitDx=0;exitDy=0;exitPerimeter=0;entryX=0;entryY=0.5058823529411764;entryDx=0;entryDy=0;entryPerimeter=0;fontFamily=Garamond;fontSize=18;" parent="1" source="46" target="40" edge="1">
            <mxGeometry relative="1" as="geometry">
              <mxPoint x="4" as="offset" />
              <Array as="points" />
            </mxGeometry>
          </mxCell>
        </UserObject>
        <UserObject label="&lt;div&gt;&lt;font style=&quot;color: rgb(0, 0, 0); direction: ltr; letter-spacing: 0px; line-height: 120%; opacity: 1;&quot;&gt;No&lt;br&gt;&lt;/font&gt;&lt;/div&gt;" tags="Connector" id="150">
          <mxCell style="vsdxID=314;edgeStyle=none;startArrow=none;endArrow=block;startSize=5;endSize=5;spacingTop=-1;spacingBottom=-1;spacingLeft=-1;spacingRight=-1;verticalAlign=middle;html=1;labelBackgroundColor=none;rounded=0;align=center;exitX=0.5;exitY=1.011764705882353;exitDx=0;exitDy=0;exitPerimeter=0;entryX=0;entryY=0.7631578947368421;entryDx=0;entryDy=0;entryPerimeter=0;fontFamily=Garamond;fontSize=18;" parent="1" source="40" target="55" edge="1">
            <mxGeometry relative="1" as="geometry">
              <mxPoint x="9" y="9" as="offset" />
              <Array as="points">
                <mxPoint x="641" y="220.86" />
              </Array>
            </mxGeometry>
          </mxCell>
        </UserObject>
        <UserObject label="&lt;div&gt;&lt;font style=&quot;color: rgb(0, 0, 0); direction: ltr; letter-spacing: 0px; line-height: 120%; opacity: 1;&quot;&gt;Yes&lt;br&gt;&lt;/font&gt;&lt;/div&gt;" tags="Connector" id="151">
          <mxCell style="vsdxID=331;edgeStyle=none;startArrow=none;endArrow=block;startSize=5;endSize=5;spacingTop=-1;spacingBottom=-1;spacingLeft=-1;spacingRight=-1;verticalAlign=middle;html=1;labelBackgroundColor=none;rounded=0;align=center;exitX=0.5;exitY=0;exitDx=0;exitDy=0;exitPerimeter=0;entryX=0;entryY=0.5058823529411764;entryDx=0;entryDy=0;entryPerimeter=0;fontFamily=Garamond;fontSize=18;" parent="1" source="40" target="64" edge="1">
            <mxGeometry relative="1" as="geometry">
              <mxPoint x="11" y="16" as="offset" />
              <Array as="points">
                <mxPoint x="641" y="98.74" />
              </Array>
            </mxGeometry>
          </mxCell>
        </UserObject>
      </root>
    </mxGraphModel>
  </diagram>
</mxfile>
